<svg width="24" height="24" viewBox="0 0 24 24" fill="none" xmlns="http://www.w3.org/2000/svg">
<path d="M11.1429 15.1429V12.8571H8.85714C8.38214 12.8571 8 12.475 8 12C8 11.525 8.38214 11.1429 8.85714 11.1429H11.1429V8.85714C11.1429 8.38214 11.525 8 12 8C12.475 8 12.8571 8.38214 12.8571 8.85714V11.1429H15.1429C15.6179 11.1429 16 11.525 16 12C16 12.475 15.6179 12.8571 15.1429 12.8571H12.8571V15.1429C12.8571 15.6179 12.475 16 12 16C11.525 16 11.1429 15.6179 11.1429 15.1429Z" fill="black"/>
</svg>
