<svg width="24" height="24" viewBox="0 0 24 24" fill="none" xmlns="http://www.w3.org/2000/svg">
<path fill-rule="evenodd" clip-rule="evenodd" d="M14.1915 6.41671C13.6389 7.08397 12.711 7.58442 11.9708 7.58442C11.8874 7.58442 11.804 7.57399 11.7518 7.56357C11.7414 7.52186 11.7206 7.39675 11.7206 7.27164C11.7206 6.41671 12.148 5.58264 12.6172 5.05092C13.2115 4.35238 14.2019 3.83108 15.0256 3.7998C15.0464 3.89364 15.0569 4.00832 15.0569 4.12301C15.0569 4.96751 14.6919 5.81201 14.1915 6.41671ZM10.5657 19.889C10.1941 20.0486 9.84204 20.1998 9.3643 20.1998C8.34256 20.1998 7.6336 19.2615 6.82038 18.1146C5.87162 16.7593 5.1001 14.6636 5.1001 12.6827C5.1001 9.49237 7.17486 7.80337 9.21834 7.80337C9.81477 7.80337 10.3598 8.02207 10.8443 8.21654C11.2322 8.3722 11.5814 8.51234 11.8874 8.51234C12.1527 8.51234 12.4834 8.38166 12.8689 8.22934C13.4072 8.01661 14.0523 7.76167 14.7754 7.76167C15.2341 7.76167 16.9127 7.80337 18.0178 9.38811C18.0115 9.39304 17.998 9.40196 17.9783 9.41496C17.7064 9.59447 16.2558 10.552 16.2558 12.5159C16.2558 14.9451 18.3723 15.8105 18.4453 15.8313C18.4434 15.836 18.4391 15.8494 18.4322 15.8706C18.3627 16.086 18.031 17.1125 17.3193 18.1563C16.6208 19.1572 15.8805 20.179 14.7754 20.179C14.2307 20.179 13.8836 20.0252 13.5252 19.8665C13.1428 19.6972 12.7475 19.5221 12.0855 19.5221C11.4199 19.5221 10.9807 19.7108 10.5657 19.889Z" fill="black"/>
</svg>
