<svg width="24" height="24" viewBox="0 0 24 24" fill="none" xmlns="http://www.w3.org/2000/svg">
<path d="M11.99 1.99982C6.47 1.99982 2 6.47982 2 11.9998C2 17.5198 6.47 21.9998 11.99 21.9998C17.52 21.9998 22 17.5198 22 11.9998C22 6.47982 17.52 1.99982 11.99 1.99982ZM18.92 7.99982H15.97C15.65 6.74982 15.19 5.54982 14.59 4.43982C16.43 5.06982 17.96 6.34982 18.92 7.99982ZM12 4.03982C12.83 5.23982 13.48 6.56982 13.91 7.99982H10.09C10.52 6.56982 11.17 5.23982 12 4.03982ZM4.26 13.9998C4.1 13.3598 4 12.6898 4 11.9998C4 11.3098 4.1 10.6398 4.26 9.99982H7.64C7.56 10.6598 7.5 11.3198 7.5 11.9998C7.5 12.6798 7.56 13.3398 7.64 13.9998H4.26ZM5.08 15.9998H8.03C8.35 17.2498 8.81 18.4498 9.41 19.5598C7.57 18.9298 6.04 17.6598 5.08 15.9998ZM8.03 7.99982H5.08C6.04 6.33982 7.57 5.06982 9.41 4.43982C8.81 5.54982 8.35 6.74982 8.03 7.99982ZM12 19.9598C11.17 18.7598 10.52 17.4298 10.09 15.9998H13.91C13.48 17.4298 12.83 18.7598 12 19.9598ZM14.34 13.9998H9.66C9.57 13.3398 9.5 12.6798 9.5 11.9998C9.5 11.3198 9.57 10.6498 9.66 9.99982H14.34C14.43 10.6498 14.5 11.3198 14.5 11.9998C14.5 12.6798 14.43 13.3398 14.34 13.9998ZM14.59 19.5598C15.19 18.4498 15.65 17.2498 15.97 15.9998H18.92C17.96 17.6498 16.43 18.9298 14.59 19.5598ZM16.36 13.9998C16.44 13.3398 16.5 12.6798 16.5 11.9998C16.5 11.3198 16.44 10.6598 16.36 9.99982H19.74C19.9 10.6398 20 11.3098 20 11.9998C20 12.6898 19.9 13.3598 19.74 13.9998H16.36Z" fill="black"/>
</svg>
