<svg width="24" height="24" viewBox="0 0 24 24" fill="none" xmlns="http://www.w3.org/2000/svg">
<path d="M12.0001 2.40002C11.3363 2.40002 10.8001 2.93627 10.8001 3.60002V3.72002C8.0626 4.27502 6.0001 6.69752 6.0001 9.60002V10.4138C6.0001 12.2175 5.3851 13.9688 4.2601 15.3788L3.8926 15.8363C3.70135 16.0725 3.6001 16.365 3.6001 16.6688C3.6001 17.4038 4.19635 18 4.93135 18H19.0651C19.8001 18 20.3963 17.4038 20.3963 16.6688C20.3963 16.365 20.2951 16.0725 20.1038 15.8363L19.7363 15.3788C18.6151 13.9688 18.0001 12.2175 18.0001 10.4138V9.60002C18.0001 6.69752 15.9376 4.27502 13.2001 3.72002V3.60002C13.2001 2.93627 12.6638 2.40002 12.0001 2.40002ZM9.6751 19.8C9.94135 20.835 10.8826 21.6 12.0001 21.6C13.1176 21.6 14.0588 20.835 14.3251 19.8H9.6751Z" fill="black"/>
</svg>
