<svg width="24" height="24" viewBox="0 0 24 24" fill="none" xmlns="http://www.w3.org/2000/svg">
<path d="M13.4214 13.055C13.8057 13.1072 14.102 13.4368 14.1021 13.8353C14.1021 14.2338 13.8057 14.5633 13.4214 14.6155L13.314 14.6224H8.5874L8.48096 14.6155C8.09658 14.5634 7.80029 14.2339 7.80029 13.8353C7.80035 13.4367 8.09662 13.1072 8.48096 13.055L8.5874 13.0482H13.314L13.4214 13.055Z" fill="black"/>
<path d="M15.519 9.38116C15.9033 9.4333 16.1997 9.76282 16.1997 10.1614C16.1995 10.5599 15.9032 10.8896 15.519 10.9417L15.4126 10.9485H8.5874L8.48096 10.9417C8.09672 10.8896 7.80051 10.5599 7.80029 10.1614C7.80029 9.76282 8.09658 9.4333 8.48096 9.38116L8.5874 9.37335H15.4126L15.519 9.38116Z" fill="black"/>
<path fill-rule="evenodd" clip-rule="evenodd" d="M12.0005 1.50031L12.5405 1.51398C18.0882 1.79513 22.5004 6.3816 22.5005 11.9984L22.4868 12.5384C22.2058 18.0854 17.6181 22.4963 12.0005 22.4964L11.6782 22.4915C10.0707 22.443 8.52076 22.032 7.12354 21.2982L2.61865 22.471L2.52979 22.4896C2.11253 22.5543 1.70527 22.315 1.55811 21.9193L1.53076 21.8323C1.49234 21.6849 1.49236 21.5296 1.53076 21.3821L2.70264 16.8802C1.91762 15.3886 1.50049 13.7229 1.50049 11.9984C1.50057 6.20042 6.20168 1.50031 12.0005 1.50031ZM12.0005 2.81281C6.92634 2.81281 2.81307 6.92545 2.81299 11.9984C2.81299 13.5096 3.17785 14.9655 3.86377 16.2689L4.10107 16.7191L2.97998 21.0198L7.28467 19.8997L7.73389 20.136C9.0363 20.8201 10.4911 21.1839 12.0005 21.1839C17.0745 21.1838 21.188 17.0712 21.188 11.9984C21.1879 6.92554 17.0745 2.81293 12.0005 2.81281Z" fill="black"/>
</svg>
