<svg width="24" height="24" viewBox="0 0 24 24" fill="none" xmlns="http://www.w3.org/2000/svg">
<path fill-rule="evenodd" clip-rule="evenodd" d="M14.9644 8.34644C15.2203 7.99501 15.6982 7.89886 16.0668 8.11379L16.1389 8.16067L16.1441 8.16414L16.1493 8.16848C16.364 8.34155 16.4802 8.55266 16.4957 8.77876C16.5106 8.99708 16.4287 9.19148 16.3229 9.33694L11.7298 15.6532C11.5845 15.8539 11.3604 15.9761 11.1169 15.997C10.8669 16.0183 10.6264 15.9249 10.4546 15.7531L8.15845 13.4561C7.83 13.1276 7.83 12.5952 8.15845 12.2668C8.48691 11.9385 9.01935 11.9384 9.34774 12.2668L10.9477 13.8667L14.9644 8.34644Z" fill="black"/>
</svg>
