<svg width="24" height="24" viewBox="0 0 24 24" fill="none" xmlns="http://www.w3.org/2000/svg">
<path d="M2.40015 12C2.40015 6.69753 6.69765 2.40002 12.0001 2.40002C17.3026 2.40002 21.6001 6.69753 21.6001 12C21.6001 17.3025 17.3026 21.6 12.0001 21.6C6.69765 21.6 2.40015 17.3025 2.40015 12ZM9.4614 7.91628C9.1764 8.07377 9.00015 8.37752 9.00015 8.70002V15.3C9.00015 15.6263 9.1764 15.9263 9.4614 16.0838C9.7464 16.2413 10.0914 16.2375 10.3726 16.065L15.7726 12.765C16.0389 12.6 16.2039 12.3113 16.2039 11.9963C16.2039 11.6813 16.0389 11.3925 15.7726 11.2275L10.3726 7.92752C10.0951 7.75877 9.7464 7.75127 9.4614 7.90877V7.91628Z" fill="black"/>
</svg>
