<svg width="24" height="24" viewBox="0 0 24 24" fill="none" xmlns="http://www.w3.org/2000/svg">
<path d="M11.9999 21.6C17.3024 21.6 21.5999 17.3025 21.5999 12C21.5999 6.69753 17.3024 2.40002 11.9999 2.40002C6.6974 2.40002 2.3999 6.69753 2.3999 12C2.3999 17.3025 6.6974 21.6 11.9999 21.6ZM10.7999 9.60002V14.4C10.7999 15.0638 10.2637 15.6 9.5999 15.6C8.93615 15.6 8.3999 15.0638 8.3999 14.4V9.60002C8.3999 8.93627 8.93615 8.40002 9.5999 8.40002C10.2637 8.40002 10.7999 8.93627 10.7999 9.60002ZM15.5999 9.60002V14.4C15.5999 15.0638 15.0637 15.6 14.3999 15.6C13.7362 15.6 13.1999 15.0638 13.1999 14.4V9.60002C13.1999 8.93627 13.7362 8.40002 14.3999 8.40002C15.0637 8.40002 15.5999 8.93627 15.5999 9.60002Z" fill="black"/>
</svg>
