<svg width="24" height="24" viewBox="0 0 24 24" fill="none" xmlns="http://www.w3.org/2000/svg">
<path d="M11.9999 21.6C17.3024 21.6 21.5999 17.3025 21.5999 12C21.5999 6.69753 17.3024 2.40002 11.9999 2.40002C6.6974 2.40002 2.3999 6.69753 2.3999 12C2.3999 17.3025 6.6974 21.6 11.9999 21.6ZM11.3624 16.5375L8.3624 13.5375C8.0099 13.185 8.0099 12.615 8.3624 12.2663C8.7149 11.9175 9.2849 11.9138 9.63365 12.2663L11.0962 13.7288V8.10002C11.0962 7.60127 11.4974 7.20002 11.9962 7.20002C12.4949 7.20002 12.8962 7.60127 12.8962 8.10002V13.7288L14.3587 12.2663C14.7112 11.9138 15.2812 11.9138 15.6299 12.2663C15.9787 12.6188 15.9824 13.1888 15.6299 13.5375L12.6299 16.5375C12.2774 16.89 11.7074 16.89 11.3587 16.5375H11.3624Z" fill="black"/>
</svg>
