<svg width="24" height="24" viewBox="0 0 24 24" fill="none" xmlns="http://www.w3.org/2000/svg">
<path d="M11.9999 21.5994C6.6974 21.5994 2.3999 17.3019 2.3999 11.9994C2.3999 6.69691 6.6974 2.39941 11.9999 2.39941C17.3024 2.39941 21.5999 6.69691 21.5999 11.9994C21.5999 17.3019 17.3024 21.5994 11.9999 21.5994ZM16.4249 7.86316C16.0237 7.57066 15.4612 7.66066 15.1687 8.06191L10.6912 14.2194L8.7374 12.2657C8.3849 11.9132 7.8149 11.9132 7.46615 12.2657C7.1174 12.6182 7.11365 13.1882 7.46615 13.5369L10.1662 16.2369C10.3537 16.4244 10.6087 16.5182 10.8712 16.4994C11.1337 16.4807 11.3737 16.3457 11.5274 16.1319L16.6237 9.11941C16.9162 8.71816 16.8262 8.15566 16.4249 7.86316Z" fill="black"/>
</svg>
