<svg width="24" height="24" viewBox="0 0 24 24" fill="none" xmlns="http://www.w3.org/2000/svg">
<path d="M11.9999 4.20002C16.3087 4.20002 19.7999 7.69127 19.7999 12C19.7999 16.3088 16.3087 19.8 11.9999 19.8C7.69115 19.8 4.1999 16.3088 4.1999 12C4.1999 7.69127 7.69115 4.20002 11.9999 4.20002ZM11.9999 21.6C17.3024 21.6 21.5999 17.3025 21.5999 12C21.5999 6.69753 17.3024 2.40002 11.9999 2.40002C6.6974 2.40002 2.3999 6.69753 2.3999 12C2.3999 17.3025 6.6974 21.6 11.9999 21.6ZM10.7999 9.30002C10.7999 8.80127 10.3987 8.40002 9.8999 8.40002C9.40115 8.40002 8.9999 8.80127 8.9999 9.30002V14.7C8.9999 15.1988 9.40115 15.6 9.8999 15.6C10.3987 15.6 10.7999 15.1988 10.7999 14.7V9.30002ZM14.9999 9.30002C14.9999 8.80127 14.5987 8.40002 14.0999 8.40002C13.6012 8.40002 13.1999 8.80127 13.1999 9.30002V14.7C13.1999 15.1988 13.6012 15.6 14.0999 15.6C14.5987 15.6 14.9999 15.1988 14.9999 14.7V9.30002Z" fill="black"/>
</svg>
