<svg width="24" height="24" viewBox="0 0 24 24" fill="none" xmlns="http://www.w3.org/2000/svg">
<path d="M11.9999 4.20002C16.3087 4.20002 19.7999 7.69127 19.7999 12C19.7999 16.3088 16.3087 19.8 11.9999 19.8C7.69115 19.8 4.1999 16.3088 4.1999 12C4.1999 7.69127 7.69115 4.20002 11.9999 4.20002ZM11.9999 21.6C17.3024 21.6 21.5999 17.3025 21.5999 12C21.5999 6.69753 17.3024 2.40002 11.9999 2.40002C6.6974 2.40002 2.3999 6.69753 2.3999 12C2.3999 17.3025 6.6974 21.6 11.9999 21.6ZM10.3687 7.93127C10.0912 7.76252 9.7424 7.75502 9.4574 7.91252C9.1724 8.07002 8.9999 8.37377 8.9999 8.70002V15.3C8.9999 15.6263 9.17615 15.9263 9.46115 16.0838C9.74615 16.2413 10.0912 16.2375 10.3724 16.065L15.7724 12.765C16.0387 12.6 16.2037 12.3113 16.2037 11.9963C16.2037 11.6813 16.0387 11.3925 15.7724 11.2275L10.3724 7.92752L10.3687 7.93127ZM13.5749 12L10.7999 13.695V10.305L13.5749 12Z" fill="black"/>
</svg>
