<svg width="24" height="24" viewBox="0 0 24 24" fill="none" xmlns="http://www.w3.org/2000/svg">
<path d="M10.8001 2.40039C9.47635 2.40039 8.4001 3.47664 8.4001 4.80039V14.4004C8.4001 15.7241 9.47635 16.8004 10.8001 16.8004H18.0001C19.3238 16.8004 20.4001 15.7241 20.4001 14.4004V6.87789C20.4001 6.22539 20.1338 5.59914 19.6613 5.14539L17.4976 3.06789C17.0513 2.64039 16.4551 2.40039 15.8363 2.40039H10.8001ZM6.0001 7.20039C4.67635 7.20039 3.6001 8.27664 3.6001 9.60039V19.2004C3.6001 20.5241 4.67635 21.6004 6.0001 21.6004H13.2001C14.5238 21.6004 15.6001 20.5241 15.6001 19.2004V18.6004H13.2001V19.2004H6.0001V9.60039H6.6001V7.20039H6.0001Z" fill="black"/>
</svg>
