<svg width="24" height="24" viewBox="0 0 24 24" fill="none" xmlns="http://www.w3.org/2000/svg">
<path d="M18.0001 15.0004H10.8001C10.4701 15.0004 10.2001 14.7304 10.2001 14.4004V4.80039C10.2001 4.47039 10.4701 4.20039 10.8001 4.20039H15.8063C15.9638 4.20039 16.1176 4.26414 16.2301 4.37664L18.4238 6.57039C18.5363 6.68289 18.6001 6.83664 18.6001 6.99414V14.4004C18.6001 14.7304 18.3301 15.0004 18.0001 15.0004ZM10.8001 16.8004H18.0001C19.3238 16.8004 20.4001 15.7241 20.4001 14.4004V6.99414C20.4001 6.35664 20.1488 5.74539 19.6988 5.29539L17.5013 3.10164C17.0513 2.65164 16.4438 2.40039 15.8063 2.40039H10.8001C9.47635 2.40039 8.4001 3.47664 8.4001 4.80039V14.4004C8.4001 15.7241 9.47635 16.8004 10.8001 16.8004ZM6.0001 7.20039C4.67635 7.20039 3.6001 8.27664 3.6001 9.60039V19.2004C3.6001 20.5241 4.67635 21.6004 6.0001 21.6004H13.2001C14.5238 21.6004 15.6001 20.5241 15.6001 19.2004V18.6004H13.8001V19.2004C13.8001 19.5304 13.5301 19.8004 13.2001 19.8004H6.0001C5.6701 19.8004 5.4001 19.5304 5.4001 19.2004V9.60039C5.4001 9.27039 5.6701 9.00039 6.0001 9.00039H6.6001V7.20039H6.0001Z" fill="black"/>
</svg>
