<svg width="24" height="24" viewBox="0 0 24 24" fill="none" xmlns="http://www.w3.org/2000/svg">
<path d="M2.3999 12C2.3999 6.69753 6.6974 2.40002 11.9999 2.40002C17.3024 2.40002 21.5999 6.69753 21.5999 12C21.5999 17.3025 17.3024 21.6 11.9999 21.6C6.6974 21.6 2.3999 17.3025 2.3999 12ZM13.1999 6.00002C13.1999 5.33627 12.6637 4.80002 11.9999 4.80002C11.3362 4.80002 10.7999 5.33627 10.7999 6.00002C10.7999 6.66377 11.3362 7.20002 11.9999 7.20002C12.6637 7.20002 13.1999 6.66377 13.1999 6.00002ZM11.9999 18C13.3237 18 14.3999 16.9238 14.3999 15.6C14.3999 15.4725 14.3887 15.3488 14.3699 15.2288L18.4612 12.7725C18.8887 12.5175 19.0237 11.9625 18.7687 11.5388C18.5137 11.115 17.9587 10.9725 17.5349 11.2313L13.4437 13.6838C13.0424 13.38 12.5399 13.2 11.9999 13.2C10.6762 13.2 9.5999 14.2763 9.5999 15.6C9.5999 16.9238 10.6762 18 11.9999 18ZM8.9999 7.80002C8.9999 7.13627 8.46365 6.60002 7.7999 6.60002C7.13615 6.60002 6.5999 7.13627 6.5999 7.80002C6.5999 8.46377 7.13615 9.00002 7.7999 9.00002C8.46365 9.00002 8.9999 8.46377 8.9999 7.80002ZM5.9999 13.2C6.66365 13.2 7.1999 12.6638 7.1999 12C7.1999 11.3363 6.66365 10.8 5.9999 10.8C5.33615 10.8 4.7999 11.3363 4.7999 12C4.7999 12.6638 5.33615 13.2 5.9999 13.2ZM17.3999 7.80002C17.3999 7.13627 16.8637 6.60002 16.1999 6.60002C15.5362 6.60002 14.9999 7.13627 14.9999 7.80002C14.9999 8.46377 15.5362 9.00002 16.1999 9.00002C16.8637 9.00002 17.3999 8.46377 17.3999 7.80002Z" fill="black"/>
</svg>
