<svg width="24" height="24" viewBox="0 0 24 24" fill="none" xmlns="http://www.w3.org/2000/svg">
<path fill-rule="evenodd" clip-rule="evenodd" d="M5 4C3.3 4 2 5.3 2 7V8H22V7C22 5.3 20.7 4 19 4H5ZM2 10.5H22V14.6C21.5 14.6 21.1 14.9 20.7 15.3L18.5 17.5L18.3 17.3C17.3 16.3 15.7 16.3 14.8 17.3C14.1 18 13.9 19.2 14.3 20.1H5C3.3 20.1 2 18.8 2 17.1V10.5ZM5.2 15.5C4.8 15.5 4.4 15.8 4.4 16.3C4.4 16.8 4.7 17.1 5.2 17.1H9.7C10.1 17.1 10.5 16.8 10.5 16.3C10.5 15.8 10.2 15.5 9.7 15.5H5.2Z" fill="black"/>
<path d="M23.2 16.3C23.6 16.7 23.6 17.3 23.2 17.7L19.2 21.7C18.8 22.1 18.2 22.1 17.8 21.7L15.8 19.7C15.4 19.3 15.4 18.7 15.8 18.3C16.2 17.9 16.8 17.9 17.2 18.3L18.5 19.6L21.8 16.3C22.2 15.9 22.8 15.9 23.2 16.3Z" fill="black"/>
</svg>
