<svg width="24" height="24" viewBox="0 0 24 24" fill="none" xmlns="http://www.w3.org/2000/svg">
<path d="M12.9375 5.67C13.2825 5.39625 13.5 4.9725 13.5 4.5C13.5 3.67125 12.8288 3 12 3C11.1713 3 10.5 3.67125 10.5 4.5C10.5 4.9725 10.7213 5.39625 11.0625 5.67L8.49755 9.705C8.12255 10.2937 7.3238 10.44 6.76505 10.02L4.5338 8.35125C4.70255 8.11125 4.80005 7.815 4.80005 7.5C4.80005 6.67125 4.1288 6 3.30005 6C2.4713 6 1.80005 6.67125 1.80005 7.5C1.80005 8.3175 2.4563 8.985 3.27005 9L4.49255 17.1563C4.6688 18.33 5.67755 19.2 6.8663 19.2H17.1338C18.3225 19.2 19.3313 18.33 19.5075 17.1563L20.73 9C21.5438 8.985 22.2 8.3175 22.2 7.5C22.2 6.67125 21.5288 6 20.7 6C19.8713 6 19.2 6.67125 19.2 7.5C19.2 7.815 19.2975 8.11125 19.4663 8.35125L17.2388 10.0237C16.68 10.4437 15.8813 10.2975 15.5063 9.70875L12.9375 5.67Z" fill="black"/>
</svg>
