<svg width="24" height="24" viewBox="0 0 24 24" fill="none" xmlns="http://www.w3.org/2000/svg">
<path d="M13.1363 5.47875C13.365 5.21625 13.5 4.875 13.5 4.5C13.5 3.67125 12.8288 3 12 3C11.1713 3 10.5 3.67125 10.5 4.5C10.5 4.875 10.6388 5.21625 10.8638 5.47875L8.1038 9.6225L4.76255 7.84125C4.7888 7.7325 4.80005 7.62 4.80005 7.5C4.80005 6.67125 4.1288 6 3.30005 6C2.4713 6 1.80005 6.67125 1.80005 7.5C1.80005 8.2575 2.36255 8.88375 3.09005 8.985L4.45505 16.4888C4.74005 18.0563 6.1088 19.2 7.70255 19.2H16.2975C17.8913 19.2 19.26 18.06 19.545 16.4888L20.91 8.985C21.6413 8.88375 22.2 8.2575 22.2 7.5C22.2 6.67125 21.5288 6 20.7 6C19.8713 6 19.2 6.67125 19.2 7.5C19.2 7.61625 19.215 7.72875 19.2375 7.84125L15.8963 9.6225L13.1363 5.4825V5.47875ZM9.15005 11.2987L12 7.02375L14.85 11.2987C15.105 11.685 15.615 11.8125 16.0238 11.595L18.8813 10.0725L17.7713 16.17C17.64 16.8825 17.0213 17.4 16.2938 17.4H7.6988C6.97505 17.4 6.35255 16.8825 6.2213 16.17L5.1113 10.0725L7.9688 11.595C8.37755 11.8125 8.8838 11.685 9.14255 11.2987H9.15005Z" fill="black"/>
</svg>
