<svg width="24" height="24" viewBox="0 0 24 24" fill="none" xmlns="http://www.w3.org/2000/svg">
<path d="M3.95239 11.1525C3.48364 11.6212 3.48364 12.3825 3.95239 12.8512L9.95239 18.8512C10.4211 19.32 11.1824 19.32 11.6511 18.8512C12.1199 18.3825 12.1199 17.6212 11.6511 17.1525L6.49864 12L11.6474 6.84749C12.1161 6.37874 12.1161 5.61749 11.6474 5.14874C11.1786 4.67999 10.4174 4.67999 9.94864 5.14874L3.94864 11.1487L3.95239 11.1525ZM17.1524 5.15249L11.1524 11.1525C10.6836 11.6212 10.6836 12.3825 11.1524 12.8512L17.1524 18.8512C17.6211 19.32 18.3824 19.32 18.8511 18.8512C19.3199 18.3825 19.3199 17.6212 18.8511 17.1525L13.6986 12L18.8474 6.84749C19.3161 6.37874 19.3161 5.61749 18.8474 5.14874C18.3786 4.67999 17.6174 4.67999 17.1486 5.14874L17.1524 5.15249Z" fill="black"/>
</svg>
