<svg width="24" height="24" viewBox="0 0 24 24" fill="none" xmlns="http://www.w3.org/2000/svg">
<path d="M20.0662 12.8475C20.535 12.3787 20.535 11.6175 20.0662 11.1487L14.0662 5.14874C13.5975 4.67999 12.8362 4.67999 12.3675 5.14874C11.8987 5.61749 11.8987 6.37874 12.3675 6.84749L17.52 12L12.3712 17.1525C11.9025 17.6212 11.9025 18.3825 12.3712 18.8512C12.84 19.32 13.6012 19.32 14.07 18.8512L20.07 12.8512L20.0662 12.8475ZM6.86623 18.8475L12.8662 12.8475C13.335 12.3787 13.335 11.6175 12.8662 11.1487L6.86623 5.14874C6.39748 4.67999 5.63623 4.67999 5.16748 5.14874C4.69873 5.61749 4.69873 6.37874 5.16748 6.84749L10.32 12L5.17123 17.1525C4.70248 17.6212 4.70248 18.3825 5.17123 18.8512C5.63998 19.32 6.40123 19.32 6.86998 18.8512L6.86623 18.8475Z" fill="black"/>
</svg>
