<svg width="24" height="24" viewBox="0 0 24 24" fill="none" xmlns="http://www.w3.org/2000/svg">
<path d="M13.4536 18.2628C13.1791 18.1668 12.8759 18.2769 12.7264 18.5281L12.6761 18.636C12.5387 19.0216 12.1718 19.2803 11.7622 19.2803C11.4058 19.2803 11.0793 19.0857 10.9103 18.774L10.8485 18.636C10.7394 18.3203 10.3899 18.151 10.071 18.2628C9.91815 18.3154 9.79553 18.4239 9.72452 18.5702C9.65285 18.7181 9.64299 18.8851 9.69789 19.042L9.75937 19.1975C10.1098 19.9888 10.8959 20.5 11.7622 20.5C12.6886 20.5 13.5184 19.9132 13.8284 19.0364L13.8563 18.9203C13.8951 18.6343 13.7255 18.3581 13.4536 18.2628Z" fill="black"/>
<path d="M17.8053 15.4848L17.8973 15.5769C17.9575 15.6377 17.991 15.7182 17.991 15.8037C17.991 15.9806 17.847 16.1243 17.6704 16.1243H5.85493C5.67838 16.1243 5.53439 15.9806 5.53439 15.8037C5.53439 15.7176 5.56759 15.637 5.62809 15.5769L5.94204 15.2531C7.03615 14.0472 7.63843 12.4846 7.63843 10.8526V9.89597C7.63843 7.62191 9.48835 5.7717 11.7627 5.7717H11.887C14.1297 5.83911 15.8837 7.6443 15.8837 9.89268V10.8494C15.8837 12.574 16.5839 14.2635 17.8053 15.4848ZM18.8628 14.8299L18.7619 14.7188L18.6698 14.6268C17.6623 13.6142 17.1066 12.2742 17.1066 10.8526V9.89597C17.1066 7.16828 15.0743 4.89229 12.3725 4.58653V4.10984C12.3725 3.77319 12.0993 3.5 11.7627 3.5C11.4267 3.5 11.1528 3.77319 11.1528 4.10984V4.58653C8.45145 4.89229 6.41874 7.16828 6.41874 9.89597V10.8526C6.41874 12.1759 5.92922 13.4472 5.04125 14.4312L4.85879 14.6235L4.76674 14.7155C4.4794 15.0025 4.3147 15.3987 4.3147 15.8037C4.3147 16.6526 5.00542 17.344 5.85493 17.344L17.6754 17.3472L17.8315 17.3397C18.6199 17.2591 19.214 16.6 19.214 15.807C19.214 15.4526 19.0901 15.1058 18.8628 14.8299Z" fill="black"/>
</svg>
