<svg width="24" height="24" viewBox="0 0 24 24" fill="none" xmlns="http://www.w3.org/2000/svg">
<path d="M12.5 1C18.2989 1 23 5.70031 23 11.4984C23 17.2965 18.2989 21.9969 12.5 21.9969C10.7776 21.9969 9.11392 21.581 7.62357 20.7983L3.11865 21.9709C2.64166 22.0952 2.15424 21.8093 2.03001 21.3323C1.99159 21.1849 1.99158 21.0301 2.02998 20.8826L3.20214 16.3804C2.41706 14.8888 2 13.2231 2 11.4984C2 5.70031 6.70101 1 12.5 1ZM13.8143 12.5483H9.0875L8.98064 12.5554C8.59626 12.6076 8.3 12.937 8.3 13.3357C8.3 13.7343 8.59626 14.0637 8.98064 14.1159L9.0875 14.123H13.8143L13.9212 14.1159C14.3056 14.0637 14.6018 13.7343 14.6018 13.3357C14.6018 12.937 14.3056 12.6076 13.9212 12.5554L13.8143 12.5483ZM15.9125 8.87383H9.0875L8.98064 8.88102C8.59626 8.93315 8.3 9.26258 8.3 9.66121C8.3 10.0598 8.59626 10.3893 8.98064 10.4415L9.0875 10.4486H15.9125L16.0194 10.4415C16.4037 10.3893 16.7 10.0598 16.7 9.66121C16.7 9.26258 16.4037 8.93315 16.0194 8.88102L15.9125 8.87383Z" fill="black"/>
</svg>
