<svg width="24" height="24" viewBox="0 0 24 24" fill="none" xmlns="http://www.w3.org/2000/svg">
<path d="M9.84087 3.08478C10.8902 1.58593 13.1098 1.58606 14.1592 3.08478C14.7468 3.92424 15.7683 4.34686 16.7774 4.16877C18.5793 3.85094 20.1491 5.42152 19.8311 7.22345C19.6532 8.23237 20.0758 9.2531 20.9151 9.84064C22.4142 10.89 22.4141 13.1096 20.9151 14.159C20.0756 14.7466 19.653 15.7681 19.8311 16.7772C20.149 18.579 18.5793 20.1487 16.7774 19.8309C15.7683 19.6528 14.7468 20.0754 14.1592 20.9149C13.1099 22.4139 10.8902 22.4139 9.84087 20.9149C9.25333 20.0756 8.23261 19.653 7.22368 19.8309C5.42176 20.1489 3.85118 18.5791 4.169 16.7772C4.34709 15.7681 3.92447 14.7466 3.08501 14.159C1.5863 13.1096 1.58619 10.89 3.08501 9.84064C3.92439 9.2531 4.34695 8.23244 4.169 7.22345C3.85096 5.42143 5.42166 3.85073 7.22368 4.16877C8.23267 4.34673 9.25333 3.92416 9.84087 3.08478ZM15.5909 8.49494C15.2369 8.2378 14.7422 8.31718 14.4854 8.66974L10.8633 13.6473L9.43657 12.2205C9.12749 11.9118 8.62553 11.9118 8.31646 12.2205C8.00781 12.5296 8.00775 13.0316 8.31646 13.3406L10.3995 15.4236C10.5609 15.5849 10.7873 15.673 11.0225 15.6531C11.2514 15.6335 11.4618 15.5169 11.5987 15.3279L15.7647 9.60138C16.0562 9.19969 15.9449 8.75211 15.5909 8.49494Z" fill="black"/>
</svg>
