<svg width="24" height="24" viewBox="0 0 24 24" fill="none" xmlns="http://www.w3.org/2000/svg">
<path d="M7.52187 16.0225C7.31562 15.3213 7.20312 14.575 7.20312 13.8063C7.20312 10.0338 9.88062 6.8875 13.4356 6.16375C12.3406 4.96 10.7581 4.20625 9.00312 4.20625C5.68812 4.20625 3.00312 6.89125 3.00312 10.2063C3.00312 13.0075 4.92312 15.3625 7.52187 16.0225ZM8.41437 17.9838C4.38312 17.6838 1.20312 14.3163 1.20312 10.2063C1.20312 5.8975 4.69437 2.40625 9.00312 2.40625C11.7744 2.40625 14.2081 3.85 15.5919 6.02875C19.6231 6.32875 22.8031 9.69625 22.8031 13.8063C22.8031 18.115 19.3119 21.6063 15.0031 21.6063C12.2319 21.6063 9.79812 20.1625 8.41437 17.9838ZM10.5669 17.8488C11.6656 19.0525 13.2444 19.8063 14.9994 19.8063C18.3144 19.8063 20.9994 17.1213 20.9994 13.8063C20.9994 11.005 19.0794 8.65 16.4806 7.99C16.6869 8.69125 16.7994 9.4375 16.7994 10.2063C16.7994 13.9788 14.1219 17.125 10.5669 17.8488ZM14.5119 7.825C11.4294 8.07625 9.00312 10.6562 9.00312 13.8063C9.00312 14.6538 9.17937 15.4563 9.49437 16.1875C12.5769 15.9363 15.0031 13.3563 15.0031 10.2063C15.0031 9.35875 14.8269 8.55625 14.5119 7.825Z" fill="black"/>
</svg>
