<svg width="24" height="24" viewBox="0 0 24 24" fill="none" xmlns="http://www.w3.org/2000/svg">
<path d="M11.9999 4.20002C16.3087 4.20002 19.7999 7.69127 19.7999 12C19.7999 16.3088 16.3087 19.8 11.9999 19.8C7.69115 19.8 4.1999 16.3088 4.1999 12C4.1999 7.69127 7.69115 4.20002 11.9999 4.20002ZM11.9999 21.6C17.3024 21.6 21.5999 17.3025 21.5999 12C21.5999 6.69753 17.3024 2.40002 11.9999 2.40002C6.6974 2.40002 2.3999 6.69753 2.3999 12C2.3999 17.3025 6.6974 21.6 11.9999 21.6ZM11.3624 15.6375C11.7149 15.99 12.2849 15.99 12.6337 15.6375L15.3337 12.9375C15.6862 12.585 15.6862 12.015 15.3337 11.6663C14.9812 11.3175 14.4112 11.3138 14.0624 11.6663L12.8999 12.8288V9.00002C12.8999 8.50127 12.4987 8.10002 11.9999 8.10002C11.5012 8.10002 11.0999 8.50127 11.0999 9.00002V12.8288L9.9374 11.6663C9.5849 11.3138 9.0149 11.3138 8.66615 11.6663C8.3174 12.0188 8.31365 12.5888 8.66615 12.9375L11.3662 15.6375H11.3624Z" fill="black"/>
</svg>
