<svg width="24" height="24" viewBox="0 0 24 24" fill="none" xmlns="http://www.w3.org/2000/svg">
<path d="M11.9999 21.6C17.3024 21.6 21.5999 17.3025 21.5999 12C21.5999 6.69753 17.3024 2.40002 11.9999 2.40002C6.6974 2.40002 2.3999 6.69753 2.3999 12C2.3999 17.3025 6.6974 21.6 11.9999 21.6ZM8.6624 8.66252C9.0149 8.31002 9.5849 8.31002 9.93365 8.66252L11.9962 10.725L14.0587 8.66252C14.4112 8.31002 14.9812 8.31002 15.3299 8.66252C15.6787 9.01502 15.6824 9.58502 15.3299 9.93377L13.2674 11.9963L15.3299 14.0588C15.6824 14.4113 15.6824 14.9813 15.3299 15.33C14.9774 15.6788 14.4074 15.6825 14.0587 15.33L11.9962 13.2675L9.93365 15.33C9.58115 15.6825 9.01115 15.6825 8.6624 15.33C8.31365 14.9775 8.3099 14.4075 8.6624 14.0588L10.7249 11.9963L8.6624 9.93377C8.3099 9.58127 8.3099 9.01127 8.6624 8.66252Z" fill="black"/>
</svg>
