<svg width="24" height="24" viewBox="0 0 24 24" fill="none" xmlns="http://www.w3.org/2000/svg">
<path d="M11.9999 21.6C17.3024 21.6 21.5999 17.3025 21.5999 12C21.5999 6.69753 17.3024 2.40002 11.9999 2.40002C6.6974 2.40002 2.3999 6.69753 2.3999 12C2.3999 17.3025 6.6974 21.6 11.9999 21.6ZM13.5374 15.6375C13.1849 15.99 12.6149 15.99 12.2662 15.6375C11.9174 15.285 11.9137 14.715 12.2662 14.3663L13.7287 12.9038H8.0999C7.60115 12.9038 7.1999 12.5025 7.1999 12.0038C7.1999 11.505 7.60115 11.1038 8.0999 11.1038H13.7287L12.2662 9.64127C11.9137 9.28877 11.9137 8.71877 12.2662 8.37002C12.6187 8.02127 13.1887 8.01752 13.5374 8.37002L16.5374 11.37C16.8899 11.7225 16.8899 12.2925 16.5374 12.6413L13.5374 15.6413V15.6375Z" fill="black"/>
</svg>
