<svg width="24" height="24" viewBox="0 0 24 24" fill="none" xmlns="http://www.w3.org/2000/svg">
<path d="M11.9999 4.20002C16.3087 4.20002 19.7999 7.69127 19.7999 12C19.7999 16.3088 16.3087 19.8 11.9999 19.8C7.69115 19.8 4.1999 16.3088 4.1999 12C4.1999 7.69127 7.69115 4.20002 11.9999 4.20002ZM11.9999 21.6C17.3024 21.6 21.5999 17.3025 21.5999 12C21.5999 6.69753 17.3024 2.40002 11.9999 2.40002C6.6974 2.40002 2.3999 6.69753 2.3999 12C2.3999 17.3025 6.6974 21.6 11.9999 21.6ZM8.6624 8.66252C8.3099 9.01502 8.3099 9.58502 8.6624 9.93377L10.7249 11.9963L8.6624 14.0588C8.3099 14.4113 8.3099 14.9813 8.6624 15.33C9.0149 15.6788 9.5849 15.6825 9.93365 15.33L11.9962 13.2675L14.0587 15.33C14.4112 15.6825 14.9812 15.6825 15.3299 15.33C15.6787 14.9775 15.6824 14.4075 15.3299 14.0588L13.2674 11.9963L15.3299 9.93377C15.6824 9.58127 15.6824 9.01127 15.3299 8.66252C14.9774 8.31377 14.4074 8.31002 14.0587 8.66252L11.9962 10.725L9.93365 8.66252C9.58115 8.31002 9.01115 8.31002 8.6624 8.66252Z" fill="black"/>
</svg>
