<svg width="24" height="24" viewBox="0 0 24 24" fill="none" xmlns="http://www.w3.org/2000/svg">
<path d="M7.19995 13.7999C7.19995 14.3287 7.25245 14.8462 7.3537 15.3449C5.1787 14.6474 3.59995 12.6074 3.59995 10.1999C3.59995 7.21865 6.0187 4.7999 8.99995 4.7999C10.4625 4.7999 11.79 5.38115 12.7612 6.32615C9.5437 7.2899 7.19995 10.2712 7.19995 13.7999ZM15.5887 6.0224C14.205 3.84365 11.7712 2.3999 8.99995 2.3999C4.6912 2.3999 1.19995 5.89115 1.19995 10.1999C1.19995 14.3099 4.37995 17.6774 8.4112 17.9774C9.79495 20.1562 12.2287 21.5999 15 21.5999C19.3087 21.5999 22.8 18.1087 22.8 13.7999C22.8 9.6899 19.62 6.3224 15.5887 6.0224ZM16.6462 8.6549C18.8212 9.3524 20.4 11.3924 20.4 13.7999C20.4 16.7812 17.9812 19.1999 15 19.1999C13.5375 19.1999 12.21 18.6187 11.2387 17.6737C14.4562 16.7099 16.8 13.7287 16.8 10.1999C16.8 9.67115 16.7475 9.15365 16.6462 8.6549Z" fill="black"/>
</svg>
