<svg width="24" height="24" viewBox="0 0 24 24" fill="none" xmlns="http://www.w3.org/2000/svg">
<path d="M11.9999 4.20002C16.3087 4.20002 19.7999 7.69127 19.7999 12C19.7999 16.3088 16.3087 19.8 11.9999 19.8C7.69115 19.8 4.1999 16.3088 4.1999 12C4.1999 7.69127 7.69115 4.20002 11.9999 4.20002ZM11.9999 21.6C17.3024 21.6 21.5999 17.3025 21.5999 12C21.5999 6.69753 17.3024 2.40002 11.9999 2.40002C6.6974 2.40002 2.3999 6.69753 2.3999 12C2.3999 17.3025 6.6974 21.6 11.9999 21.6ZM12.9374 15.3375L15.6374 12.6375C15.9899 12.285 15.9899 11.715 15.6374 11.3663L12.9374 8.66628C12.5849 8.31378 12.0149 8.31378 11.6662 8.66628C11.3174 9.01877 11.3137 9.58877 11.6662 9.93752L12.8287 11.1H8.9999C8.50115 11.1 8.0999 11.5013 8.0999 12C8.0999 12.4988 8.50115 12.9 8.9999 12.9H12.8287L11.6662 14.0625C11.3137 14.415 11.3137 14.985 11.6662 15.3338C12.0187 15.6825 12.5887 15.6863 12.9374 15.3338V15.3375Z" fill="black"/>
</svg>
