<svg width="24" height="24" viewBox="0 0 24 24" fill="none" xmlns="http://www.w3.org/2000/svg">
<path fill-rule="evenodd" clip-rule="evenodd" d="M8.16386 8.16386C8.48913 7.8386 9.01534 7.83862 9.34062 8.16386L11.8494 10.6727L14.3592 8.16972C14.6844 7.84445 15.2107 7.84445 15.5359 8.16972C15.8554 8.48949 15.8556 9.02097 15.5359 9.34062L13.0262 11.8494L15.5359 14.3592C15.861 14.6845 15.8611 15.2107 15.5359 15.5359C15.2107 15.8611 14.6845 15.861 14.3592 15.5359L11.8494 13.0262L9.34062 15.5359C9.01541 15.8611 8.48915 15.861 8.16386 15.5359C7.83869 15.2107 7.83862 14.6844 8.16386 14.3592L10.6727 11.8494L8.16386 9.34062C7.83862 9.01534 7.8386 8.48913 8.16386 8.16386Z" fill="black"/>
</svg>
