<svg width="24" height="24" viewBox="0 0 24 24" fill="none" xmlns="http://www.w3.org/2000/svg">
<path d="M13.7201 3.00769C9.20199 3.00769 5.5336 5.06128 5.5336 7.6127V9.39663C3.95847 10.2264 2.98438 11.4087 2.98438 12.7363V16.3249C2.98438 18.5859 6.65277 20.4113 11.1709 20.4113C15.689 20.4113 19.3574 18.5859 19.3574 16.3249V14.1676C20.9326 13.4208 21.9067 12.3629 21.9067 11.2013V7.6127C21.9067 5.06128 18.2383 3.00769 13.7201 3.00769ZM13.7201 4.54269C17.0984 4.54269 19.8548 5.91175 19.8548 7.6127C19.8548 9.31365 17.0984 10.6827 13.7201 10.6827C10.3419 10.6827 7.58541 9.31365 7.58541 7.6127C7.58541 5.91175 10.3419 4.54269 13.7201 4.54269ZM14.487 13.732V12.197C15.2953 12.1555 16.0621 12.0518 16.7875 11.8858V13.4208C16.0828 13.5868 15.316 13.6905 14.487 13.732ZM12.9533 12.1762V13.7112C12.0206 13.6697 11.1709 13.5245 10.4041 13.3379V11.8029C11.1916 11.9895 12.0621 12.1347 12.9533 12.1762ZM7.088 10.2886C7.58541 10.6827 8.18645 11.0146 8.87039 11.305V12.8193C8.2654 12.5165 7.06728 11.9878 7.06728 11.1806V10.2886H7.088ZM6.32116 17.9429C6.23826 17.9014 6.15536 17.8599 6.07246 17.8184C4.76676 17.1546 4.51805 16.5323 4.51805 16.3041V15.4122C5.01546 15.8063 5.6165 16.1382 6.30044 16.4286V17.9429H6.32116ZM10.4041 18.8348C9.47142 18.7933 8.62168 18.6481 7.85484 18.4615V16.9264C8.64241 17.1131 9.51287 17.2583 10.4041 17.2998V18.8348ZM14.2383 18.5237C13.5336 18.6896 12.7668 18.7933 11.9377 18.8348V17.2998C12.746 17.2583 13.5129 17.1546 14.2383 16.9887V18.5237ZM17.8238 16.3041C17.8238 17.2378 16.4712 17.6967 15.7719 18.0466V16.5323C16.5595 16.2212 17.2642 15.8478 17.8238 15.4122V16.3041ZM11.1709 15.7856C7.79267 15.7856 5.03619 14.4165 5.03619 12.7156C5.03619 12.1762 5.22272 11.7821 5.57505 11.3672C5.76158 13.5453 9.34707 15.267 13.7409 15.267C14.0368 15.267 14.1649 15.267 14.6113 15.2462C13.6372 15.5781 12.4559 15.7856 11.1916 15.7856H11.1709ZM20.373 11.1806C20.373 12.1142 19.0204 12.5731 18.3212 12.923V11.4087C19.1087 11.0976 19.8134 10.7242 20.373 10.2886V11.1806Z" fill="black"/>
</svg>
