<svg width="24" height="24" viewBox="0 0 24 24" fill="none" xmlns="http://www.w3.org/2000/svg">
<path d="M12 1.9502C14.6654 1.9502 17.2217 3.00882 19.1064 4.89356C20.9912 6.7783 22.0498 9.33458 22.0498 12C22.0498 14.6655 20.9912 17.2217 19.1064 19.1065C17.2217 20.9912 14.6654 22.0498 12 22.0498C9.33457 22.0498 6.7783 20.9912 4.89355 19.1065C3.00881 17.2217 1.9502 14.6655 1.9502 12C1.9502 9.33458 3.00881 6.7783 4.89355 4.89356C6.7783 3.00882 9.33457 1.9502 12 1.9502ZM12 3.29981C9.69262 3.29981 7.4802 4.21707 5.84863 5.84863C4.21707 7.4802 3.2998 9.69262 3.2998 12C3.2998 14.3074 4.21707 16.5198 5.84863 18.1514C7.4802 19.783 9.69262 20.7002 12 20.7002C14.3074 20.7002 16.5198 19.783 18.1514 18.1514C19.7829 16.5198 20.7002 14.3074 20.7002 12C20.7002 9.69262 19.7829 7.4802 18.1514 5.84863C16.5198 4.21707 14.3074 3.29981 12 3.29981ZM18.0283 11.3643C18.3245 11.2611 18.6623 11.3731 18.832 11.6534C19.0262 11.9742 18.9204 12.3883 18.6006 12.5821L14.4551 15.0625C14.516 15.2825 14.5498 15.5125 14.5498 15.75C14.5498 17.1566 13.4065 18.2998 12 18.2998C10.5935 18.2998 9.4502 17.1566 9.4502 15.75C9.4502 14.3435 10.5935 13.2002 12 13.2002C12.6825 13.2002 13.3029 13.4687 13.7588 13.9063L17.9043 11.4219L18.0283 11.3643ZM12 14.5498C11.6817 14.5498 11.3764 14.6764 11.1514 14.9014C10.9263 15.1264 10.7998 15.4318 10.7998 15.75C10.7998 16.0683 10.9263 16.3736 11.1514 16.5987C11.3764 16.8237 11.6817 16.9502 12 16.9502C12.3183 16.9502 12.6236 16.8237 12.8486 16.5987C13.0737 16.3736 13.2002 16.0683 13.2002 15.75C13.2002 15.4318 13.0737 15.1264 12.8486 14.9014C12.6236 14.6764 12.3183 14.5498 12 14.5498ZM5.84766 11.0176C6.07369 11.04 6.28622 11.1398 6.44824 11.3018C6.63343 11.487 6.7373 11.7381 6.7373 12C6.7373 12.2619 6.63343 12.5131 6.44824 12.6983C6.26305 12.8835 6.0119 12.9873 5.75 12.9873C5.4881 12.9873 5.23695 12.8835 5.05176 12.6983C4.86657 12.5131 4.7627 12.2619 4.7627 12C4.7627 11.7381 4.86657 11.487 5.05176 11.3018C5.23695 11.1166 5.4881 11.0127 5.75 11.0127L5.84766 11.0176ZM7.625 6.6377C7.8869 6.6377 8.13805 6.74157 8.32324 6.92676C8.50843 7.11195 8.6123 7.3631 8.6123 7.625C8.6123 7.8869 8.50843 8.13805 8.32324 8.32324C8.13805 8.50844 7.8869 8.61231 7.625 8.61231C7.3631 8.61231 7.11195 8.50844 6.92676 8.32324C6.74157 8.13805 6.6377 7.8869 6.6377 7.625C6.6377 7.3631 6.74157 7.11195 6.92676 6.92676C7.11195 6.74157 7.3631 6.6377 7.625 6.6377ZM16.375 6.6377C16.6369 6.6377 16.8881 6.74157 17.0732 6.92676C17.2584 7.11195 17.3623 7.3631 17.3623 7.625C17.3623 7.8869 17.2584 8.13805 17.0732 8.32324C16.8881 8.50844 16.6369 8.61231 16.375 8.61231C16.1131 8.61231 15.8619 8.50844 15.6768 8.32324C15.4916 8.13805 15.3877 7.8869 15.3877 7.625C15.3877 7.3631 15.4916 7.11195 15.6768 6.92676C15.8619 6.74157 16.1131 6.6377 16.375 6.6377ZM12 4.7627C12.2619 4.7627 12.5131 4.86657 12.6982 5.05176C12.8834 5.23695 12.9873 5.4881 12.9873 5.75C12.9873 6.0119 12.8834 6.26305 12.6982 6.44824C12.5131 6.63344 12.2619 6.73731 12 6.73731C11.7381 6.73731 11.487 6.63344 11.3018 6.44824C11.1166 6.26305 11.0127 6.0119 11.0127 5.75L11.0176 5.65235C11.04 5.42631 11.1397 5.21378 11.3018 5.05176C11.487 4.86657 11.7381 4.7627 12 4.7627Z" fill="black" stroke="black" stroke-width="0.1"/>
</svg>
