<svg width="24" height="24" viewBox="0 0 24 24" fill="none" xmlns="http://www.w3.org/2000/svg">
<path fill-rule="evenodd" clip-rule="evenodd" d="M5 4C3.3 4 2 5.3 2 7V8H22V7C22 5.3 20.7 4 19 4H5ZM2 17V10.5H22V12.6L20.2 11.9C19.4 11.6 18.5 11.6 17.7 11.9L14.1 13.4C13.2 13.7 12.7 14.6 12.7 15.5V17.7C12.7 18.5 12.8 19.2 13 20H5C3.3 20 2 18.7 2 17ZM5.2 15.5C4.8 15.5 4.4 15.8 4.4 16.3C4.4 16.8 4.7 17.1 5.2 17.1H9.7C10.1 17.1 10.5 16.8 10.5 16.3C10.5 15.8 10.2 15.5 9.7 15.5H5.2Z" fill="black"/>
<path fill-rule="evenodd" clip-rule="evenodd" d="M23.3 14.6L19.7 13.1C19.2 12.9 18.7 12.9 18.2 13.1L14.6 14.6C14.2 14.8 14 15.1 14 15.5V17.7C14 20.7 16.1 23.2 19 23.8C21.9 23.2 23.9 20.7 23.9 17.7V15.5C23.9 15.1 23.6667 14.7778 23.3 14.6ZM18.8 20.3C18.5556 20.5444 18.2222 20.6222 17.9 20.3L16.7 19.1C16.5 18.9 16.4444 18.4444 16.7 18.2C16.9 18 17.3333 17.9333 17.6 18.2L18.4 19L20.5 16.9C20.7778 16.6222 21.2 16.7 21.4 16.9C21.6 17.1 21.6667 17.5333 21.4 17.8L18.8 20.3Z" fill="black"/>
</svg>
