<svg width="35" height="32" viewBox="0 0 35 32" fill="none" xmlns="http://www.w3.org/2000/svg">
<path fill-rule="evenodd" clip-rule="evenodd" d="M29 24.9999C29 26.6566 27.6568 27.9999 26 27.9999H12C10.3433 27.9998 9.00011 26.6566 9.00003 24.9999V18.4999H29V24.9999ZM12.25 23.4999C11.8359 23.4999 11.5 23.8357 11.5 24.2499C11.5001 24.6639 11.8359 24.9998 12.25 24.9999H16.75C17.1642 24.9999 17.5 24.664 17.5 24.2499C17.5 23.8616 17.2052 23.5423 16.8272 23.5038L16.75 23.4999H12.25Z" fill="black"/>
<path d="M2.15823 12.2215C2.29502 11.9258 2.71291 11.9257 2.84964 12.2215L3.44925 13.5584L4.77835 14.1581C5.0741 14.2948 5.07416 14.7127 4.77835 14.8495L3.44925 15.4491L2.84964 16.7782C2.71281 17.0738 2.28717 17.0739 2.15042 16.7782L1.55081 15.4413L0.221707 14.8417C-0.0739115 14.7049 -0.0738934 14.2871 0.221707 14.1502L1.55862 13.5506L2.15823 12.2215Z" fill="black"/>
<path d="M26 11.9999C27.6569 11.9999 29 13.343 29 14.9999V15.9999H9.00003V14.9999C9.00003 13.3431 10.3432 11.9999 12 11.9999H26Z" fill="black"/>
<path d="M6.31643 0.444191C6.58978 -0.148064 7.42492 -0.148064 7.69827 0.444191L8.89847 3.11704L11.5557 4.31626C12.1479 4.58961 12.1479 5.42475 11.5557 5.6981L8.89847 6.89829L7.69827 9.55552C7.42484 10.1476 6.57514 10.1477 6.30179 9.55552L5.10159 6.88267L2.44436 5.68345C1.85225 5.41009 1.85232 4.57504 2.44436 4.30161L5.11722 3.10142L6.31643 0.444191Z" fill="black"/>
<path d="M31.0215 2.3104C31.2129 1.89616 31.7979 1.89613 31.9893 2.3104L32.8291 4.1815L34.6895 5.02134C35.1037 5.21278 35.1038 5.7977 34.6895 5.98911L32.8291 6.82896L31.9893 8.68931C31.7978 9.1034 31.2022 9.10348 31.0108 8.68931L30.1709 6.81821L28.3106 5.97837C27.8965 5.78693 27.8965 5.20208 28.3106 5.0106L30.1817 4.17075L31.0215 2.3104Z" fill="black"/>
</svg>
