<svg width="24" height="24" viewBox="0 0 24 24" fill="none" xmlns="http://www.w3.org/2000/svg">
<path d="M2.3999 18.135V6.50629C2.3999 5.63629 3.30365 5.05879 4.13615 5.30629C7.4249 6.28879 9.7499 5.51254 12.0899 4.73254C14.5087 3.92629 16.9424 3.11629 20.4637 4.24129C21.1574 4.46254 21.5999 5.13379 21.5999 5.86504V17.4938C21.5999 18.3638 20.6962 18.9413 19.8674 18.6938C16.5787 17.7113 14.2499 18.4875 11.9137 19.2675C9.4949 20.0738 7.06115 20.8838 3.5399 19.7588C2.84615 19.5375 2.40365 18.8663 2.40365 18.135H2.3999ZM14.9999 12C14.9999 10.0125 13.6574 8.40004 11.9999 8.40004C10.3424 8.40004 8.9999 10.0125 8.9999 12C8.9999 13.9875 10.3424 15.6 11.9999 15.6C13.6574 15.6 14.9999 13.9875 14.9999 12ZM6.8999 17.91C7.0649 17.91 7.19615 17.7675 7.1699 17.6063C6.9974 16.5638 6.1574 15.75 5.0999 15.6188C4.9349 15.6 4.7999 15.735 4.7999 15.9V17.3963C4.7999 17.5313 4.8899 17.6513 5.0249 17.685C5.69615 17.8425 6.31115 17.9138 6.8999 17.9138V17.91ZM18.8437 15.9938C19.0312 16.0238 19.1999 15.8813 19.1999 15.6938V14.0963C19.1999 13.9313 19.0649 13.7925 18.8999 13.815C17.9549 13.9313 17.1787 14.5988 16.9049 15.4875C16.8524 15.6638 16.9912 15.8288 17.1749 15.8325C17.7074 15.8475 18.2624 15.8963 18.8399 15.9938H18.8437ZM19.1999 8.10004V6.60379C19.1999 6.46879 19.1062 6.34879 18.9749 6.31504C18.3037 6.15754 17.6887 6.08629 17.0999 6.08629C16.9349 6.08629 16.8037 6.22879 16.8299 6.39004C17.0024 7.43254 17.8424 8.24629 18.8999 8.37754C19.0649 8.39629 19.1999 8.26129 19.1999 8.09629V8.10004ZM7.0949 8.50879C7.1474 8.33254 7.00865 8.16754 6.8249 8.16379C6.2924 8.14879 5.7374 8.10004 5.1599 8.00254C4.9724 7.97254 4.80365 8.11504 4.80365 8.30254L4.7999 9.90004C4.7999 10.065 4.9349 10.2038 5.0999 10.1813C6.0449 10.065 6.82115 9.39754 7.0949 8.50879Z" fill="black"/>
</svg>
