<svg width="24" height="24" viewBox="0 0 24 24" fill="none" xmlns="http://www.w3.org/2000/svg">
<path fill-rule="evenodd" clip-rule="evenodd" d="M12.5 1C18.2988 1 22.9998 5.7001 23 11.498C23 17.2961 18.2989 21.9971 12.5 21.9971C10.7777 21.9971 9.11432 21.5806 7.62402 20.7979L3.11816 21.9707C2.6413 22.0947 2.15448 21.8088 2.03027 21.332C1.99192 21.1847 1.99193 21.0302 2.03027 20.8828L3.20215 16.3809C2.41706 14.8892 2 13.2227 2 11.498C2.00021 5.7001 6.70114 1 12.5 1ZM13.3242 6.4248C11.2009 6.4248 9.40214 7.78439 8.73047 9.6748H7.36621C7.06829 9.6748 6.82422 9.91888 6.82422 10.2168C6.8244 10.5146 7.0684 10.7578 7.36621 10.7578H8.48145C8.45978 10.9366 8.44922 11.1156 8.44922 11.2998C8.44922 11.484 8.45978 11.663 8.48145 11.8418H7.36621C7.0684 11.8418 6.8244 12.085 6.82422 12.3828C6.82422 12.6807 7.06829 12.9248 7.36621 12.9248H8.73047C9.40214 14.8152 11.2009 16.1748 13.3242 16.1748C14.2667 16.1748 15.1441 15.9092 15.8916 15.4434C16.2653 15.2105 16.3355 14.6911 16.0215 14.377C15.794 14.1495 15.4417 14.1216 15.1709 14.2949C14.6347 14.6307 14.0067 14.8203 13.3242 14.8203C11.9646 14.8203 10.7891 14.0515 10.2041 12.9248H12.7822C13.0801 12.9248 13.3242 12.6807 13.3242 12.3828C13.324 12.085 13.08 11.8418 12.7822 11.8418H9.84668C9.8196 11.663 9.80371 11.484 9.80371 11.2998C9.80371 11.1156 9.8196 10.9366 9.84668 10.7578H12.7822C13.08 10.7578 13.324 10.5146 13.3242 10.2168C13.3242 9.91888 13.0801 9.6748 12.7822 9.6748H10.2041C10.7891 8.54814 11.9701 7.7793 13.3242 7.7793C14.0013 7.7793 14.6351 7.97427 15.1768 8.30469C15.4476 8.47249 15.7999 8.44523 16.0273 8.21777C16.3414 7.9036 16.2707 7.38915 15.8916 7.15625C15.1441 6.69583 14.2613 6.4248 13.3242 6.4248Z" fill="black"/>
</svg>
