<svg width="24" height="24" viewBox="0 0 24 24" fill="none" xmlns="http://www.w3.org/2000/svg">
<path d="M12.0332 6.6925C13.4105 6.6925 14.0991 7.21626 14.3513 8.0504C14.4774 8.46747 14.8945 8.72935 15.3309 8.72935H15.3891C16.0681 8.72935 16.5724 8.0407 16.33 7.41025C15.9032 6.29483 14.9624 5.3928 13.4881 5.03393V4.36468C13.4881 3.55964 12.8382 2.90979 12.0332 2.90979C11.2281 2.90979 10.5783 3.55964 10.5783 4.36468V5.00483C10.2 5.08242 9.85085 5.20851 9.51138 5.354L10.976 6.81859C11.2863 6.741 11.6452 6.6925 12.0332 6.6925ZM4.53566 4.48107C4.15739 4.85934 4.15739 5.47039 4.53566 5.84867L7.18355 8.50626C7.18355 10.5237 8.69664 11.6294 10.976 12.2987L14.3804 15.7031C14.0506 16.1784 13.362 16.5857 12.0332 16.5857C10.4328 16.5857 9.60837 16.0135 9.28829 15.1988C9.1428 14.8205 8.81303 14.5489 8.41536 14.5489H8.25047C7.55213 14.5489 7.04776 15.2666 7.32904 15.8971C7.9013 17.1871 9.1622 17.9533 10.588 18.2637V18.9136C10.588 19.7186 11.2378 20.3685 12.0429 20.3685C12.8479 20.3685 13.4978 19.7186 13.4978 18.9136V18.2831C14.4289 18.1085 15.2727 17.7497 15.8838 17.1968L17.3484 18.6614C17.7266 19.0397 18.3377 19.0397 18.716 18.6614C19.0942 18.2831 19.0942 17.6721 18.716 17.2938L5.90325 4.48107C5.52498 4.1028 4.91393 4.1028 4.53566 4.48107Z" fill="black"/>
</svg>
