<svg width="24" height="24" viewBox="0 0 24 24" fill="none" xmlns="http://www.w3.org/2000/svg">
<path d="M6.77675 3.81562C6.9455 3.58687 7.2155 3.44812 7.5005 3.44812H16.5005C16.7855 3.44812 17.0555 3.58312 17.2243 3.81562L21.4243 9.51562C21.6793 9.86062 21.653 10.3369 21.368 10.6556L12.668 20.2556C12.4993 20.4431 12.2555 20.5519 12.0005 20.5519C11.7455 20.5519 11.5055 20.4431 11.333 20.2556L2.633 10.6556C2.34425 10.3369 2.32175 9.86062 2.57675 9.51562L6.77675 3.81562ZM8.2205 5.30812C8.09675 5.40187 8.063 5.57062 8.14175 5.70187L10.2943 9.29062L4.77425 9.74812C4.6205 9.75937 4.5005 9.89062 4.5005 10.0481C4.5005 10.2056 4.6205 10.3331 4.77425 10.3481L11.9743 10.9481C11.9893 10.9481 12.008 10.9481 12.023 10.9481L19.223 10.3481C19.3768 10.3369 19.4968 10.2056 19.4968 10.0481C19.4968 9.89062 19.3768 9.76312 19.223 9.74812L13.703 9.28687L15.8555 5.70187C15.9343 5.57062 15.9005 5.39812 15.7768 5.30812C15.653 5.21812 15.4805 5.23312 15.3755 5.34562L12.0005 9.00562L8.62175 5.34562C8.51675 5.23312 8.34425 5.21812 8.2205 5.30812Z" fill="black"/>
</svg>
