<svg width="24" height="24" viewBox="0 0 24 24" fill="none" xmlns="http://www.w3.org/2000/svg">
<path d="M17.3006 6.30029C16.9106 5.91029 16.2806 5.91029 15.8906 6.30029L10.2506 11.9403L11.6606 13.3503L17.3006 7.70029C17.6806 7.32029 17.6806 6.68029 17.3006 6.30029ZM21.5406 6.29029L11.6606 16.1703L8.18063 12.7003C7.79063 12.3103 7.16062 12.3103 6.77063 12.7003C6.38063 13.0903 6.38063 13.7203 6.77063 14.1103L10.9506 18.2903C11.3406 18.6803 11.9706 18.6803 12.3606 18.2903L22.9506 7.71029C23.3406 7.32029 23.3406 6.69029 22.9506 6.30029H22.9406C22.5606 5.90029 21.9306 5.90029 21.5406 6.29029ZM1.12062 14.1203L5.30063 18.3003C5.69063 18.6903 6.32063 18.6903 6.71063 18.3003L7.41062 17.6003L2.53062 12.7003C2.14062 12.3103 1.51063 12.3103 1.12062 12.7003C0.730625 13.0903 0.730625 13.7303 1.12062 14.1203Z" fill="black"/>
</svg>
