<svg width="24" height="24" viewBox="0 0 24 24" fill="none" xmlns="http://www.w3.org/2000/svg">
<path d="M6.66667 6.66663C6.66667 5.68608 7.46389 4.88885 8.44444 4.88885H15.5556C16.5361 4.88885 17.3333 5.68608 17.3333 6.66663V17.3333H19.1111C19.6028 17.3333 20 17.7305 20 18.2222C20 18.7139 19.6028 19.1111 19.1111 19.1111H16H8H4.88889C4.39722 19.1111 4 18.7139 4 18.2222C4 17.7305 4.39722 17.3333 4.88889 17.3333H6.66667V6.66663ZM14.6667 12.8889C14.9024 12.8889 15.1285 12.7952 15.2952 12.6285C15.4619 12.4618 15.5556 12.2357 15.5556 12C15.5556 11.7642 15.4619 11.5381 15.2952 11.3714C15.1285 11.2047 14.9024 11.1111 14.6667 11.1111C14.4309 11.1111 14.2048 11.2047 14.0381 11.3714C13.8714 11.5381 13.7778 11.7642 13.7778 12C13.7778 12.2357 13.8714 12.4618 14.0381 12.6285C14.2048 12.7952 14.4309 12.8889 14.6667 12.8889Z" fill="black"/>
</svg>
