<svg width="24" height="24" viewBox="0 0 24 24" fill="none" xmlns="http://www.w3.org/2000/svg">
<path d="M18.9374 4.60844L19.3911 5.06219C19.7437 5.41469 19.7437 5.98469 19.3911 6.33344L18.2999 7.42844L16.5712 5.69969L17.6624 4.60844C18.0149 4.25594 18.5849 4.25594 18.9337 4.60844H18.9374ZM10.2674 12.0072L15.2999 6.97094L17.0287 8.69969L11.9924 13.7322C11.8837 13.8409 11.7487 13.9197 11.6024 13.9609L9.40865 14.5872L10.0349 12.3934C10.0762 12.2472 10.1549 12.1122 10.2637 12.0034L10.2674 12.0072ZM16.3912 3.33719L8.9924 10.7322C8.66615 11.0584 8.4299 11.4597 8.30615 11.8984L7.23365 15.6484C7.14365 15.9634 7.2299 16.3009 7.4624 16.5334C7.6949 16.7659 8.0324 16.8522 8.3474 16.7622L12.0974 15.6897C12.5399 15.5622 12.9412 15.3259 13.2637 15.0034L20.6624 7.60844C21.7162 6.55469 21.7162 4.84469 20.6624 3.79094L20.2087 3.33719C19.1549 2.28344 17.4449 2.28344 16.3912 3.33719ZM5.6999 4.79969C3.8774 4.79969 2.3999 6.27719 2.3999 8.09969V18.2997C2.3999 20.1222 3.8774 21.5997 5.6999 21.5997H15.8999C17.7224 21.5997 19.1999 20.1222 19.1999 18.2997V14.0997C19.1999 13.6009 18.7987 13.1997 18.2999 13.1997C17.8012 13.1997 17.3999 13.6009 17.3999 14.0997V18.2997C17.3999 19.1284 16.7287 19.7997 15.8999 19.7997H5.6999C4.87115 19.7997 4.1999 19.1284 4.1999 18.2997V8.09969C4.1999 7.27094 4.87115 6.59969 5.6999 6.59969H9.8999C10.3987 6.59969 10.7999 6.19844 10.7999 5.69969C10.7999 5.20094 10.3987 4.79969 9.8999 4.79969H5.6999Z" fill="black"/>
</svg>
