<svg width="24" height="24" viewBox="0 0 24 24" fill="none" xmlns="http://www.w3.org/2000/svg">
<path d="M20.0849 3.21378C19.2636 2.39253 17.9362 2.39253 17.1149 3.21378L16.1999 4.12878L19.8712 7.80003L20.7861 6.88503C21.6074 6.06378 21.6074 4.73628 20.7861 3.91503L20.0849 3.21378ZM8.8649 11.4638C8.63615 11.6925 8.4599 11.9738 8.35865 12.285L7.24865 15.615C7.1399 15.9375 7.22615 16.2938 7.46615 16.5375C7.70615 16.7813 8.0624 16.8638 8.38865 16.755L11.7187 15.645C12.0262 15.5438 12.3074 15.3675 12.5399 15.1388L18.5999 9.07128L14.9287 5.40003L8.8649 11.4638ZM5.9999 4.80003C4.0124 4.80003 2.3999 6.41253 2.3999 8.40003V18C2.3999 19.9875 4.0124 21.6 5.9999 21.6H15.5999C17.5874 21.6 19.1999 19.9875 19.1999 18V14.4C19.1999 13.7363 18.6637 13.2 17.9999 13.2C17.3362 13.2 16.7999 13.7363 16.7999 14.4V18C16.7999 18.6638 16.2637 19.2 15.5999 19.2H5.9999C5.33615 19.2 4.7999 18.6638 4.7999 18V8.40003C4.7999 7.73628 5.33615 7.20003 5.9999 7.20003H9.5999C10.2637 7.20003 10.7999 6.66378 10.7999 6.00003C10.7999 5.33628 10.2637 4.80003 9.5999 4.80003H5.9999Z" fill="black"/>
</svg>
