<svg width="24" height="24" viewBox="0 0 24 24" fill="none" xmlns="http://www.w3.org/2000/svg">
<path d="M10.7324 3.07086C11.4374 2.36961 12.5736 2.36961 13.2786 3.07086L15.0074 4.79961H17.4074C18.4011 4.79961 19.2074 5.60586 19.2074 6.59961V8.99961L20.9174 10.7096C21.6186 11.4109 21.6186 12.5509 20.9174 13.2559L19.2074 14.9659V17.3996C19.2074 18.3934 18.4011 19.1996 17.4074 19.1996H14.9736L13.2824 20.8909C12.5811 21.5921 11.4411 21.5921 10.7361 20.8909L9.04488 19.1996H6.61113C5.61738 19.1996 4.81113 18.3934 4.81113 17.3996V14.9659L3.10113 13.2559C2.39988 12.5546 2.39988 11.4146 3.10113 10.7096L4.81113 8.99961V6.59961C4.81113 5.60586 5.61738 4.79961 6.61113 4.79961H9.01113L10.7399 3.07086H10.7324ZM12.0036 14.3996C11.3399 14.3996 10.8036 14.9359 10.8036 15.5996C10.8036 16.2634 11.3399 16.7996 12.0036 16.7996C12.6674 16.7996 13.2036 16.2634 13.2036 15.5996C13.2036 14.9359 12.6674 14.3996 12.0036 14.3996ZM12.0036 7.19961C11.3211 7.19961 10.7774 7.78086 10.8261 8.46336L11.1036 12.3634C11.1374 12.8321 11.5311 13.1996 11.9999 13.1996C12.4724 13.1996 12.8624 12.8359 12.8961 12.3634L13.1736 8.46336C13.2224 7.78086 12.6824 7.19961 11.9961 7.19961H12.0036Z" fill="black"/>
</svg>
