<svg width="24" height="24" viewBox="0 0 24 24" fill="none" xmlns="http://www.w3.org/2000/svg">
<path d="M10.7324 3.07086C11.4374 2.36961 12.5774 2.36961 13.2786 3.07086L15.0074 4.79961H17.4074C18.4011 4.79961 19.2074 5.60586 19.2074 6.59961V8.99961L20.9174 10.7096C21.6186 11.4109 21.6186 12.5509 20.9174 13.2559L19.2074 14.9659V17.3996C19.2074 18.3934 18.4011 19.1996 17.4074 19.1996H14.9736L13.2824 20.8909C12.5811 21.5921 11.4411 21.5921 10.7361 20.8909L9.04488 19.1996H6.61113C5.61738 19.1996 4.81113 18.3934 4.81113 17.3996V14.9659L3.10113 13.2559C2.39988 12.5546 2.39988 11.4146 3.10113 10.7096L4.81113 8.99961V6.59961C4.81113 5.60586 5.61738 4.79961 6.61113 4.79961H9.01113L10.7399 3.07086H10.7324ZM10.2786 6.07086C9.94113 6.40836 9.48363 6.59961 9.00738 6.59961H6.60738V8.99961C6.60738 9.47586 6.41613 9.93336 6.07863 10.2709L4.36863 11.9809L6.07863 13.6909C6.41613 14.0284 6.60738 14.4859 6.60738 14.9621V17.3959H9.04113L9.21738 17.4034C9.62988 17.4446 10.0161 17.6284 10.3124 17.9209L12.0036 19.6121L13.6949 17.9209C14.0324 17.5834 14.4899 17.3921 14.9699 17.3921H17.4036V14.9584C17.4036 14.4821 17.5949 14.0209 17.9324 13.6834L19.6424 11.9734L17.9324 10.2634C17.5949 9.92586 17.4036 9.46836 17.4036 8.99211V6.59211H15.0036C14.5274 6.59211 14.0699 6.40086 13.7324 6.06336L12.0036 4.33461L10.2749 6.06336L10.2786 6.07086ZM12.0074 16.4996C11.3436 16.4996 10.8074 15.9634 10.8074 15.2996C10.8074 14.6359 11.3436 14.0996 12.0074 14.0996C12.6711 14.0996 13.2074 14.6359 13.2074 15.2996C13.2074 15.9634 12.6711 16.4996 12.0074 16.4996ZM12.0074 7.49961C12.6936 7.49961 13.2374 8.08836 13.1811 8.77461L12.9074 12.0746C12.8699 12.5396 12.4799 12.8996 12.0111 12.8996C11.5424 12.8996 11.1524 12.5396 11.1149 12.0746L10.8411 8.77461C10.7849 8.08836 11.3249 7.49961 12.0149 7.49961H12.0074Z" fill="black"/>
</svg>
