<svg width="24" height="24" viewBox="0 0 24 24" fill="none" xmlns="http://www.w3.org/2000/svg">
<path fill-rule="evenodd" clip-rule="evenodd" d="M11.9356 7.39844C12.2518 7.39844 12.5651 7.4311 12.8633 7.49219C12.8739 7.49567 12.8811 7.49555 12.8916 7.49902C14.9723 7.93744 16.536 9.78806 16.5362 11.998C16.5362 14.5388 14.4764 16.5986 11.9356 16.5986C9.72203 16.5984 7.87497 15.0347 7.43656 12.9541C7.37191 12.6451 7.33598 12.325 7.33598 11.998C7.33601 11.603 7.38616 11.215 7.47953 10.8486C7.48672 10.8235 7.4909 10.8018 7.49809 10.7803C7.92573 9.22064 9.15429 7.99117 10.7139 7.56348L10.7178 7.56055C11.1058 7.45277 11.5153 7.39847 11.9356 7.39844ZM12.003 9.20312C10.4567 9.20325 9.20327 10.4567 9.20316 12.0029C9.20316 13.5492 10.4567 14.8026 12.003 14.8027C13.5494 14.8027 14.8028 13.5493 14.8028 12.0029C14.8027 10.4566 13.5493 9.20312 12.003 9.20312Z" fill="black"/>
<path fill-rule="evenodd" clip-rule="evenodd" d="M11.9356 3.59375C14.9656 3.59375 17.392 4.97371 19.1582 6.61621C20.9131 8.24734 22.0867 10.1935 22.6455 11.5322C22.7693 11.8285 22.7693 12.1588 22.6455 12.4551C22.0868 13.7938 20.9131 15.7437 19.1582 17.3711C17.392 19.0098 14.9656 20.3936 11.9356 20.3936C8.90564 20.3935 6.47916 19.0136 4.71293 17.3711C2.95807 15.7399 1.78436 13.7938 1.22562 12.4551C1.10188 12.1588 1.10188 11.8285 1.22562 11.5322C1.7844 10.1935 2.95809 8.2436 4.71293 6.61621C6.47916 4.97373 8.90564 3.59379 11.9356 3.59375ZM11.9356 5.39355C9.49064 5.39359 7.48072 6.50389 5.93949 7.93262C4.49576 9.27511 3.49832 10.8692 2.98832 11.9941C3.49836 13.1191 4.49597 14.7124 5.93949 16.0547C7.48072 17.4834 9.49064 18.5937 11.9356 18.5938C14.3806 18.5938 16.3904 17.4834 17.9317 16.0547C19.3752 14.7124 20.3728 13.1191 20.8829 11.9941C20.3729 10.8691 19.3754 9.27512 17.9317 7.93262C16.3904 6.50391 14.3805 5.39355 11.9356 5.39355Z" fill="black"/>
</svg>
