<svg width="24" height="24" viewBox="0 0 24 24" fill="none" xmlns="http://www.w3.org/2000/svg">
<path d="M2.73749 1.46622C2.38499 1.11372 1.81499 1.11372 1.46624 1.46622C1.11749 1.81872 1.11374 2.38872 1.46249 2.74122L21.2625 22.5412C21.615 22.8937 22.185 22.8937 22.5337 22.5412C22.8825 22.1887 22.8862 21.6187 22.5337 21.27L18.9187 17.655C19.02 17.565 19.1212 17.475 19.2187 17.385C20.9737 15.7537 22.1475 13.8075 22.7062 12.4687C22.83 12.1725 22.83 11.8425 22.7062 11.5462C22.1475 10.2075 20.9737 8.25747 19.2187 6.62997C17.4525 4.99122 15.0262 3.60747 11.9962 3.60747C9.86624 3.60747 8.03624 4.28997 6.52124 5.26497L2.73749 1.46622ZM8.86874 7.60122C9.74999 6.97122 10.8337 6.59997 12 6.59997C14.9812 6.59997 17.4 9.01872 17.4 12C17.4 13.1662 17.0287 14.2462 16.3987 15.1312L15.0975 13.83C15.5737 13.0275 15.735 12.0412 15.4762 11.0662C14.9625 9.14622 12.9862 8.00622 11.0662 8.51997C10.7437 8.60622 10.44 8.73372 10.1662 8.89497L8.86499 7.59372L8.86874 7.60122ZM13.3987 17.2162C12.9525 17.3362 12.4837 17.4 12 17.4C9.01874 17.4 6.59999 14.9812 6.59999 12C6.59999 11.5162 6.66374 11.0475 6.78374 10.6012L3.80249 7.61997C2.57999 8.99997 1.73999 10.4625 1.29374 11.5387C1.16999 11.835 1.16999 12.165 1.29374 12.4612C1.85249 13.8 3.02624 15.75 4.78124 17.3775C6.54749 19.0162 8.97374 20.4 12.0037 20.4C13.4025 20.4 14.6737 20.1037 15.81 19.6275L13.4025 17.22L13.3987 17.2162Z" fill="black"/>
</svg>
