<svg width="24" height="24" viewBox="0 0 24 24" fill="none" xmlns="http://www.w3.org/2000/svg">
<path d="M12.0001 3.6001C8.97008 3.6001 6.54383 4.9801 4.77758 6.6226C3.02258 8.25385 1.84883 10.2001 1.29008 11.5388C1.16633 11.8351 1.16633 12.1651 1.29008 12.4613C1.84883 13.8001 3.02258 15.7501 4.77758 17.3776C6.54383 19.0163 8.97008 20.4001 12.0001 20.4001C15.0301 20.4001 17.4563 19.0201 19.2226 17.3776C20.9776 15.7463 22.1513 13.8001 22.7101 12.4613C22.8338 12.1651 22.8338 11.8351 22.7101 11.5388C22.1513 10.2001 20.9776 8.2501 19.2226 6.6226C17.4563 4.98385 15.0301 3.6001 12.0001 3.6001ZM6.60008 12.0001C6.60008 9.01885 9.01883 6.6001 12.0001 6.6001C14.9813 6.6001 17.4001 9.01885 17.4001 12.0001C17.4001 14.9813 14.9813 17.4001 12.0001 17.4001C9.01883 17.4001 6.60008 14.9813 6.60008 12.0001ZM12.0001 9.6001C12.0001 10.9238 10.9238 12.0001 9.60008 12.0001C9.16883 12.0001 8.76383 11.8876 8.41133 11.6851C8.37383 12.0938 8.40758 12.5138 8.52008 12.9301C9.03383 14.8501 11.0101 15.9901 12.9301 15.4763C14.8501 14.9626 15.9901 12.9863 15.4763 11.0663C15.0188 9.3526 13.3951 8.26135 11.6851 8.41135C11.8838 8.7601 12.0001 9.1651 12.0001 9.6001Z" fill="black"/>
</svg>
