<svg width="24" height="24" viewBox="0 0 24 24" fill="none" xmlns="http://www.w3.org/2000/svg">
<path d="M19.7999 12C19.7999 16.3088 16.3087 19.8 11.9999 19.8C7.69115 19.8 4.1999 16.3088 4.1999 12C4.1999 7.69127 7.69115 4.20002 11.9999 4.20002C16.3087 4.20002 19.7999 7.69127 19.7999 12ZM11.9999 2.40002C6.6974 2.40002 2.3999 6.69753 2.3999 12C2.3999 17.3025 6.6974 21.6 11.9999 21.6C17.3024 21.6 21.5999 17.3025 21.5999 12C21.5999 6.69753 17.3024 2.40002 11.9999 2.40002ZM8.9999 11.4C9.66365 11.4 10.1999 10.8638 10.1999 10.2C10.1999 9.53627 9.66365 9.00002 8.9999 9.00002C8.33615 9.00002 7.7999 9.53627 7.7999 10.2C7.7999 10.8638 8.33615 11.4 8.9999 11.4ZM16.1999 10.2C16.1999 9.53627 15.6637 9.00002 14.9999 9.00002C14.3362 9.00002 13.7999 9.53627 13.7999 10.2C13.7999 10.8638 14.3362 11.4 14.9999 11.4C15.6637 11.4 16.1999 10.8638 16.1999 10.2ZM9.2999 14.4C8.80115 14.4 8.3999 14.8013 8.3999 15.3C8.3999 15.7988 8.80115 16.2 9.2999 16.2H14.6999C15.1987 16.2 15.5999 15.7988 15.5999 15.3C15.5999 14.8013 15.1987 14.4 14.6999 14.4H9.2999Z" fill="black"/>
</svg>
