<svg width="24" height="24" viewBox="0 0 24 24" fill="none" xmlns="http://www.w3.org/2000/svg">
<path d="M19.7999 12C19.7999 7.69127 16.3087 4.20002 11.9999 4.20002C7.69115 4.20002 4.1999 7.69127 4.1999 12C4.1999 16.3088 7.69115 19.8 11.9999 19.8C16.3087 19.8 19.7999 16.3088 19.7999 12ZM2.3999 12C2.3999 6.69753 6.6974 2.40002 11.9999 2.40002C17.3024 2.40002 21.5999 6.69753 21.5999 12C21.5999 17.3025 17.3024 21.6 11.9999 21.6C6.6974 21.6 2.3999 17.3025 2.3999 12ZM9.80615 16.725C9.5174 17.13 8.9549 17.22 8.5499 16.9313C8.1449 16.6425 8.0549 16.08 8.34365 15.675C9.1574 14.5425 10.4924 13.8 11.9999 13.8C13.5074 13.8 14.8387 14.5425 15.6562 15.675C15.9449 16.08 15.8549 16.6425 15.4499 16.9313C15.0449 17.22 14.4824 17.13 14.1937 16.725C13.7024 16.0425 12.9037 15.6 11.9999 15.6C11.0962 15.6 10.2974 16.0425 9.80615 16.725ZM7.7999 10.2C7.7999 9.53627 8.33615 9.00002 8.9999 9.00002C9.66365 9.00002 10.1999 9.53627 10.1999 10.2C10.1999 10.8638 9.66365 11.4 8.9999 11.4C8.33615 11.4 7.7999 10.8638 7.7999 10.2ZM14.9999 9.00002C15.6637 9.00002 16.1999 9.53627 16.1999 10.2C16.1999 10.8638 15.6637 11.4 14.9999 11.4C14.3362 11.4 13.7999 10.8638 13.7999 10.2C13.7999 9.53627 14.3362 9.00002 14.9999 9.00002Z" fill="black"/>
</svg>
