<svg width="24" height="24" viewBox="0 0 24 24" fill="none" xmlns="http://www.w3.org/2000/svg">
<path fill-rule="evenodd" clip-rule="evenodd" d="M12 2C6.47715 2 2 6.47715 2 12C2 17.5228 6.47715 22 12 22C17.5228 22 22 17.5228 22 12C22 6.47715 17.5228 2 12 2ZM10 9.5C10 10.3284 9.32843 11 8.5 11C7.67157 11 7 10.3284 7 9.5C7 8.67157 7.67157 8 8.5 8C9.32843 8 10 8.67157 10 9.5ZM17 9.5C17 10.3284 16.3284 11 15.5 11C14.6716 11 14 10.3284 14 9.5C14 8.67157 14.6716 8 15.5 8C16.3284 8 17 8.67157 17 9.5ZM16.4099 13.8892C16.0599 13.6692 15.5899 13.7792 15.3799 14.1292C14.6399 15.2992 13.3799 15.9992 11.9999 15.9992C10.6199 15.9992 9.35991 15.2992 8.61991 14.1192C8.39991 13.7692 7.93991 13.6592 7.58991 13.8792C7.23991 14.0992 7.12991 14.5592 7.34991 14.9092C8.36991 16.5392 10.0999 17.4992 11.9999 17.4992C13.8999 17.4992 15.6299 16.5292 16.6499 14.9192C16.8699 14.5692 16.7599 14.1092 16.4099 13.8892Z" fill="black"/>
</svg>
