<svg width="24" height="24" viewBox="0 0 24 24" fill="none" xmlns="http://www.w3.org/2000/svg">
<path fill-rule="evenodd" clip-rule="evenodd" d="M12 2C6.47715 2 2 6.47715 2 12C2 17.5228 6.47715 22 12 22C17.5228 22 22 17.5228 22 12C22 6.47715 17.5228 2 12 2ZM10 9.5C10 10.3284 9.32843 11 8.5 11C7.67157 11 7 10.3284 7 9.5C7 8.67157 7.67157 8 8.5 8C9.32843 8 10 8.67157 10 9.5ZM17 9.5C17 10.3284 16.3284 11 15.5 11C14.6716 11 14 10.3284 14 9.5C14 8.67157 14.6716 8 15.5 8C16.3284 8 17 8.67157 17 9.5ZM7.5899 17.3757C7.9399 17.5957 8.4099 17.4857 8.6199 17.1357C9.3599 15.9657 10.6199 15.2657 11.9999 15.2657C13.3799 15.2657 14.6399 15.9657 15.3799 17.1457C15.5999 17.4957 16.0599 17.6057 16.4099 17.3857C16.7599 17.1657 16.8699 16.7057 16.6499 16.3557C15.6299 14.7257 13.8999 13.7657 11.9999 13.7657C10.0999 13.7657 8.3699 14.7357 7.34991 16.3457C7.12991 16.6957 7.2399 17.1557 7.5899 17.3757Z" fill="black"/>
</svg>
