<svg width="24" height="24" viewBox="0 0 24 24" fill="none" xmlns="http://www.w3.org/2000/svg">
<path d="M19.7999 12C19.7999 7.69127 16.3087 4.20002 11.9999 4.20002C7.69115 4.20002 4.1999 7.69127 4.1999 12C4.1999 16.3088 7.69115 19.8 11.9999 19.8C16.3087 19.8 19.7999 16.3088 19.7999 12ZM2.3999 12C2.3999 6.69753 6.6974 2.40002 11.9999 2.40002C17.3024 2.40002 21.5999 6.69753 21.5999 12C21.5999 17.3025 17.3024 21.6 11.9999 21.6C6.6974 21.6 2.3999 17.3025 2.3999 12ZM9.04865 14.3775C9.61115 14.9625 10.5899 15.6 11.9999 15.6C13.4099 15.6 14.3887 14.9625 14.9512 14.3775C15.2962 14.0175 15.8662 14.0063 16.2224 14.3513C16.5787 14.6963 16.5937 15.2663 16.2487 15.6225C15.4199 16.485 13.9987 17.4 11.9999 17.4C10.0012 17.4 8.5799 16.485 7.75115 15.6225C7.40615 15.2625 7.4174 14.6925 7.7774 14.3513C8.1374 14.01 8.7074 14.0175 9.04865 14.3775ZM7.7999 10.2C7.7999 9.53627 8.33615 9.00002 8.9999 9.00002C9.66365 9.00002 10.1999 9.53627 10.1999 10.2C10.1999 10.8638 9.66365 11.4 8.9999 11.4C8.33615 11.4 7.7999 10.8638 7.7999 10.2ZM14.9999 9.00002C15.6637 9.00002 16.1999 9.53627 16.1999 10.2C16.1999 10.8638 15.6637 11.4 14.9999 11.4C14.3362 11.4 13.7999 10.8638 13.7999 10.2C13.7999 9.53627 14.3362 9.00002 14.9999 9.00002Z" fill="black"/>
</svg>
