<svg width="24" height="24" viewBox="0 0 24 24" fill="none" xmlns="http://www.w3.org/2000/svg">
<path d="M3.2999 5.1C2.80115 5.1 2.3999 5.50125 2.3999 6C2.3999 6.49875 2.80115 6.9 3.2999 6.9H6.73865C7.12115 8.11875 8.2574 9 9.5999 9C10.9424 9 12.0787 8.11875 12.4612 6.9H20.6999C21.1987 6.9 21.5999 6.49875 21.5999 6C21.5999 5.50125 21.1987 5.1 20.6999 5.1H12.4612C12.0787 3.88125 10.9424 3 9.5999 3C8.2574 3 7.12115 3.88125 6.73865 5.1H3.2999ZM3.2999 11.1C2.80115 11.1 2.3999 11.5013 2.3999 12C2.3999 12.4988 2.80115 12.9 3.2999 12.9H12.7387C13.1212 14.1188 14.2574 15 15.5999 15C16.9424 15 18.0787 14.1188 18.4612 12.9H20.6999C21.1987 12.9 21.5999 12.4988 21.5999 12C21.5999 11.5013 21.1987 11.1 20.6999 11.1H18.4612C18.0787 9.88125 16.9424 9 15.5999 9C14.2574 9 13.1212 9.88125 12.7387 11.1H3.2999ZM3.2999 17.1C2.80115 17.1 2.3999 17.5013 2.3999 18C2.3999 18.4988 2.80115 18.9 3.2999 18.9H5.53865C5.92115 20.1188 7.0574 21 8.3999 21C9.7424 21 10.8787 20.1188 11.2612 18.9H20.6999C21.1987 18.9 21.5999 18.4988 21.5999 18C21.5999 17.5013 21.1987 17.1 20.6999 17.1H11.2612C10.8787 15.8813 9.7424 15 8.3999 15C7.0574 15 5.92115 15.8813 5.53865 17.1H3.2999ZM8.3999 19.2C7.73615 19.2 7.1999 18.6638 7.1999 18C7.1999 17.3363 7.73615 16.8 8.3999 16.8C9.06365 16.8 9.5999 17.3363 9.5999 18C9.5999 18.6638 9.06365 19.2 8.3999 19.2ZM15.5999 13.2C14.9362 13.2 14.3999 12.6638 14.3999 12C14.3999 11.3363 14.9362 10.8 15.5999 10.8C16.2637 10.8 16.7999 11.3363 16.7999 12C16.7999 12.6638 16.2637 13.2 15.5999 13.2ZM8.3999 6C8.3999 5.33625 8.93615 4.8 9.5999 4.8C10.2637 4.8 10.7999 5.33625 10.7999 6C10.7999 6.66375 10.2637 7.2 9.5999 7.2C8.93615 7.2 8.3999 6.66375 8.3999 6Z" fill="black"/>
</svg>
