<svg width="24" height="24" viewBox="0 0 24 24" fill="none" xmlns="http://www.w3.org/2000/svg">
<path d="M3.5999 4.8C2.93615 4.8 2.3999 5.33625 2.3999 6C2.3999 6.66375 2.93615 7.2 3.5999 7.2H6.85115C7.3124 8.26125 8.3699 9 9.5999 9C10.8299 9 11.8874 8.26125 12.3487 7.2H20.3999C21.0637 7.2 21.5999 6.66375 21.5999 6C21.5999 5.33625 21.0637 4.8 20.3999 4.8H12.3487C11.8874 3.73875 10.8299 3 9.5999 3C8.3699 3 7.3124 3.73875 6.85115 4.8H3.5999ZM3.5999 10.8C2.93615 10.8 2.3999 11.3363 2.3999 12C2.3999 12.6638 2.93615 13.2 3.5999 13.2H12.8512C13.3124 14.2613 14.3699 15 15.5999 15C16.8299 15 17.8874 14.2613 18.3487 13.2H20.3999C21.0637 13.2 21.5999 12.6638 21.5999 12C21.5999 11.3363 21.0637 10.8 20.3999 10.8H18.3487C17.8874 9.73875 16.8299 9 15.5999 9C14.3699 9 13.3124 9.73875 12.8512 10.8H3.5999ZM3.5999 16.8C2.93615 16.8 2.3999 17.3363 2.3999 18C2.3999 18.6638 2.93615 19.2 3.5999 19.2H5.65115C6.1124 20.2613 7.1699 21 8.3999 21C9.6299 21 10.6874 20.2613 11.1487 19.2H20.3999C21.0637 19.2 21.5999 18.6638 21.5999 18C21.5999 17.3363 21.0637 16.8 20.3999 16.8H11.1487C10.6874 15.7388 9.6299 15 8.3999 15C7.1699 15 6.1124 15.7388 5.65115 16.8H3.5999Z" fill="black"/>
</svg>
