<svg width="24" height="24" viewBox="0 0 24 24" fill="none" xmlns="http://www.w3.org/2000/svg">
<path d="M9.68929 3.1903C9.96786 2.93366 10.4 2.93718 10.6786 3.19382C11.6643 4.10437 12.5893 5.08523 13.4536 6.14695C13.8464 5.6407 14.2929 5.08874 14.775 4.63874C15.0571 4.37859 15.4929 4.37859 15.775 4.64226C17.0107 5.80241 18.0571 7.33523 18.7929 8.7907C19.5179 10.2251 20 11.6911 20 12.7247C20 17.2106 16.4357 21.0005 12 21.0005C7.51429 21.0005 4 17.2071 4 12.7212C4 11.3712 4.63571 9.72234 5.62143 8.09109C6.61786 6.43523 8.025 4.70905 9.68929 3.1903ZM12.0607 17.6255C12.9643 17.6255 13.7643 17.3794 14.5179 16.8872C16.0214 15.8536 16.425 13.7864 15.5214 12.1622C15.3607 11.8458 14.95 11.8247 14.7179 12.0919L13.8179 13.1219C13.5821 13.3891 13.1571 13.3821 12.9357 13.1044C12.3464 12.3661 11.2929 11.0477 10.6929 10.2989C10.4679 10.0176 10.0393 10.0141 9.81071 10.2954C8.60357 11.7895 7.99643 12.7317 7.99643 13.7899C8 16.1981 9.80714 17.6255 12.0607 17.6255Z" fill="black"/>
</svg>
