<svg width="24" height="24" viewBox="0 0 24 24" fill="none" xmlns="http://www.w3.org/2000/svg">
<path d="M21.2902 4.11997L16.7002 8.70997L18.2902 10.3C18.9202 10.93 18.4702 12.01 17.5802 12.01H13.0002C12.4502 12.01 12.0002 11.56 12.0002 11.01V6.40997C12.0002 5.51997 13.0802 5.06997 13.7102 5.69997L15.3002 7.28997L19.8902 2.69997C20.2802 2.30997 20.9102 2.30997 21.3002 2.69997C21.6802 3.09997 21.6802 3.72997 21.2902 4.11997ZM4.12021 21.29L8.71021 16.7L10.3002 18.29C10.9302 18.92 12.0102 18.47 12.0102 17.58V13C12.0102 12.45 11.5602 12 11.0102 12H6.41021C5.52021 12 5.07021 13.08 5.70021 13.71L7.29021 15.3L2.70021 19.89C2.31021 20.28 2.31021 20.91 2.70021 21.3C3.10021 21.68 3.73021 21.68 4.12021 21.29Z" fill="black"/>
</svg>
