<svg width="24" height="24" viewBox="0 0 24 24" fill="none" xmlns="http://www.w3.org/2000/svg">
<path d="M19.8179 10.6664H12.1447V13.8202H16.5282C16.3392 14.8396 15.7657 15.7019 14.9014 16.2796C14.1708 16.768 13.2384 17.0569 12.1426 17.0569C10.0209 17.0569 8.22632 15.6233 7.58494 13.697C7.42353 13.2086 7.33009 12.6861 7.33009 12.1488C7.33009 11.6115 7.42353 11.089 7.58494 10.6006C8.22844 8.67644 10.023 7.24289 12.1447 7.24289C13.3404 7.24289 14.4129 7.6549 15.2582 8.46194L17.5943 6.12366C16.182 4.80691 14.3407 3.99988 12.1447 3.99988C8.96115 3.99988 6.20661 5.82633 4.8665 8.48955C4.31432 9.58966 4 10.8342 4 12.1509C4 13.4677 4.31432 14.7101 4.8665 15.8102C6.20661 18.4734 8.96115 20.2999 12.1447 20.2999C14.3449 20.2999 16.1884 19.5693 17.5348 18.3248C19.0746 16.9061 19.9644 14.8163 19.9644 12.3336C19.9644 11.7559 19.9135 11.2016 19.8179 10.6664Z" fill="black"/>
</svg>
