<svg width="24" height="24" viewBox="0 0 24 24" fill="none" xmlns="http://www.w3.org/2000/svg">
<path fill-rule="evenodd" clip-rule="evenodd" d="M19.824 12.1852C19.824 11.6073 19.7721 11.0516 19.6758 10.5182H12V13.6708H16.3862C16.1972 14.6895 15.623 15.5527 14.7599 16.1306V18.1755H17.3938C18.9349 16.7566 19.824 14.6673 19.824 12.1852Z" fill="#4285F4"/>
<path fill-rule="evenodd" clip-rule="evenodd" d="M12.0009 20.1501C14.2014 20.1501 16.0463 19.4203 17.3947 18.1756L14.7608 16.1307C14.031 16.6197 13.0975 16.9086 12.0009 16.9086C9.87821 16.9086 8.0815 15.4749 7.44061 13.5486H4.71777V15.6602C6.05882 18.3237 8.815 20.1501 12.0009 20.1501Z" fill="#34A853"/>
<path fill-rule="evenodd" clip-rule="evenodd" d="M7.4398 13.5483C7.2768 13.0593 7.18419 12.537 7.18419 11.9998C7.18419 11.4627 7.2768 10.9403 7.4398 10.4513V8.33972H4.71696C4.16498 9.43997 3.8501 10.6847 3.8501 11.9998C3.8501 13.3149 4.16498 14.5597 4.71696 15.6599L7.4398 13.5483Z" fill="#FBBC05"/>
<path fill-rule="evenodd" clip-rule="evenodd" d="M12.0009 7.09133C13.1975 7.09133 14.2718 7.50254 15.1164 8.31013L17.454 5.97256C16.0426 4.65744 14.1977 3.84985 12.0009 3.84985C8.815 3.84985 6.05882 5.67619 4.71777 8.33976L7.44061 10.4514C8.0815 8.52499 9.87821 7.09133 12.0009 7.09133Z" fill="#EA4335"/>
</svg>
