<svg width="24" height="24" viewBox="0 0 24 24" fill="none" xmlns="http://www.w3.org/2000/svg">
<path d="M12 8.00018C9.79 8.00018 8 9.79018 8 12.0002C8 14.2102 9.79 16.0002 12 16.0002C14.21 16.0002 16 14.2102 16 12.0002C16 9.79018 14.21 8.00018 12 8.00018ZM20.94 11.0002C20.48 6.83018 17.17 3.52018 13 3.06018V2.00018C13 1.45018 12.55 1.00018 12 1.00018C11.45 1.00018 11 1.45018 11 2.00018V3.06018C6.83 3.52018 3.52 6.83018 3.06 11.0002H2C1.45 11.0002 1 11.4502 1 12.0002C1 12.5502 1.45 13.0002 2 13.0002H3.06C3.52 17.1702 6.83 20.4802 11 20.9402V22.0002C11 22.5502 11.45 23.0002 12 23.0002C12.55 23.0002 13 22.5502 13 22.0002V20.9402C17.17 20.4802 20.48 17.1702 20.94 13.0002H22C22.55 13.0002 23 12.5502 23 12.0002C23 11.4502 22.55 11.0002 22 11.0002H20.94ZM12 19.0002C8.13 19.0002 5 15.8702 5 12.0002C5 8.13018 8.13 5.00018 12 5.00018C15.87 5.00018 19 8.13018 19 12.0002C19 15.8702 15.87 19.0002 12 19.0002Z" fill="black"/>
</svg>
