<svg width="24" height="24" viewBox="0 0 24 24" fill="none" xmlns="http://www.w3.org/2000/svg">
<path d="M12.1396 1.99984C12.4665 2.00382 12.7921 2.11774 13.0527 2.34066L13.0664 2.35238C14.6947 3.83385 16.6005 4.5844 19.0634 4.71273C20.2445 4.77441 21.1836 5.68629 21.2011 6.7889C21.2046 7.01503 21.211 7.21856 21.2207 7.41097V7.42562C21.2684 9.77501 21.3275 12.6996 20.2783 15.3563C19.7025 16.813 18.8312 18.0799 17.6894 19.1209C16.3897 20.3058 14.6876 21.2472 12.6308 21.9188C12.5635 21.9407 12.4934 21.9592 12.4228 21.9725C12.3294 21.9897 12.2339 21.9986 12.1396 21.9998H12.1211C12.0206 21.9998 11.9195 21.9908 11.8193 21.9725C11.7487 21.9592 11.6793 21.9412 11.6123 21.9198C9.55285 21.2491 7.84794 20.3079 6.54685 19.1229C5.40451 18.0818 4.53389 16.8151 3.95896 15.3582C2.91365 12.7094 2.97357 9.79097 3.02146 7.44613L3.02243 7.41097C3.03208 7.21733 3.03756 7.01351 3.04099 6.7889C3.05849 5.68616 3.99838 4.77422 5.17966 4.71273C7.6424 4.58434 9.54788 3.83377 11.1758 2.35238L11.1894 2.34066C11.4597 2.10918 11.8007 1.99511 12.1396 1.99984ZM12.122 7.01546C9.17844 7.01546 6.78318 9.25157 6.78318 11.9998C6.78334 14.7481 9.17854 16.9842 12.122 16.9842H12.1406C15.0754 16.9744 17.4607 14.7422 17.4609 11.9998C17.4609 9.25752 15.0755 7.02523 12.1406 7.01546H12.122Z" fill="black"/>
<path d="M14.5459 11.2815L11.6219 14.0118C11.4992 14.1264 11.3382 14.1836 11.1774 14.1836C11.0164 14.1836 10.8556 14.1264 10.7327 14.0118L9.61559 12.9684C9.37012 12.7392 9.37012 12.368 9.61559 12.1386C9.86074 11.9094 10.2589 11.9094 10.5043 12.1386L11.1774 12.767L13.6571 10.4518C13.9026 10.2224 14.3007 10.2224 14.5459 10.4518C14.7914 10.681 14.7914 11.0527 14.5459 11.2815Z" fill="black"/>
</svg>
