<svg width="24" height="24" viewBox="0 0 24 24" fill="none" xmlns="http://www.w3.org/2000/svg">
<path d="M15.7147 5.22002L15.6717 4.91557C15.5821 4.28519 15.0879 3.79092 14.4575 3.70138L14.153 3.6584C13.6838 3.59035 13.3579 3.15696 13.4224 2.68418C13.4868 2.2114 13.9238 1.88904 14.3966 1.95351L14.701 1.99649C16.0872 2.19349 17.176 3.2859 17.3766 4.67202L17.4195 4.97646C17.4876 5.44566 17.1617 5.88263 16.6889 5.95068C16.2161 6.01873 15.7827 5.6928 15.7147 5.22002ZM9.45386 5.33463C9.00615 4.88692 9.00615 4.15984 9.45386 3.71212C9.90158 3.26441 10.6287 3.26441 11.0764 3.71212L17.9532 10.589C18.0714 10.7072 18.2899 10.6284 18.2899 10.4564V7.67347C18.2899 6.88192 18.931 6.2408 19.7226 6.2408C20.5141 6.2408 21.1552 6.88192 21.1552 7.67347V13.988C21.1552 16.1442 20.156 18.175 18.4511 19.4931C16.6316 20.8971 14.3142 21.2732 12.2333 20.6643C11.2161 20.41 10.2526 19.8835 9.45386 19.0847L9.27836 18.9092C6.27332 15.9042 4.615 14.2459 4.29623 13.9271C3.84852 13.4794 3.84852 12.7523 4.29623 12.3046C4.74394 11.8569 5.47102 11.8569 5.91874 12.3046L7.0613 13.4472L7.06488 13.4507L8.73394 15.1198C8.92019 15.3061 9.22105 15.3061 9.40372 15.1198C9.58639 14.9336 9.58997 14.6327 9.40372 14.45L4.8693 9.91919C4.42159 9.47148 4.42159 8.7444 4.8693 8.29669C5.31701 7.84898 6.04409 7.84898 6.49181 8.29669L11.0262 12.8347C11.2125 13.0209 11.5133 13.0209 11.696 12.8347C11.8787 12.6484 11.8823 12.3476 11.696 12.1649L6.58851 7.05384C6.1408 6.60613 6.1408 5.87905 6.58851 5.43134C7.03622 4.98362 7.76331 4.98362 8.21102 5.43134L13.3185 10.5424C13.5048 10.7287 13.8056 10.7287 13.9883 10.5424C14.171 10.3562 14.1745 10.0553 13.9883 9.87263L9.45386 5.33463ZM2.69163 15.7072C3.16083 15.6392 3.5978 15.9651 3.66585 16.4379L3.70883 16.7423C3.79837 17.3727 4.29265 17.867 4.92303 17.9565L5.22747 17.9995C5.69667 18.0675 6.0226 18.5009 5.95813 18.9737C5.89366 19.4465 5.4567 19.7688 4.98391 19.7044L4.67947 19.6614C3.29336 19.4608 2.20452 18.372 2.00753 16.9859L1.96455 16.6814C1.8965 16.2122 2.22243 15.7753 2.69521 15.7072H2.69163Z" fill="black"/>
</svg>
