<svg width="24" height="24" viewBox="0 0 24 24" fill="none" xmlns="http://www.w3.org/2000/svg">
<path d="M12.019 2.40039C11.0703 2.40039 10.249 2.95164 9.85902 3.75039C9.59652 3.65289 9.31527 3.60039 9.01902 3.60039C7.69527 3.60039 6.61902 4.67664 6.61902 6.00039V12.2066L6.51777 12.1054C5.58027 11.1679 4.06152 11.1679 3.12402 12.1054C2.18652 13.0429 2.18652 14.5616 3.12402 15.4991L6.41277 18.7879C8.21277 20.5879 10.654 21.6004 13.2003 21.6004H13.819C13.8753 21.6004 13.9315 21.5966 13.9878 21.5854C17.4265 21.3529 20.1753 18.6079 20.404 15.1691C20.4153 15.1129 20.419 15.0566 20.419 15.0004V8.40039C20.419 7.07664 19.3428 6.00039 18.019 6.00039C17.8128 6.00039 17.6103 6.02664 17.419 6.07539V6.00039C17.419 4.67664 16.3428 3.60039 15.019 3.60039C14.7228 3.60039 14.4415 3.65289 14.179 3.75039C13.789 2.95164 12.9678 2.40039 12.019 2.40039ZM11.419 6.00414V6.00039V4.80039C11.419 4.47039 11.689 4.20039 12.019 4.20039C12.349 4.20039 12.619 4.47039 12.619 4.80039V11.1004C12.619 11.5991 13.0203 12.0004 13.519 12.0004C14.0178 12.0004 14.419 11.5991 14.419 11.1004V6.00039C14.419 5.67039 14.689 5.40039 15.019 5.40039C15.349 5.40039 15.619 5.67039 15.619 6.00039V11.1004C15.619 11.5991 16.0203 12.0004 16.519 12.0004C17.0178 12.0004 17.419 11.5991 17.419 11.1004V8.40039C17.419 8.07039 17.689 7.80039 18.019 7.80039C18.349 7.80039 18.619 8.07039 18.619 8.40039V14.8841C18.6153 14.9066 18.6153 14.9329 18.6115 14.9554C18.484 17.5691 16.3878 19.6654 13.774 19.7929C13.7515 19.7929 13.7253 19.7966 13.7028 19.8004H13.2003C11.134 19.8004 9.15027 18.9791 7.68777 17.5166L4.39527 14.2241C4.16277 13.9916 4.16277 13.6091 4.39527 13.3766C4.62777 13.1441 5.01027 13.1441 5.24277 13.3766L6.88152 15.0154C7.14027 15.2741 7.52652 15.3491 7.86402 15.2104C8.20152 15.0716 8.41902 14.7416 8.41902 14.3779V6.00039C8.41902 5.67039 8.68902 5.40039 9.01902 5.40039C9.34902 5.40039 9.61902 5.66664 9.61902 5.99664V11.1004C9.61902 11.5991 10.0203 12.0004 10.519 12.0004C11.0178 12.0004 11.419 11.5991 11.419 11.1004V6.00414Z" fill="black"/>
</svg>
