<svg width="24" height="24" viewBox="0 0 24 24" fill="none" xmlns="http://www.w3.org/2000/svg">
<path d="M13.2003 3.60039C13.2003 2.93664 12.6641 2.40039 12.0003 2.40039C11.3366 2.40039 10.8003 2.93664 10.8003 3.60039V11.4004C10.8003 11.7304 10.5303 12.0004 10.2003 12.0004C9.87034 12.0004 9.60034 11.7304 9.60034 11.4004V4.80039C9.60034 4.13664 9.06409 3.60039 8.40034 3.60039C7.73659 3.60039 7.20034 4.13664 7.20034 4.80039V15.0004C7.20034 15.0566 7.20034 15.1166 7.20409 15.1729L4.93534 13.0129C4.33534 12.4429 3.38659 12.4654 2.81284 13.0654C2.23909 13.6654 2.26534 14.6141 2.86534 15.1879L7.08034 19.2004C8.69659 20.7416 10.8453 21.6004 13.0803 21.6004H13.8003C17.4453 21.6004 20.4003 18.6454 20.4003 15.0004V7.20039C20.4003 6.53664 19.8641 6.00039 19.2003 6.00039C18.5366 6.00039 18.0003 6.53664 18.0003 7.20039V11.4004C18.0003 11.7304 17.7303 12.0004 17.4003 12.0004C17.0703 12.0004 16.8003 11.7304 16.8003 11.4004V4.80039C16.8003 4.13664 16.2641 3.60039 15.6003 3.60039C14.9366 3.60039 14.4003 4.13664 14.4003 4.80039V11.4004C14.4003 11.7304 14.1303 12.0004 13.8003 12.0004C13.4703 12.0004 13.2003 11.7304 13.2003 11.4004V3.60039Z" fill="black"/>
</svg>
