<svg width="24" height="24" viewBox="0 0 24 24" fill="none" xmlns="http://www.w3.org/2000/svg">
<path d="M19.572 5.44949C17.652 4.15949 15.492 4.27949 13.772 5.18949L12.002 10.4995H13.662C14.332 10.4995 14.812 11.1495 14.622 11.7895L12.802 17.8595C12.712 18.1495 12.282 18.0595 12.312 17.7595L13.002 11.4995H11.332C10.672 11.4995 10.192 10.8595 10.372 10.2295L11.552 6.11949C9.70198 4.38949 6.71198 3.81949 4.27197 5.53949C2.82197 6.56949 2.00197 8.19949 2.00197 9.98949C1.99197 13.7995 5.53197 16.6995 10.662 21.2895C11.422 21.9695 12.582 21.9795 13.352 21.2995C18.332 16.8795 22.222 13.7195 21.992 9.67949C21.902 7.94949 21.002 6.41949 19.572 5.44949Z" fill="black"/>
</svg>
