<svg width="24" height="24" viewBox="0 0 24 24" fill="none" xmlns="http://www.w3.org/2000/svg">
<path d="M13.26 2.99989C8.17003 2.85989 4.00003 6.94989 4.00003 11.9999H2.21003C1.76003 11.9999 1.54003 12.5399 1.86003 12.8499L4.65003 15.6499C4.85003 15.8499 5.16003 15.8499 5.36003 15.6499L8.15003 12.8499C8.46003 12.5399 8.24003 11.9999 7.79003 11.9999H6.00003C6.00003 8.09989 9.18003 4.94989 13.1 4.99989C16.82 5.04989 19.95 8.17989 20 11.8999C20.05 15.8099 16.9 18.9999 13 18.9999C11.39 18.9999 9.90003 18.4499 8.72003 17.5199C8.32003 17.2099 7.76003 17.2399 7.40003 17.5999C6.98003 18.0199 7.01003 18.7299 7.48003 19.0899C9.00003 20.2899 10.91 20.9999 13 20.9999C18.05 20.9999 22.14 16.8299 22 11.7399C21.87 7.04989 17.95 3.12989 13.26 2.99989ZM12.75 7.99989C12.34 7.99989 12 8.33989 12 8.74989V12.4299C12 12.7799 12.19 13.1099 12.49 13.2899L15.61 15.1399C15.97 15.3499 16.43 15.2299 16.64 14.8799C16.85 14.5199 16.73 14.0599 16.38 13.8499L13.5 12.1399V8.73989C13.5 8.33989 13.16 7.99989 12.75 7.99989Z" fill="black"/>
</svg>
