<svg width="24" height="24" viewBox="0 0 24 24" fill="none" xmlns="http://www.w3.org/2000/svg">
<path d="M11.54 7.20004H16.8C17.6825 7.20004 18.4 7.91754 18.4 8.80004C18.4 9.34754 18.125 9.83004 17.705 10.12C16.845 9.30254 15.68 8.80004 14.4 8.80004C13.5175 8.80004 12.8 9.51754 12.8 10.4V12.9C13.055 12.835 13.325 12.8 13.6 12.8C15.3675 12.8 16.8 14.2325 16.8 16C16.8 16.955 16.38 17.8125 15.7175 18.4H17.6C18.4825 18.4 19.2 17.6825 19.2 16.8V13.6C19.2 12.8075 19.0075 12.0575 18.6675 11.4C19.475 10.8175 20 9.87004 20 8.80004C20 7.03254 18.5675 5.60004 16.8 5.60004H11.54C10.0325 5.60004 8.7275 6.65504 8.41 8.13004L7.7525 11.2H9.39L9.975 8.46504C10.135 7.72754 10.785 7.20004 11.54 7.20004ZM9.2175 12H7.58L6.725 16H6.095C5.25 16 4.4775 16.4725 4.095 17.225C4.035 17.3375 4 17.465 4 17.6C4 18.0425 4.3575 18.4 4.8 18.4H7.185C7.195 18.4 7.2075 18.4 7.2175 18.4H8.4C9.0625 18.4 9.6 17.8625 9.6 17.2C9.6 16.5375 9.0625 16 8.4 16H8.36L9.2175 12ZM16 16C16 15.3635 15.7471 14.7531 15.2971 14.303C14.847 13.8529 14.2365 13.6 13.6 13.6C12.9635 13.6 12.353 13.8529 11.9029 14.303C11.4529 14.7531 11.2 15.3635 11.2 16C11.2 16.6366 11.4529 17.247 11.9029 17.6971C12.353 18.1472 12.9635 18.4 13.6 18.4C14.2365 18.4 14.847 18.1472 15.2971 17.6971C15.7471 17.247 16 16.6366 16 16ZM12.8 16C12.8 15.7879 12.8843 15.5844 13.0343 15.4344C13.1843 15.2843 13.3878 15.2 13.6 15.2C13.8122 15.2 14.0157 15.2843 14.1657 15.4344C14.3157 15.5844 14.4 15.7879 14.4 16C14.4 16.2122 14.3157 16.4157 14.1657 16.5657C14.0157 16.7158 13.8122 16.8 13.6 16.8C13.3878 16.8 13.1843 16.7158 13.0343 16.5657C12.8843 16.4157 12.8 16.2122 12.8 16Z" fill="black"/>
</svg>
