<svg width="24" height="24" viewBox="0 0 24 24" fill="none" xmlns="http://www.w3.org/2000/svg">
<path d="M7.00073 3.99854C6.44761 3.99854 6.00073 4.44541 6.00073 4.99854C6.00073 5.55166 6.44761 5.99854 7.00073 5.99854V6.34229C7.00073 7.66729 7.52886 8.93916 8.46636 9.87666L10.5882 11.9985L8.46636 14.1204C7.52886 15.0579 7.00073 16.3298 7.00073 17.6548V17.9985C6.44761 17.9985 6.00073 18.4454 6.00073 18.9985C6.00073 19.5517 6.44761 19.9985 7.00073 19.9985H17.0007C17.5539 19.9985 18.0007 19.5517 18.0007 18.9985C18.0007 18.4454 17.5539 17.9985 17.0007 17.9985V17.6548C17.0007 16.3298 16.4726 15.0579 15.5351 14.1204L13.4132 11.9985L15.5351 9.87666C16.4726 8.93916 17.0007 7.66729 17.0007 6.34229V5.99854C17.5539 5.99854 18.0007 5.55166 18.0007 4.99854C18.0007 4.44541 17.5539 3.99854 17.0007 3.99854H7.00073ZM9.00073 6.34229V5.99854H15.0007V6.34229C15.0007 6.93604 14.8257 7.51104 14.5007 7.99854H9.50073C9.17886 7.51104 9.00073 6.93604 9.00073 6.34229ZM9.50073 15.9985C9.61011 15.8329 9.73823 15.6767 9.87886 15.5329L12.0007 13.411L14.1226 15.5329C14.2664 15.6767 14.3914 15.8329 14.5039 15.9985H9.50073Z" fill="black"/>
</svg>
