<svg width="24" height="24" viewBox="0 0 24 24" fill="none" xmlns="http://www.w3.org/2000/svg">
<path d="M19.3876 12.8601C19.8524 12.8601 20.2625 12.4774 20.2625 11.9826C20.2898 11.7365 20.1804 11.5178 19.9617 11.3265L18.5183 10.0552V6.74728C18.5183 6.26339 18.1273 5.87245 17.6434 5.87245H16.7686C16.2847 5.87245 15.8938 6.26339 15.8938 6.74728V7.7506L12.9822 5.18899C12.8182 5.0523 12.5995 4.99762 12.4081 4.99762C12.2168 4.99762 11.9981 5.02496 11.8067 5.21633L4.79438 11.3265C4.60301 11.5178 4.521 11.7365 4.521 11.9826C4.521 12.4747 4.90373 12.8601 5.39583 12.8601H6.27065V14.7656C6.26792 14.7902 6.26792 14.8148 6.26792 14.8422V17.9041C6.26792 18.5083 6.75728 18.9976 7.36146 18.9976H7.79887C7.83168 18.9976 7.86448 18.9949 7.89729 18.9922C7.9383 18.9949 7.97931 18.9976 8.02031 18.9976H8.89241H9.54853C10.1527 18.9976 10.6421 18.5083 10.6421 17.9041V17.248V15.4983C10.6421 15.0144 11.033 14.6235 11.5169 14.6235H13.2666C13.7504 14.6235 14.1414 15.0144 14.1414 15.4983V17.248V17.9041C14.1414 18.5083 14.6307 18.9976 15.2349 18.9976H15.891H16.7795C16.8178 18.9976 16.8561 18.9976 16.8944 18.9949C16.9244 18.9976 16.9545 18.9976 16.9846 18.9976H17.422C18.0262 18.9976 18.5155 18.5083 18.5155 17.9041V17.4612C18.5237 17.3901 18.5292 17.3163 18.5292 17.2398L18.5101 12.8601H19.3849H19.3876Z" fill="black"/>
</svg>
