<svg width="24" height="24" viewBox="0 0 24 24" fill="none" xmlns="http://www.w3.org/2000/svg">
<path d="M6.0001 5.39998C5.6701 5.39998 5.4001 5.66998 5.4001 5.99998V18C5.4001 18.33 5.6701 18.6 6.0001 18.6H18.0001C18.3301 18.6 18.6001 18.33 18.6001 18V5.99998C18.6001 5.66998 18.3301 5.39998 18.0001 5.39998H6.0001ZM3.6001 5.99998C3.6001 4.67623 4.67635 3.59998 6.0001 3.59998H18.0001C19.3238 3.59998 20.4001 4.67623 20.4001 5.99998V18C20.4001 19.3237 19.3238 20.4 18.0001 20.4H6.0001C4.67635 20.4 3.6001 19.3237 3.6001 18V5.99998ZM8.4001 7.19998C9.06385 7.19998 9.6001 7.73623 9.6001 8.39998C9.6001 9.06373 9.06385 9.59998 8.4001 9.59998C7.73635 9.59998 7.2001 9.06373 7.2001 8.39998C7.2001 7.73623 7.73635 7.19998 8.4001 7.19998ZM13.5001 9.89998C13.8188 9.89998 14.1151 10.0687 14.2763 10.3425L17.2763 15.4425C17.4413 15.72 17.4413 16.065 17.2801 16.3462C17.1188 16.6275 16.8226 16.8 16.5001 16.8H7.5001C7.16635 16.8 6.8551 16.6125 6.70135 16.3162C6.5476 16.02 6.5701 15.66 6.76135 15.3862L8.86135 12.3862C9.0301 12.1462 9.30385 12.0037 9.6001 12.0037C9.89635 12.0037 10.1701 12.1462 10.3388 12.3862L10.9838 13.3087L12.7276 10.3462C12.8888 10.0725 13.1851 9.90373 13.5038 9.90373L13.5001 9.89998Z" fill="black"/>
</svg>
