<svg width="24" height="24" viewBox="0 0 24 24" fill="none" xmlns="http://www.w3.org/2000/svg">
<path d="M6.0001 3.59998C4.67635 3.59998 3.6001 4.67623 3.6001 5.99998V18C3.6001 19.3237 4.67635 20.4 6.0001 20.4H18.0001C19.3238 20.4 20.4001 19.3237 20.4001 18V5.99998C20.4001 4.67623 19.3238 3.59998 18.0001 3.59998H6.0001ZM8.4001 6.59998C9.39385 6.59998 10.2001 7.40623 10.2001 8.39998C10.2001 9.39373 9.39385 10.2 8.4001 10.2C7.40635 10.2 6.6001 9.39373 6.6001 8.39998C6.6001 7.40623 7.40635 6.59998 8.4001 6.59998ZM13.8001 10.8C14.1151 10.8 14.4038 10.965 14.5688 11.2312L17.8688 16.6312C18.0376 16.9087 18.0451 17.2575 17.8876 17.5425C17.7301 17.8275 17.4263 18 17.1001 18H6.9001C6.56635 18 6.2551 17.8125 6.10135 17.5162C5.9476 17.22 5.9701 16.86 6.16135 16.5862L8.26135 13.5862C8.4301 13.3462 8.70385 13.2037 9.0001 13.2037C9.29635 13.2037 9.5701 13.3462 9.73885 13.5862L10.7288 15.0037L13.0313 11.235C13.1963 10.9687 13.4851 10.8037 13.8001 10.8037V10.8Z" fill="black"/>
</svg>
