<svg width="24" height="24" viewBox="0 0 24 24" fill="none" xmlns="http://www.w3.org/2000/svg">
<path d="M12 2C17.52 2 22 6.48 22 12C22 17.52 17.52 22 12 22C6.48 22 2 17.52 2 12C2 6.48 6.48 2 12 2ZM12 3.49805C7.30679 3.49805 3.49805 7.30679 3.49805 12C3.49805 16.6932 7.30679 20.502 12 20.502C16.6932 20.502 20.502 16.6932 20.502 12C20.502 7.30679 16.6932 3.49805 12 3.49805Z" fill="black"/>
<path d="M12 17C11.45 17 11 16.55 11 16V12C11 11.45 11.45 11 12 11C12.55 11 13 11.45 13 12V16C13 16.55 12.55 17 12 17ZM13 9H11V7H13V9Z" fill="black"/>
</svg>
