<svg width="24" height="24" viewBox="0 0 24 24" fill="none" xmlns="http://www.w3.org/2000/svg">
<path d="M11.9978 9.33228C10.5289 9.33228 9.3301 10.5311 9.3301 12C9.3301 13.469 10.5289 14.6678 11.9978 14.6678C13.4668 14.6678 14.6656 13.469 14.6656 12C14.6656 10.5311 13.4668 9.33228 11.9978 9.33228ZM19.9991 12C19.9991 10.8953 20.0091 9.80059 19.9471 8.69786C19.885 7.41702 19.5928 6.28028 18.6562 5.34366C17.7176 4.40504 16.5829 4.11485 15.302 4.05281C14.1973 3.99077 13.1026 4.00078 11.9999 4.00078C10.8951 4.00078 9.80041 3.99077 8.69768 4.05281C7.41684 4.11485 6.28009 4.40705 5.34348 5.34366C4.40486 6.28228 4.11467 7.41702 4.05263 8.69786C3.99059 9.80259 4.0006 10.8973 4.0006 12C4.0006 13.1028 3.99059 14.1995 4.05263 15.3022C4.11467 16.583 4.40686 17.7198 5.34348 18.6564C6.28209 19.595 7.41684 19.8852 8.69768 19.9473C9.80241 20.0093 10.8971 19.9993 11.9999 19.9993C13.1046 19.9993 14.1993 20.0093 15.302 19.9473C16.5829 19.8852 17.7196 19.593 18.6562 18.6564C19.5948 17.7178 19.885 16.583 19.9471 15.3022C20.0111 14.1995 19.9991 13.1048 19.9991 12ZM11.9978 16.1047C9.72636 16.1047 7.89315 14.2715 7.89315 12C7.89315 9.72854 9.72636 7.89534 11.9978 7.89534C14.2693 7.89534 16.1025 9.72854 16.1025 12C16.1025 14.2715 14.2693 16.1047 11.9978 16.1047ZM16.2707 8.68586C15.7403 8.68586 15.312 8.25758 15.312 7.72723C15.312 7.19688 15.7403 6.7686 16.2707 6.7686C16.801 6.7686 17.2293 7.19688 17.2293 7.72723C17.2294 7.85316 17.2048 7.97789 17.1566 8.09427C17.1085 8.21064 17.0379 8.31638 16.9489 8.40543C16.8598 8.49448 16.7541 8.56509 16.6377 8.61321C16.5213 8.66133 16.3966 8.68601 16.2707 8.68586Z" fill="black"/>
</svg>
