<svg width="24" height="24" viewBox="0 0 24 24" fill="none" xmlns="http://www.w3.org/2000/svg">
<path d="M8.68673 4.05607C7.83553 4.09623 7.25425 4.23207 6.74609 4.43175C6.22017 4.63671 5.77441 4.91175 5.33089 5.35687C4.88737 5.80199 4.61425 6.24807 4.41073 6.77479C4.21377 7.28407 4.08033 7.86583 4.04273 8.71751C4.00513 9.56919 3.99681 9.84295 4.00097 12.0154C4.00513 14.1879 4.01473 14.4602 4.05601 15.3137C4.09665 16.1647 4.23201 16.7458 4.43169 17.2542C4.63697 17.7801 4.91169 18.2257 5.35697 18.6694C5.80225 19.113 6.24801 19.3855 6.77601 19.5894C7.28481 19.786 7.86673 19.9201 8.71825 19.9574C9.56977 19.9946 9.84385 20.0033 12.0157 19.9991C14.1875 19.995 14.461 19.9854 15.3143 19.9449C16.1675 19.9044 16.7456 19.7681 17.2541 19.5694C17.78 19.3636 18.2259 19.0894 18.6693 18.6439C19.1127 18.1985 19.3856 17.7521 19.589 17.225C19.7861 16.7162 19.92 16.1343 19.957 15.2834C19.9943 14.4295 20.0031 14.1569 19.9989 11.9847C19.9947 9.81255 19.985 9.54023 19.9445 8.68711C19.904 7.83399 19.7685 7.25463 19.569 6.74599C19.3634 6.22007 19.089 5.77479 18.6439 5.33079C18.1987 4.88679 17.752 4.61399 17.2251 4.41111C16.716 4.21415 16.1344 4.07991 15.2829 4.04311C14.4314 4.00631 14.1573 3.99687 11.9847 4.00103C9.81201 4.00519 9.54001 4.01447 8.68673 4.05607ZM8.78017 18.5182C8.00017 18.4842 7.57665 18.3546 7.29441 18.2462C6.92065 18.1022 6.65441 17.9281 6.37313 17.6495C6.09185 17.371 5.91905 17.1038 5.77313 16.7308C5.66353 16.4486 5.53153 16.0255 5.49505 15.2455C5.45537 14.4025 5.44705 14.1494 5.44241 12.0135C5.43777 9.87767 5.44593 9.62487 5.48289 8.78151C5.51617 8.00215 5.64657 7.57815 5.75489 7.29607C5.89889 6.92183 6.07233 6.65607 6.35153 6.37495C6.63073 6.09383 6.89713 5.92071 7.27041 5.77479C7.55233 5.66471 7.97537 5.53383 8.75505 5.49671C9.59873 5.45671 9.85153 5.44871 11.9871 5.44407C14.1226 5.43943 14.376 5.44743 15.22 5.48455C15.9994 5.51847 16.4235 5.64759 16.7053 5.75655C17.0792 5.90055 17.3453 6.07351 17.6264 6.35319C17.9075 6.63287 18.0808 6.89831 18.2267 7.27239C18.337 7.55351 18.4679 7.97639 18.5047 8.75655C18.5448 9.60023 18.5539 9.85319 18.5578 11.9886C18.5616 14.1239 18.5541 14.3775 18.5171 15.2206C18.4831 16.0006 18.3538 16.4242 18.2451 16.7068C18.1011 17.0804 17.9275 17.3468 17.6482 17.6278C17.3688 17.9087 17.1027 18.0818 16.7293 18.2278C16.4477 18.3377 16.0242 18.4689 15.2451 18.506C14.4015 18.5457 14.1487 18.554 12.0123 18.5586C9.87601 18.5633 9.62401 18.5546 8.78033 18.5182M15.3019 7.72439C15.3022 7.91428 15.3589 8.0998 15.4646 8.2575C15.5704 8.4152 15.7206 8.538 15.8961 8.61036C16.0717 8.68271 16.2647 8.70138 16.4509 8.66401C16.6371 8.62663 16.808 8.53488 16.942 8.40037C17.076 8.26585 17.1671 8.09462 17.2038 7.90831C17.2405 7.72201 17.2212 7.52901 17.1481 7.35372C17.0751 7.17843 16.9518 7.02872 16.7937 6.92354C16.6356 6.81835 16.4499 6.76241 16.26 6.76279C16.0055 6.7633 15.7615 6.86489 15.5819 7.04521C15.4022 7.22554 15.3015 7.46984 15.3019 7.72439ZM7.89233 12.0081C7.89681 14.2769 9.73937 16.1119 12.0077 16.1076C14.276 16.1033 16.1123 14.2609 16.108 11.9921C16.1037 9.72327 14.2607 7.88775 11.992 7.89223C9.72337 7.89671 7.88801 9.73959 7.89233 12.0081ZM9.33329 12.0052C9.33225 11.4778 9.48763 10.9619 9.77978 10.5228C10.0719 10.0836 10.4877 9.74101 10.9746 9.53821C11.4615 9.33541 11.9976 9.28154 12.5151 9.38341C13.0326 9.48528 13.5082 9.73832 13.8819 10.1105C14.2556 10.4827 14.5105 10.9574 14.6145 11.4745C14.7184 11.9916 14.6666 12.5279 14.4658 13.0155C14.2649 13.5032 13.9239 13.9204 13.4859 14.2143C13.048 14.5082 12.5327 14.6656 12.0053 14.6666C11.6551 14.6674 11.3082 14.5991 10.9843 14.4657C10.6605 14.3324 10.3661 14.1365 10.118 13.8894C9.86987 13.6423 9.67286 13.3486 9.53822 13.0253C9.40358 12.7021 9.33394 12.3554 9.33329 12.0052Z" fill="black"/>
</svg>
