<svg width="24" height="24" viewBox="0 0 24 24" fill="none" xmlns="http://www.w3.org/2000/svg">
<path d="M13.2999 9.3H9.6999C9.2049 9.3 8.7999 8.895 8.7999 8.4C8.7999 7.905 9.2049 7.5 9.6999 7.5H13.2999C13.7949 7.5 14.1999 7.905 14.1999 8.4C14.1999 8.895 13.7949 9.3 13.2999 9.3Z" fill="black"/>
<path d="M13.2999 12H9.6999C9.2049 12 8.7999 11.595 8.7999 11.1C8.7999 10.605 9.2049 10.2 9.6999 10.2H13.2999C13.7949 10.2 14.1999 10.605 14.1999 11.1C14.1999 11.595 13.7949 12 13.2999 12Z" fill="black"/>
<path d="M18.2499 4.35L16.8999 3L15.5499 4.35L14.1999 3L12.8499 4.35L11.4999 3L10.1499 4.35L8.7999 3L7.4499 4.35L6.0999 3V15.6H4.2999C3.8049 15.6 3.3999 16.005 3.3999 16.5V18.3C3.3999 19.794 4.6059 21 6.0999 21H16.8999C18.3939 21 19.5999 19.794 19.5999 18.3V3L18.2499 4.35ZM14.1999 19.2H6.0999C5.6049 19.2 5.1999 18.795 5.1999 18.3V17.4H14.1999V19.2ZM17.7999 18.3C17.7999 18.795 17.3949 19.2 16.8999 19.2C16.4049 19.2 15.9999 18.795 15.9999 18.3V16.5C15.9999 16.005 15.5949 15.6 15.0999 15.6H7.8999V5.7H17.7999V18.3Z" fill="black"/>
<path d="M15.9999 9.3C16.497 9.3 16.8999 8.89706 16.8999 8.4C16.8999 7.90294 16.497 7.5 15.9999 7.5C15.5028 7.5 15.0999 7.90294 15.0999 8.4C15.0999 8.89706 15.5028 9.3 15.9999 9.3Z" fill="black"/>
<path d="M15.9999 12C16.497 12 16.8999 11.5971 16.8999 11.1C16.8999 10.6029 16.497 10.2 15.9999 10.2C15.5028 10.2 15.0999 10.6029 15.0999 11.1C15.0999 11.5971 15.5028 12 15.9999 12Z" fill="black"/>
</svg>
