<svg width="24" height="24" viewBox="0 0 24 24" fill="none" xmlns="http://www.w3.org/2000/svg">
<path d="M22.6164 0.386963C22.8789 0.386963 23.1321 0.490069 23.3196 0.677551C23.7133 1.0713 23.7133 1.69948 23.3196 2.09323L2.15084 23.2713C1.75709 23.6557 1.129 23.6651 0.735254 23.2713C0.341504 22.8776 0.341504 22.2495 0.735254 21.8557L21.9133 0.677551C22.1008 0.490061 22.354 0.386968 22.6164 0.386963Z" fill="black"/>
<path d="M21.4446 6.09637C21.7446 6.26512 21.9509 6.41514 21.9509 6.95889C21.9508 7.50263 21.5008 7.95261 20.9571 7.95261C20.4133 7.95263 19.9633 8.40267 19.9633 8.94641V12.9308C19.9633 14.5901 18.6227 15.9214 16.9727 15.9214V16.9152C16.9727 17.4589 16.5227 17.9089 15.979 17.9089H9.63207L16.9727 10.5683V13.9245C17.4994 13.9245 17.9383 13.5022 17.9652 12.9814L17.9665 12.9308L17.9571 12.9401V9.58389L21.4446 6.09637Z" fill="black"/>
<path d="M2.62902 17.8338C2.27277 17.6838 2.01965 17.3276 2.01965 16.9151V14.9182C2.01965 12.7151 3.8009 10.9338 6.00402 10.9338H9.52899L2.62902 17.8338Z" fill="black"/>
<path d="M11.5165 8.94632H9.9884C9.60402 8.94632 9.26652 9.162 9.09777 9.47137C8.93841 9.78074 9.00397 9.94012 8.26336 9.94012C7.52274 9.94012 7.00715 9.14321 7.3634 8.49634C7.8884 7.56822 8.8634 6.94946 9.9884 6.94946H13.5134L11.5165 8.94632Z" fill="black"/>
</svg>
