<svg width="24" height="24" viewBox="0 0 24 24" fill="none" xmlns="http://www.w3.org/2000/svg">
<path d="M8.27 10.0026C8.61 10.0026 8.95 9.84256 9.11 9.53256C9.28 9.22256 9.62 9.00256 10 9.00256H14C14.55 9.00256 15 9.45256 15 10.0026V11.0026H6C3.79 11.0026 2 12.7926 2 15.0026V17.0026C2 17.5526 2.45 18.0026 3 18.0026H16C16.55 18.0026 17 17.5526 17 17.0026V16.0026C18.66 16.0026 20 14.6626 20 13.0026V9.00256C20 8.45256 20.45 8.00256 21 8.00256C21.55 8.00256 22 7.55256 22 7.00256C22 6.45256 21.55 6.00256 21 6.00256C19.34 6.00256 18 7.34256 18 9.00256V13.0026C18 13.5526 17.55 14.0026 17 14.0026V10.0026C17 8.34256 15.66 7.00256 14 7.00256H10C8.87 7.00256 7.89 7.62256 7.37 8.55256C7.01 9.20256 7.53 10.0026 8.27 10.0026Z" fill="black"/>
</svg>
