<svg width="24" height="24" viewBox="0 0 24 24" fill="none" xmlns="http://www.w3.org/2000/svg">
<path d="M14.7715 10.4541C15.0847 10.0243 15.6882 9.92706 16.1201 10.2402C16.3319 10.3941 16.4753 10.6091 16.5195 10.8496C16.5637 11.0911 16.5069 11.3511 16.333 11.5908L11.7744 17.8555C11.6074 18.0858 11.3509 18.229 11.0723 18.2529C10.7847 18.277 10.5081 18.169 10.3115 17.9727L8.03223 15.6943C7.6561 15.3172 7.65611 14.7042 8.03223 14.3271C8.40933 13.9506 9.02222 13.9507 9.39941 14.3271L10.877 15.8047L14.7715 10.4541Z" fill="black"/>
<path fill-rule="evenodd" clip-rule="evenodd" d="M12 1C13.3 1 14.4003 1.84 14.8203 3H19C20.1 3 21 3.9 21 5V21C21 22.1 20.1 23 19 23H5C3.9 23 3 22.1 3 21V5C3 3.9 3.9 3 5 3H9.17969C9.59969 1.84 10.7 1 12 1ZM5 21H19V5H17V7C17 7.55228 16.5523 8 16 8H8C7.44772 8 7 7.55228 7 7V5H5V21ZM12 3C11.45 3 11 3.45 11 4C11 4.55 11.45 5 12 5C12.55 5 13 4.55 13 4C13 3.45 12.55 3 12 3Z" fill="black"/>
</svg>
