<svg width="24" height="24" viewBox="0 0 24 24" fill="none" xmlns="http://www.w3.org/2000/svg">
<path d="M12 10.5C12.55 10.5 13 10.95 13 11.5V13.5H15C15.55 13.5 16 13.95 16 14.5C16 15.05 15.55 15.5 15 15.5H13V17.5C13 18.05 12.55 18.5 12 18.5C11.45 18.5 11 18.05 11 17.5V15.5H9C8.45 15.5 8 15.05 8 14.5C8 13.95 8.45 13.5 9 13.5H11V11.5C11 10.95 11.45 10.5 12 10.5Z" fill="black"/>
<path fill-rule="evenodd" clip-rule="evenodd" d="M12 1C13.3 1 14.4003 1.84 14.8203 3H19C20.1 3 21 3.9 21 5V21C21 22.1 20.1 23 19 23H5C3.9 23 3 22.1 3 21V5C3 3.9 3.9 3 5 3H9.17969C9.59969 1.84 10.7 1 12 1ZM5 21H19V5H17V7C17 7.55228 16.5523 8 16 8H8C7.44772 8 7 7.55228 7 7V5H5V21ZM12 3C11.45 3 11 3.45 11 4C11 4.55 11.45 5 12 5C12.55 5 13 4.55 13 4C13 3.45 12.55 3 12 3Z" fill="black"/>
</svg>
