<svg width="24" height="24" viewBox="0 0 24 24" fill="none" xmlns="http://www.w3.org/2000/svg">
<path d="M4.80005 11.9999L5.8688 3.4499C5.9438 2.8499 6.4538 2.3999 7.0613 2.3999H13.3838C13.9463 2.3999 14.4 2.85365 14.4 3.41615C14.4 3.53615 14.3775 3.6599 14.3363 3.7724L12.6 8.3999H17.8238C18.5813 8.3999 19.2 9.0149 19.2 9.77615C19.2 10.0537 19.1175 10.3237 18.96 10.5524L11.7525 21.0899C11.5313 21.4124 11.1675 21.6037 10.7813 21.6037H10.6725C10.0838 21.6037 9.6038 21.1236 9.6038 20.5349C9.6038 20.4487 9.61505 20.3624 9.63755 20.2762L11.4 13.1999H6.00005C5.3363 13.1999 4.80005 12.6637 4.80005 11.9999Z" fill="black"/>
</svg>
