<svg width="24" height="24" viewBox="0 0 24 24" fill="none" xmlns="http://www.w3.org/2000/svg">
<path d="M15.9188 13.3163C16.8375 12.345 17.4 11.04 17.4 9.60002C17.4 6.61877 14.9813 4.20002 12 4.20002C9.0188 4.20002 6.60005 6.61877 6.60005 9.60002C6.60005 11.04 7.16255 12.345 8.0813 13.3163C8.88005 14.1563 9.76505 15.3413 10.08 16.8H13.92C14.235 15.3375 15.12 14.1563 15.9188 13.3163ZM17.2238 14.5538C16.3388 15.4875 15.6 16.6275 15.6 17.9138V18.6C15.6 20.2575 14.2575 21.6 12.6 21.6H11.4C9.74255 21.6 8.40005 20.2575 8.40005 18.6V17.9138C8.40005 16.6275 7.6613 15.4875 6.7763 14.5538C5.55005 13.2638 4.80005 11.52 4.80005 9.60002C4.80005 5.62502 8.02505 2.40002 12 2.40002C15.975 2.40002 19.2 5.62502 19.2 9.60002C19.2 11.52 18.45 13.2638 17.2238 14.5538ZM10.2 9.30002C10.2 9.79877 9.7988 10.2 9.30005 10.2C8.8013 10.2 8.40005 9.79877 8.40005 9.30002C8.40005 7.47752 9.87755 6.00002 11.7 6.00002C12.1988 6.00002 12.6 6.40127 12.6 6.90002C12.6 7.39877 12.1988 7.80002 11.7 7.80002C10.8713 7.80002 10.2 8.47127 10.2 9.30002Z" fill="black"/>
</svg>
