<svg width="24" height="24" viewBox="0 0 24 24" fill="none" xmlns="http://www.w3.org/2000/svg">
<path d="M7.59925 19.647V8.85126H4.01096V19.647H7.59925ZM5.80607 7.3778C7.05706 7.3778 7.83616 6.54862 7.83616 5.51239C7.81305 4.45304 7.05706 3.64697 5.83014 3.64697C4.60323 3.64697 3.80005 4.45304 3.80005 5.51239C3.80005 6.57173 4.57819 7.3778 5.78295 7.3778H5.80607ZM9.58505 19.647H13.1733V13.6183C13.1733 13.2957 13.1965 12.9731 13.2918 12.7429C13.5509 12.0977 14.1412 11.4303 15.1331 11.4303C16.1251 11.4303 16.9504 12.4203 16.9504 13.8716V19.646H20.5387V13.4556C20.5387 10.1398 18.7686 8.59701 16.4082 8.59701C14.0478 8.59701 13.6231 9.67851 13.1502 10.4152H13.1743V8.8503H9.58601C9.6332 9.86342 9.58601 19.646 9.58601 19.646L9.58505 19.647Z" fill="black"/>
</svg>
