<svg width="24" height="24" viewBox="0 0 24 24" fill="none" xmlns="http://www.w3.org/2000/svg">
<path d="M19.36 4H4.64C4.286 4 4 4.286 4 4.64V19.36C4 19.714 4.286 20 4.64 20H19.36C19.714 20 20 19.714 20 19.36V4.64C20 4.286 19.714 4 19.36 4ZM8.746 17.634H6.372V9.998H8.746V17.634ZM7.56 8.954C7.28785 8.954 7.02182 8.8733 6.79554 8.7221C6.56925 8.57091 6.39289 8.356 6.28874 8.10457C6.1846 7.85314 6.15735 7.57647 6.21044 7.30956C6.26353 7.04264 6.39458 6.79746 6.58702 6.60502C6.77946 6.41258 7.02464 6.28153 7.29156 6.22844C7.55847 6.17535 7.83514 6.2026 8.08657 6.30674C8.338 6.41089 8.55291 6.58725 8.7041 6.81354C8.8553 7.03982 8.936 7.30585 8.936 7.578C8.934 8.338 8.318 8.954 7.56 8.954ZM17.634 17.634H15.262V13.92C15.262 13.034 15.246 11.896 14.028 11.896C12.794 11.896 12.604 12.86 12.604 13.856V17.634H10.234V9.998H12.51V11.042H12.542C12.858 10.442 13.632 9.808 14.788 9.808C17.192 9.808 17.634 11.39 17.634 13.446V17.634Z" fill="black"/>
</svg>
