<svg width="24" height="24" viewBox="0 0 24 24" fill="none" xmlns="http://www.w3.org/2000/svg">
<path d="M17.9999 10.2004C17.9999 11.9216 17.4412 13.5116 16.4999 14.8016L21.2474 19.5529C21.7162 20.0216 21.7162 20.7829 21.2474 21.2516C20.7787 21.7204 20.0174 21.7204 19.5487 21.2516L14.8012 16.5004C13.5112 17.4416 11.9212 18.0004 10.1999 18.0004C5.89115 18.0004 2.3999 14.5091 2.3999 10.2004C2.3999 5.89164 5.89115 2.40039 10.1999 2.40039C14.5087 2.40039 17.9999 5.89164 17.9999 10.2004ZM10.1999 15.6004C13.1812 15.6004 15.5999 13.1816 15.5999 10.2004C15.5999 7.21914 13.1812 4.80039 10.1999 4.80039C7.21865 4.80039 4.7999 7.21914 4.7999 10.2004C4.7999 13.1816 7.21865 15.6004 10.1999 15.6004Z" fill="black"/>
</svg>
