<svg width="35" height="33" viewBox="0 0 35 33" fill="none" xmlns="http://www.w3.org/2000/svg">
<path d="M15.9533 20.7997C16.5052 20.7997 16.9532 21.2478 16.9533 21.7997C16.9533 22.3516 16.5053 22.7996 15.9533 22.7997C15.4013 22.7997 14.9533 22.3517 14.9533 21.7997C14.9534 21.2477 15.4013 20.7997 15.9533 20.7997Z" fill="black"/>
<path d="M20.7531 20.7997C21.305 20.7997 21.753 21.2477 21.7531 21.7997C21.7531 22.3517 21.3051 22.7997 20.7531 22.7997C20.2011 22.7996 19.7531 22.3516 19.7531 21.7997C19.7532 21.2478 20.2012 20.7997 20.7531 20.7997Z" fill="black"/>
<path fill-rule="evenodd" clip-rule="evenodd" d="M16.7707 12.7987C20.4979 10.9556 22.966 12.6646 24.3244 14.2801C25.0886 15.2086 25.5619 16.3526 25.6818 17.5614C25.6929 17.6644 25.7075 17.7716 25.7218 17.8827C26.0638 18.6893 26.2752 19.5634 26.3341 20.4793C26.6317 21.2712 27.0497 22.0177 27.6359 22.5526C29.6583 24.3965 30.3437 25.7833 30.3537 25.8036L29.673 26.4999C29.673 25.4544 29.1636 25.0621 28.9093 24.9315L28.7687 24.8739L28.9943 26.4999C26.4937 28.6834 22.7438 29.1577 19.1847 28.9569C18.9115 28.9851 18.6343 28.9998 18.3537 28.9999C17.4535 28.9999 16.5882 28.8486 15.7804 28.5741C12.1478 27.9817 9.33127 26.9781 9.29117 26.9637L9.7443 22.784C8.61344 23.2487 8.16031 26.4999 8.16031 26.4999L6.35367 26.0418C6.37286 26.0109 9.52918 20.9215 11.5617 16.287C13.6004 11.6386 16.7707 12.7987 16.7707 12.7987ZM16.5451 16.4481C15.7144 18.4732 14.0694 20.0659 12.0216 20.8592C11.9956 21.0363 11.9772 21.2158 11.966 21.3973C12.172 24.741 14.9592 27.4002 18.3537 27.4002C21.7456 27.4 24.529 24.7445 24.7384 21.4042C24.6922 20.6452 24.5148 19.9223 24.2267 19.2577C23.7493 19.346 23.2599 19.4002 22.7531 19.4002C20.2492 19.4002 18.0171 18.248 16.5451 16.4481Z" fill="black"/>
<path d="M2.15836 12.2215C2.29515 11.9258 2.71304 11.9257 2.84977 12.2215L3.44938 13.5584L4.77848 14.1581C5.07423 14.2948 5.07429 14.7127 4.77848 14.8495L3.44938 15.4491L2.84977 16.7782C2.71302 17.074 2.2873 17.074 2.15055 16.7782L1.55094 15.4413L0.221837 14.8417C-0.0739179 14.7049 -0.0739736 14.287 0.221837 14.1502L1.55875 13.5506L2.15836 12.2215Z" fill="black"/>
<path d="M31.0216 5.3104C31.2131 4.89616 31.798 4.89613 31.9894 5.3104L32.8293 7.1815L34.6896 8.02134C35.1039 8.21277 35.1039 8.7977 34.6896 8.98911L32.8293 9.82896L31.9894 11.6893C31.798 12.1036 31.2023 12.1036 31.0109 11.6893L30.1711 9.81821L28.3107 8.97837C27.8965 8.78694 27.8964 8.202 28.3107 8.0106L30.1818 7.17075L31.0216 5.3104Z" fill="black"/>
<path d="M6.31656 0.444191C6.58991 -0.148064 7.42505 -0.148064 7.6984 0.444191L8.89859 3.11704L11.5558 4.31626C12.1481 4.58961 12.1481 5.42475 11.5558 5.6981L8.89859 6.89829L7.6984 9.55552C7.42505 10.1478 6.57526 10.1478 6.30192 9.55552L5.10172 6.88267L2.44449 5.68345C1.85224 5.4101 1.85224 4.57496 2.44449 4.30161L5.11734 3.10142L6.31656 0.444191Z" fill="black"/>
</svg>
