<svg width="24" height="24" viewBox="0 0 24 24" fill="none" xmlns="http://www.w3.org/2000/svg">
<path d="M9.59961 11.7997C10.1515 11.7997 10.5995 12.2478 10.5996 12.7997C10.5996 13.3517 10.1516 13.7997 9.59961 13.7997C9.04779 13.7995 8.59961 13.3516 8.59961 12.7997C8.59972 12.2479 9.04785 11.7999 9.59961 11.7997Z" fill="black"/>
<path d="M14.4004 11.7997C14.9521 11.7999 15.4003 12.2479 15.4004 12.7997C15.4004 13.3516 14.9522 13.7995 14.4004 13.7997C13.8484 13.7997 13.4004 13.3517 13.4004 12.7997C13.4005 12.2478 13.8485 11.7997 14.4004 11.7997Z" fill="black"/>
<path fill-rule="evenodd" clip-rule="evenodd" d="M10.417 3.79874C14.1444 1.95544 16.6122 3.66459 17.9707 5.28018C18.735 6.20867 19.2082 7.35251 19.3281 8.56143C19.3392 8.66417 19.3538 8.771 19.3682 8.88175C19.7104 9.6889 19.9216 10.5637 19.9805 11.4804C20.278 12.272 20.6962 13.0179 21.2822 13.5526C23.3049 15.3967 23.99 16.7833 24 16.8036L23.3193 17.4999C23.3193 16.1106 22.4201 15.8753 22.415 15.8739L22.6406 17.4999C20.1399 19.6836 16.3903 20.1578 12.8311 19.9569C12.5579 19.9852 12.2806 19.9999 12 19.9999C11.1 19.9999 10.2353 19.8486 9.42773 19.5741C5.77537 18.9785 2.94779 17.9675 2.9375 17.9638L3.39062 13.7841C2.25979 14.2488 1.80664 17.4999 1.80664 17.4999L0 17.0419C0 17.0419 3.1693 11.9357 5.20801 7.28702C7.24672 2.63859 10.417 3.79874 10.417 3.79874ZM10.1924 7.44815C9.36178 9.47319 7.71655 11.0659 5.66895 11.8593C5.64276 12.037 5.62453 12.2171 5.61328 12.3993C5.8203 15.7421 8.60615 18.4003 12 18.4003C15.3915 18.4003 18.1753 15.7457 18.3857 12.4062C18.3396 11.6464 18.1614 10.923 17.873 10.2577C17.3959 10.3459 16.9069 10.4003 16.4004 10.4003C14.0527 10.4003 11.9439 9.38718 10.4766 7.77726L10.1924 7.44815Z" fill="black"/>
</svg>
