<svg width="24" height="24" viewBox="0 0 24 24" fill="none" xmlns="http://www.w3.org/2000/svg">
<path d="M5.00056 5.00011C5.00056 4.7349 5.10592 4.48054 5.29345 4.29301C5.48099 4.10547 5.73534 4.00011 6.00056 4.00011C6.26578 4.00011 6.52013 4.10547 6.70767 4.29301C6.8952 4.48054 7.00056 4.7349 7.00056 5.00011C7.00056 5.26533 6.8952 5.51968 6.70767 5.70722C6.52013 5.89476 6.26578 6.00011 6.00056 6.00011C5.73534 6.00011 5.48099 5.89476 5.29345 5.70722C5.10592 5.51968 5.00056 5.26533 5.00056 5.00011ZM18.0006 9.00011C18.0006 8.7349 18.1059 8.48054 18.2935 8.29301C18.481 8.10547 18.7353 8.00011 19.0006 8.00011C19.2658 8.00011 19.5201 8.10547 19.7077 8.29301C19.8952 8.48054 20.0006 8.7349 20.0006 9.00011C20.0006 9.26533 19.8952 9.51968 19.7077 9.70722C19.5201 9.89476 19.2658 10.0001 19.0006 10.0001C18.7353 10.0001 18.481 9.89476 18.2935 9.70722C18.1059 9.51968 18.0006 9.26533 18.0006 9.00011ZM19.0006 17.0001C19.2658 17.0001 19.5201 17.1055 19.7077 17.293C19.8952 17.4805 20.0006 17.7349 20.0006 18.0001C20.0006 18.2653 19.8952 18.5197 19.7077 18.7072C19.5201 18.8948 19.2658 19.0001 19.0006 19.0001C18.7353 19.0001 18.481 18.8948 18.2935 18.7072C18.1059 18.5197 18.0006 18.2653 18.0006 18.0001C18.0006 17.7349 18.1059 17.4805 18.2935 17.293C18.481 17.1055 18.7353 17.0001 19.0006 17.0001ZM9.21931 8.78136C8.92556 8.48761 8.92556 8.01261 9.21931 7.72199L9.47869 7.46261C10.0006 6.94074 10.3287 6.25636 10.4099 5.52199L10.5037 4.66574C10.5506 4.25636 10.9224 3.95949 11.3349 4.00324C11.7474 4.04699 12.0443 4.41886 11.9974 4.83136L11.9037 5.68761C11.7849 6.75949 11.3037 7.75949 10.5412 8.52199L10.2818 8.78136C9.98806 9.07511 9.51306 9.07511 9.22244 8.78136H9.21931ZM15.2193 13.7189L15.4756 13.4595C16.2381 12.697 17.2381 12.2157 18.3099 12.097L19.1662 12.0032C19.5787 11.9564 19.9474 12.2532 19.9943 12.6657C20.0412 13.0782 19.7443 13.447 19.3318 13.4939L18.4756 13.5876C17.7412 13.6689 17.0568 13.997 16.5349 14.5189L16.2818 14.7814C15.9881 15.0751 15.5131 15.0751 15.2224 14.7814C14.9318 14.4876 14.9287 14.0126 15.2224 13.722L15.2193 13.7189ZM19.8224 4.26574C20.0912 4.58136 20.0506 5.05636 19.7349 5.32199L19.4224 5.58761C18.9599 5.97824 18.3693 6.18449 17.7662 6.16886C17.2474 6.15636 16.8099 6.55636 16.7787 7.07511L16.7224 8.01261C16.6443 9.34074 15.5256 10.3657 14.1974 10.3314C13.9599 10.3251 13.7287 10.4064 13.5506 10.5595L13.2381 10.8251C12.9224 11.0939 12.4474 11.0532 12.1818 10.7376C11.9162 10.422 11.9537 9.94699 12.2693 9.68136L12.5818 9.41574C13.0443 9.02511 13.6349 8.81886 14.2381 8.83449C14.7568 8.84699 15.1943 8.44699 15.2256 7.92824L15.2818 6.99074C15.3599 5.66261 16.4787 4.63761 17.8068 4.67199C18.0443 4.67824 18.2756 4.59699 18.4537 4.44386L18.7662 4.17824C19.0818 3.90949 19.5568 3.95011 19.8224 4.26574ZM8.70681 10.2939L13.7068 15.2939C13.9474 15.5345 14.0474 15.8814 13.9756 16.2126C13.9037 16.5439 13.6662 16.8189 13.3506 16.9376L12.1099 17.4032L6.59744 11.8907L7.06306 10.6501C7.18181 10.3314 7.45681 10.097 7.78806 10.0251C8.11931 9.95324 8.46619 10.0564 8.70681 10.2939ZM5.50681 14.8001L6.21306 12.9189L11.0818 17.7876L9.20056 18.4939L5.50681 14.8001ZM5.12244 15.8282L8.17244 18.8782L5.35056 19.9376C4.98494 20.0751 4.56931 19.9845 4.29119 19.7095C4.01306 19.4345 3.92556 19.0157 4.06306 18.6501L5.11931 15.8282H5.12244Z" fill="black"/>
</svg>
