<svg width="24" height="24" viewBox="0 0 24 24" fill="none" xmlns="http://www.w3.org/2000/svg">
<path d="M16.4999 20C14.5999 20 12.9999 18.4 12.9999 16.5C12.9999 14.6 14.5999 13 16.4999 13C18.3999 13 19.9999 14.6 19.9999 16.5C19.9999 18.4 18.3999 20 16.4999 20ZM4.8999 20C4.6999 20 4.3999 20 4.1999 19.7C3.9999 19.5 3.8999 19.3 3.8999 19C3.8999 18.7 3.8999 18.5 4.1999 18.3L18.2999 4.20002C18.6999 3.80002 19.2999 3.80002 19.5999 4.20002C19.7999 4.40002 19.8999 4.60002 19.8999 4.90002C19.8999 5.20002 19.8999 5.40002 19.5999 5.60002L5.4999 19.7C5.2999 19.9 5.0999 20 4.7999 20H4.8999ZM16.4999 14.9C15.5999 14.9 14.8999 15.6 14.8999 16.5C14.8999 17.4 15.5999 18.1 16.4999 18.1C17.3999 18.1 18.0999 17.4 18.0999 16.5C18.0999 15.6 17.3999 14.9 16.4999 14.9ZM7.4999 11C5.5999 11 3.9999 9.40002 3.9999 7.50002C3.9999 5.60002 5.5999 4.00002 7.4999 4.00002C9.3999 4.00002 10.9999 5.60002 10.9999 7.50002C10.9999 9.40002 9.3999 11 7.4999 11ZM7.4999 5.90002C6.5999 5.90002 5.8999 6.60002 5.8999 7.50002C5.8999 8.40002 6.5999 9.10003 7.4999 9.10003C8.3999 9.10003 9.0999 8.40002 9.0999 7.50002C9.0999 6.60002 8.3999 5.90002 7.4999 5.90002Z" fill="black"/>
</svg>
