<svg width="24" height="24" viewBox="0 0 24 24" fill="none" xmlns="http://www.w3.org/2000/svg">
<path d="M12.0446 5.89342C13.1173 5.89342 13.9886 5.02208 13.9886 3.94939C13.9886 2.87671 13.1173 2.00537 12.0446 2.00537C10.9719 2.00537 10.1006 2.87671 10.1006 3.94939C10.1006 5.02208 10.9719 5.89342 12.0446 5.89342ZM9.03829 11.0277L9.82284 10.2432V12.6489C9.82284 13.6209 10.2464 14.5478 10.9858 15.1796L13.4644 17.3041C13.6692 17.4812 13.8046 17.7242 13.8428 17.9915L14.2802 21.0499C14.367 21.6574 14.9294 22.0809 15.5369 21.9941C16.1444 21.9073 16.5679 21.3449 16.4811 20.7374L16.0437 17.6791C15.9292 16.8771 15.5265 16.1481 14.912 15.6205L13.7144 14.5929V10.5938L13.8463 10.7569C14.4781 11.5484 15.4362 12.0067 16.4499 12.0067H17.6024C18.2169 12.0067 18.7133 11.5103 18.7133 10.8958C18.7133 10.2814 18.2169 9.78493 17.6024 9.78493H16.4499C16.1131 9.78493 15.7938 9.63219 15.582 9.36836L14.9606 8.59075C14.1622 7.59097 12.9506 7.00776 11.6697 7.00776C10.5519 7.00776 9.47917 7.45211 8.69115 8.2436L7.46572 9.45514C6.84085 10.08 6.49023 10.927 6.49023 11.8123V13.1141C6.49023 13.7285 6.98665 14.2249 7.6011 14.2249C8.21555 14.2249 8.71197 13.7285 8.71197 13.1141V11.8123C8.71197 11.5172 8.83 11.236 9.03829 11.0277ZM9.46876 17.2555C9.41668 17.4361 9.31948 17.6027 9.18757 17.7346L6.81655 20.1056C6.38262 20.5395 6.38262 21.2443 6.81655 21.6782C7.25049 22.1121 7.95519 22.1121 8.38913 21.6782L10.7601 19.3072C11.1594 18.908 11.451 18.4115 11.6072 17.8665L11.6836 17.6027L10.0867 16.2349C9.99989 16.1586 9.9131 16.0822 9.82979 15.9989L9.46876 17.2555Z" fill="black"/>
</svg>
