<svg width="24" height="24" viewBox="0 0 24 24" fill="none" xmlns="http://www.w3.org/2000/svg">
<path d="M22.5916 0.386963C22.8447 0.386963 23.0885 0.480713 23.2666 0.668213C23.651 1.06196 23.651 1.69009 23.2666 2.07446L2.83842 22.8494C2.65093 23.0275 2.4166 23.1307 2.16349 23.1307C1.91037 23.1307 1.6666 23.0369 1.48847 22.8494C1.10411 22.4557 1.1041 21.8275 1.48847 21.4432L21.9165 0.668213C22.104 0.490092 22.3384 0.386968 22.5916 0.386963Z" fill="black"/>
<path d="M14.801 12.8088C15.4291 13.5588 16.001 14.2526 16.6572 15.0307C17.9135 16.3151 19.4697 17.7401 19.1697 19.737C18.8978 20.7214 18.1947 21.7244 16.9291 22.0057C16.226 22.1463 13.9853 21.5745 11.5947 21.5745H11.4165C9.02594 21.5745 6.78536 22.1557 6.08222 22.0057V21.9963C5.99785 21.9776 5.91345 21.9588 5.82908 21.9307L14.801 12.8088Z" fill="black"/>
<path d="M19.9009 7.63382C20.6415 8.04632 21.1479 8.43073 21.1479 9.78073C21.1478 11.1307 20.0697 12.2276 18.7385 12.2276V12.2369C17.8291 12.2369 17.0416 11.7213 16.6291 10.9619L19.9009 7.63382Z" fill="black"/>
<path d="M4.29154 7.33389C5.62219 7.33389 6.70092 8.42938 6.70094 9.78073C6.70094 11.1321 5.6222 12.2277 4.29154 12.2277C2.96089 12.2276 1.88224 11.1321 1.88224 9.78073C1.88226 8.42939 2.96091 7.33391 4.29154 7.33389Z" fill="black"/>
<path d="M8.62281 3.41507C9.95346 3.41507 11.0322 4.51055 11.0322 5.86191C11.0322 7.21328 9.95347 8.30884 8.62281 8.30884C7.29215 8.30884 6.21342 7.21328 6.21342 5.86191C6.21344 4.51055 7.29216 3.41507 8.62281 3.41507Z" fill="black"/>
<path d="M14.4072 3.40573C15.1478 3.40574 15.8135 3.75265 16.2541 4.28702L12.8603 7.737C12.3353 7.287 11.9978 7.21198 11.9978 5.862C11.9978 4.512 13.076 3.41507 14.4072 3.41507V3.40573Z" fill="black"/>
</svg>
