<svg width="24" height="24" viewBox="0 0 24 24" fill="none" xmlns="http://www.w3.org/2000/svg">
<path d="M20.6917 2H12.8782C12.1827 2 11.61 2.57272 11.61 3.26817V9.13858C11.61 9.83403 12.1827 10.4068 12.8782 10.4068H13.5122V12.2272C13.5122 12.7795 14.1872 13.0454 14.5759 12.6567L16.8463 10.3863H20.7326C21.4281 10.3863 22.0008 9.81358 22.0008 9.11813V3.24772C21.9599 2.55227 21.3872 2 20.6917 2Z" fill="black"/>
<path d="M17.8134 18.0919L15.3793 16.1692C14.868 15.7805 14.152 15.8419 13.743 16.3328C13.3134 16.8441 13.0066 17.1714 12.9248 17.2532C12.1884 17.9896 10.6339 16.9055 9.01799 15.2896C7.4021 13.6737 6.29756 12.1192 7.05437 11.3828C7.13619 11.301 7.48391 10.9942 7.97482 10.5646C8.46572 10.1556 8.52709 9.4192 8.13845 8.92829L6.19529 6.45331C5.86802 6.02377 5.27484 5.88059 4.78393 6.10559C4.12939 6.39195 2.94304 7.37376 2.61577 7.68057C0.856688 9.43965 3.04531 13.4896 6.91119 17.3555C10.7771 21.2214 14.827 23.41 16.5861 21.6509C16.8929 21.3441 17.8748 20.1578 18.1611 19.4828C18.3861 18.9919 18.2429 18.4191 17.8134 18.0919Z" fill="black"/>
</svg>
