<svg width="24" height="24" viewBox="0 0 24 24" fill="none" xmlns="http://www.w3.org/2000/svg">
<path d="M19.23 15.2599L16.69 14.9699C16.08 14.8999 15.48 15.1099 15.05 15.5399L13.21 17.3799C10.38 15.9399 8.06004 13.6299 6.62004 10.7899L8.47004 8.93995C8.90004 8.50995 9.11004 7.90995 9.04004 7.29995L8.75004 4.77995C8.63004 3.76995 7.78004 3.00995 6.76004 3.00995H5.03004C3.90004 3.00995 2.96004 3.94995 3.03004 5.07995C3.56004 13.6199 10.39 20.4399 18.92 20.9699C20.05 21.0399 20.99 20.0999 20.99 18.9699V17.2399C21 16.2299 20.24 15.3799 19.23 15.2599Z" fill="black"/>
</svg>
