<svg width="24" height="24" viewBox="0 0 24 24" fill="none" xmlns="http://www.w3.org/2000/svg">
<path d="M8.86816 6.39844L8.56348 7.3125H6.375C5.34082 7.3125 4.5 8.15332 4.5 9.1875V16.6875C4.5 17.7217 5.34082 18.5625 6.375 18.5625H17.625C18.6592 18.5625 19.5 17.7217 19.5 16.6875V9.1875C19.5 8.15332 18.6592 7.3125 17.625 7.3125H15.4365L15.1318 6.39844C14.9414 5.82422 14.4053 5.4375 13.7988 5.4375H10.2012C9.59473 5.4375 9.05859 5.82422 8.86816 6.39844ZM12 10.125C12.7459 10.125 13.4613 10.4213 13.9887 10.9488C14.5162 11.4762 14.8125 12.1916 14.8125 12.9375C14.8125 13.6834 14.5162 14.3988 13.9887 14.9262C13.4613 15.4537 12.7459 15.75 12 15.75C11.2541 15.75 10.5387 15.4537 10.0113 14.9262C9.48382 14.3988 9.1875 13.6834 9.1875 12.9375C9.1875 12.1916 9.48382 11.4762 10.0113 10.9488C10.5387 10.4213 11.2541 10.125 12 10.125Z" fill="black"/>
</svg>
