<svg width="24" height="24" viewBox="0 0 24 24" fill="none" xmlns="http://www.w3.org/2000/svg">
<path d="M12 0.941223C7.275 0.941223 3 4.56372 3 10.1662C3 13.7437 5.75625 17.9512 11.2575 22.7887C11.6625 23.1487 12.3488 23.1487 12.7537 22.7887C18.2438 17.9512 21 13.7437 21 10.1662C21 4.56372 16.725 0.941223 12 0.941223ZM7.15125 12.7425C8.49 11.6962 10.1663 11.0662 12 11.0662C13.8337 11.0662 15.51 11.6962 16.8487 12.7425C15.8812 14.4187 14.0813 15.5662 12 15.5662C9.91875 15.5662 8.11875 14.4187 7.15125 12.7425ZM12 5.44122C13.2375 5.44122 14.25 6.45372 14.25 7.69122C14.25 8.92872 13.2375 9.94122 12 9.94122C10.7625 9.94122 9.75 8.92872 9.75 7.69122C9.75 6.45372 10.7625 5.44122 12 5.44122Z" fill="black"/>
</svg>
