<svg width="24" height="24" viewBox="0 0 24 24" fill="none" xmlns="http://www.w3.org/2000/svg">
<path d="M4 12.1507C4.04238 9.83749 4.85901 7.90575 6.45152 6.35709C8.04403 4.80844 9.94298 4.02107 12.15 3.99988C14.5265 4.04226 16.4744 4.85408 17.9919 6.43534C19.5094 8.0166 20.2788 9.92226 20.3 12.1507C20.2576 14.4427 19.441 16.3696 17.8485 17.9296C16.256 19.4881 14.357 20.2787 12.15 20.2999C11.3855 20.2999 10.6227 20.1825 9.85822 19.9494C10.0065 19.7163 10.1549 19.4506 10.3032 19.1539C10.4727 18.7936 10.6846 18.1138 10.9405 17.1162C11.0041 16.8407 11.1003 16.469 11.2274 16.0011C11.3757 16.2554 11.63 16.4886 11.9919 16.7021C12.9471 17.1471 13.9544 17.1048 15.0155 16.575C16.119 15.9376 16.8835 14.9513 17.3073 13.6146C17.6887 12.2143 17.6415 10.9134 17.1639 9.71523C16.6863 8.51543 15.8322 7.65144 14.6015 7.12001C13.053 6.67498 11.5453 6.72225 10.0815 7.26346C8.61779 7.80468 7.59904 8.73387 7.02528 10.0494C6.87695 10.5368 6.7873 11.021 6.7547 11.4986C6.7221 11.9763 6.7384 12.4425 6.80197 12.8989C6.86554 13.3554 7.02528 13.7646 7.27956 14.1248C7.53384 14.4851 7.87451 14.7622 8.29831 14.9529C8.40426 14.9953 8.48902 14.9953 8.55259 14.9529C8.63735 14.9106 8.72211 14.741 8.80687 14.4443C8.89163 14.1476 8.92423 13.9455 8.90304 13.8395C8.88185 13.7972 8.83947 13.7222 8.7759 13.6162C8.33091 12.894 8.18095 12.136 8.33091 11.3405C8.47924 10.545 8.8085 9.87009 9.31706 9.3191C10.1027 8.61813 11.0204 8.23667 12.0701 8.1731C13.1198 8.10952 14.018 8.39643 14.7596 9.03219C15.1622 9.49842 15.423 10.0608 15.5388 10.7194C15.6545 11.378 15.6561 12.0089 15.5388 12.6137C15.4214 13.2184 15.2144 13.7857 14.9177 14.3172C14.3864 15.1453 13.7604 15.5691 13.04 15.5903C12.6162 15.5691 12.2706 15.4045 12.0049 15.0964C11.7392 14.7883 11.6594 14.4329 11.7669 14.0303C11.8093 13.7972 11.9365 13.3407 12.1484 12.6609C12.3603 11.9812 12.4776 11.4725 12.4988 11.1335C12.4352 10.3265 12.0636 9.91248 11.3839 9.89129C10.8525 9.95486 10.4613 10.1945 10.2054 10.6069C9.9495 11.0194 9.81258 11.4937 9.79139 12.0235C9.85496 12.6397 9.95113 13.0636 10.0783 13.2967C9.84518 14.252 9.66425 15.0165 9.53711 15.5887C9.49473 15.7371 9.37737 16.1935 9.18666 16.958C8.99595 17.7226 8.89 18.3062 8.86881 18.7088V19.6005C7.36269 18.8996 6.17279 17.8872 5.304 16.5603C4.43521 15.2333 4 13.7629 4 12.1507Z" fill="black"/>
</svg>
