<svg width="24" height="24" viewBox="0 0 24 24" fill="none" xmlns="http://www.w3.org/2000/svg">
<path d="M13.9837 12.0112C14.8912 12.105 15.5999 12.87 15.5999 13.8037V15.6037H18.5999L18.7837 15.6112C19.6912 15.705 20.3999 16.47 20.3999 17.4037V19.8037L20.3924 19.9875C20.3062 20.835 19.6312 21.51 18.7874 21.5925L18.6037 21.6H4.80366C3.80991 21.6 3.00366 20.7937 3.00366 19.8V16.2C3.00366 15.2062 3.80991 14.4 4.80366 14.4H8.40366V13.8C8.40366 12.8662 9.11241 12.1012 10.0199 12.0075L10.2037 12H13.8037L13.9874 12.0075L13.9837 12.0112ZM4.79991 19.8H8.39991V16.2H4.79991V19.8ZM10.1999 19.8H13.7999V13.8H10.1999V19.8ZM15.5999 19.8H18.5999V17.4H15.5999V19.8ZM11.6174 2.63623C11.7787 2.31373 12.2362 2.32498 12.3824 2.63623L13.2674 4.42498L15.2287 4.70998C15.5774 4.76248 15.7237 5.19373 15.4687 5.45248L14.0474 6.82873L14.3812 8.78248C14.4337 9.13123 14.0699 9.40123 13.7512 9.23998L12.0074 8.32498L10.2487 9.25498C9.92616 9.41623 9.56241 9.14623 9.61866 8.79748L9.95241 6.84373L8.53116 5.45623C8.27616 5.20123 8.42241 4.76998 8.77116 4.71373L10.7324 4.42873L11.6174 2.63998V2.63623Z" fill="black"/>
</svg>
