<svg width="24" height="24" viewBox="0 0 24 24" fill="none" xmlns="http://www.w3.org/2000/svg">
<path d="M7.05014 9.29959C7.64697 9.29959 8.21936 9.0625 8.64138 8.64048C9.0634 8.21846 9.30049 7.64607 9.30049 7.04924C9.30049 6.45241 9.0634 5.88002 8.64138 5.458C8.21936 5.03598 7.64697 4.79889 7.05014 4.79889C6.45331 4.79889 5.88093 5.03598 5.4589 5.458C5.03688 5.88002 4.79979 6.45241 4.79979 7.04924C4.79979 7.64607 5.03688 8.21846 5.4589 8.64048C5.88093 9.0625 6.45331 9.29959 7.05014 9.29959ZM17.4018 9.29959C17.9986 9.29959 18.571 9.0625 18.993 8.64048C19.415 8.21846 19.6521 7.64607 19.6521 7.04924C19.6521 6.45241 19.415 5.88002 18.993 5.458C18.571 5.03598 17.9986 4.79889 17.4018 4.79889C16.8049 4.79889 16.2325 5.03598 15.8105 5.458C15.3885 5.88002 15.1514 6.45241 15.1514 7.04924C15.1514 7.64607 15.3885 8.21846 15.8105 8.64048C16.2325 9.0625 16.8049 9.29959 17.4018 9.29959ZM2.99951 13.2011C2.99951 13.5303 3.26955 13.8003 3.59867 13.8003H9.59867C9.60429 13.8003 9.60992 13.8003 9.61836 13.8003C8.87011 13.1393 8.40035 12.1744 8.40035 11.0999C8.40035 10.8861 8.42004 10.6779 8.4538 10.4726C8.07124 10.2954 7.64649 10.1997 7.19923 10.1997H5.9981C4.3441 10.1997 2.99951 11.5443 2.99951 13.2011ZM14.4004 13.8003H20.4003C20.7323 13.8003 20.9995 13.5303 20.9995 13.2011C21.0023 11.5443 19.6577 10.1997 18.0009 10.1997H16.7998C16.3525 10.1997 15.9278 10.2982 15.5452 10.4726C15.5818 10.6751 15.5987 10.8861 15.5987 11.0999C15.5987 12.1744 15.1261 13.1393 14.3807 13.8003C14.3863 13.8003 14.3919 13.8003 14.4004 13.8003ZM12.0009 9.74966C12.1782 9.74966 12.3538 9.78458 12.5176 9.85244C12.6814 9.92029 12.8303 10.0197 12.9557 10.1451C13.081 10.2705 13.1805 10.4194 13.2483 10.5832C13.3162 10.747 13.3511 10.9226 13.3511 11.0999C13.3511 11.2772 13.3162 11.4528 13.2483 11.6166C13.1805 11.7804 13.081 11.9292 12.9557 12.0546C12.8303 12.18 12.6814 12.2794 12.5176 12.3473C12.3538 12.4152 12.1782 12.4501 12.0009 12.4501C11.8236 12.4501 11.648 12.4152 11.4842 12.3473C11.3204 12.2794 11.1716 12.18 11.0462 12.0546C10.9208 11.9292 10.8213 11.7804 10.7535 11.6166C10.6856 11.4528 10.6507 11.2772 10.6507 11.0999C10.6507 10.9226 10.6856 10.747 10.7535 10.5832C10.8213 10.4194 10.9208 10.2705 11.0462 10.1451C11.1716 10.0197 11.3204 9.92029 11.4842 9.85244C11.648 9.78458 11.8236 9.74966 12.0009 9.74966ZM12.0009 13.8003C12.3555 13.8003 12.7067 13.7304 13.0343 13.5947C13.362 13.459 13.6596 13.2601 13.9104 13.0094C14.1612 12.7586 14.3601 12.4609 14.4958 12.1333C14.6315 11.8056 14.7013 11.4545 14.7013 11.0999C14.7013 10.7452 14.6315 10.3941 14.4958 10.0665C14.3601 9.73883 14.1612 9.44114 13.9104 9.19039C13.6596 8.93963 13.362 8.74072 13.0343 8.60501C12.7067 8.4693 12.3555 8.39945 12.0009 8.39945C11.6463 8.39945 11.2951 8.4693 10.9675 8.60501C10.6399 8.74072 10.3422 8.93963 10.0914 9.19039C9.84067 9.44114 9.64176 9.73883 9.50605 10.0665C9.37034 10.3941 9.30049 10.7452 9.30049 11.0999C9.30049 11.4545 9.37034 11.8056 9.50605 12.1333C9.64176 12.4609 9.84067 12.7586 10.0914 13.0094C10.3422 13.2601 10.6399 13.459 10.9675 13.5947C11.2951 13.7304 11.6463 13.8003 12.0009 13.8003ZM10.3497 16.0506H13.6493C14.7688 16.0506 15.7084 16.8158 15.9728 17.8509H8.02342C8.29065 16.8158 9.23017 16.0506 10.3469 16.0506H10.3497ZM10.3497 14.7004C8.2794 14.7004 6.60007 16.3798 6.60007 18.4501C6.60007 18.8636 6.93481 19.2011 7.35113 19.2011H16.6535C17.067 19.2011 17.4046 18.8664 17.4046 18.4501C17.4018 16.3798 15.7224 14.7004 13.6521 14.7004H10.3525H10.3497Z" fill="black"/>
</svg>
