<svg width="24" height="24" viewBox="0 0 24 24" fill="none" xmlns="http://www.w3.org/2000/svg">
<path d="M20.0474 6.84739C20.5162 6.37864 20.5162 5.61739 20.0474 5.14864L17.6474 2.74864C17.3024 2.40364 16.7887 2.30239 16.3387 2.48989C15.8887 2.67739 15.5999 3.11614 15.5999 3.59989V4.79989H9.5999C5.6249 4.79989 2.3999 8.02489 2.3999 11.9999C2.3999 12.6636 2.93615 13.1999 3.5999 13.1999C4.26365 13.1999 4.7999 12.6636 4.7999 11.9999C4.7999 9.34864 6.94865 7.19989 9.5999 7.19989H15.5999V8.39989C15.5999 8.88364 15.8924 9.32239 16.3424 9.50989C16.7924 9.69739 17.3062 9.59239 17.6512 9.25114L20.0512 6.85114L20.0474 6.84739ZM3.9524 17.1524C3.48365 17.6211 3.48365 18.3824 3.9524 18.8511L6.3524 21.2511C6.6974 21.5961 7.21115 21.6974 7.66115 21.5099C8.11115 21.3224 8.3999 20.8836 8.3999 20.3999V19.1999H14.3999C18.3749 19.1999 21.5999 15.9749 21.5999 11.9999C21.5999 11.3361 21.0637 10.7999 20.3999 10.7999C19.7362 10.7999 19.1999 11.3361 19.1999 11.9999C19.1999 14.6511 17.0512 16.7999 14.3999 16.7999H8.3999V15.5999C8.3999 15.1161 8.1074 14.6774 7.6574 14.4899C7.2074 14.3024 6.69365 14.4074 6.34865 14.7486L3.94865 17.1486L3.9524 17.1524Z" fill="black"/>
</svg>
