<svg width="24" height="24" viewBox="0 0 24 24" fill="none" xmlns="http://www.w3.org/2000/svg">
<path d="M14.4 13.7996C15.0637 13.7996 15.6 14.3359 15.6 14.9996C15.6 15.6634 15.0637 16.1996 14.4 16.1996H11.7C11.2012 16.1996 10.8 16.6009 10.8 17.0996C10.8 17.5984 11.2012 17.9996 11.7 17.9996H15.9225L20.4112 14.6921L20.5387 14.6059C21.195 14.2196 22.0462 14.3846 22.5075 15.0071C22.9687 15.6296 22.8712 16.4959 22.3087 17.0059L22.1887 17.1034L17.4412 20.6021C16.5637 21.2471 15.5025 21.5959 14.415 21.5959H2.39995L2.2762 21.5884C1.67245 21.5321 1.19995 21.0221 1.19995 20.3996V17.9996C1.19995 17.3359 1.7362 16.7996 2.39995 16.7996H3.70495L5.2987 15.2059L5.4712 15.0409C6.35245 14.2421 7.49995 13.7996 8.69245 13.7996H14.4ZM11.4 0.599609C11.7375 0.599609 12.0487 0.790859 12.2025 1.09086L13.5225 3.67836L16.3912 4.13586C16.725 4.18836 16.9987 4.42461 17.1037 4.74711C17.1937 5.02836 17.1412 5.33586 16.9687 5.56461L16.8862 5.65836L14.8312 7.71336L15.285 10.5859C15.3375 10.9196 15.1987 11.2571 14.925 11.4559C14.685 11.6284 14.3775 11.6734 14.1037 11.5796L13.9875 11.5309L11.3962 10.2109L8.80495 11.5309C8.50495 11.6846 8.1412 11.6546 7.86745 11.4559C7.5937 11.2571 7.45495 10.9234 7.50745 10.5859L7.9612 7.71336L5.90995 5.65836C5.66995 5.41836 5.58745 5.06586 5.69245 4.74336C5.79745 4.42086 6.0712 4.18461 6.40495 4.13211L9.2737 3.67461L10.5937 1.08711L10.6575 0.978359C10.83 0.745859 11.1037 0.599609 11.4 0.599609Z" fill="black"/>
</svg>
