<svg width="24" height="24" viewBox="0 0 24 24" fill="none" xmlns="http://www.w3.org/2000/svg">
<path d="M13.2 13.1996C14.5237 13.1996 15.6 14.2759 15.6 15.5996C15.6 15.8059 15.57 16.0084 15.5212 16.1996H15.9225L18.5437 14.4034L18.7837 14.2571C20.01 13.5934 21.57 14.0021 22.3049 15.2246L22.4287 15.4534C22.9424 16.5409 22.6574 17.8421 21.7349 18.6109L21.5287 18.7684L18.525 20.8159C17.7787 21.3259 16.8937 21.5959 15.99 21.5959L2.09995 21.5996C1.6012 21.5996 1.19995 21.1984 1.19995 20.6996C1.19995 20.2009 1.6012 19.7996 2.09995 19.7996H15.99C16.5337 19.7996 17.0625 19.6346 17.5124 19.3309L20.5162 17.2834L20.6437 17.1784C20.8724 16.9459 20.9475 16.6046 20.8387 16.3009L20.7675 16.1546C20.5312 15.7646 20.0362 15.6334 19.6425 15.8434L19.5637 15.8921L16.7137 17.8459C16.5637 17.9471 16.3875 18.0034 16.2037 18.0034H10.8037C10.305 18.0034 9.9037 17.6021 9.9037 17.1034C9.9037 16.6046 10.305 16.2034 10.8037 16.2034H13.2037C13.5337 16.2034 13.8037 15.9334 13.8037 15.6034C13.8037 15.2734 13.5337 15.0034 13.2037 15.0034H8.2312C7.93495 15.0034 7.6462 15.0896 7.3987 15.2546L4.3987 17.2496C4.25245 17.3471 4.0762 17.3996 3.89995 17.3996H2.09995C1.6012 17.3996 1.19995 16.9984 1.19995 16.4996C1.19995 16.0009 1.6012 15.5996 2.09995 15.5996H3.62995L6.39745 13.7546C6.93745 13.3909 7.57495 13.1996 8.22745 13.1996H13.2ZM11.4 0.599609C11.7375 0.599609 12.0487 0.790859 12.2025 1.09086L13.5225 3.67836L16.3912 4.13586C16.725 4.18836 16.9987 4.42461 17.1037 4.74711C17.1937 5.02836 17.1412 5.33211 16.9687 5.56461L16.8862 5.65836L14.8312 7.71336L15.285 10.5859C15.3375 10.9196 15.1987 11.2571 14.925 11.4559C14.685 11.6284 14.3775 11.6734 14.1037 11.5796L13.9875 11.5309L11.3962 10.2109L8.80495 11.5309C8.50495 11.6846 8.1412 11.6546 7.86745 11.4559C7.5937 11.2571 7.45495 10.9234 7.50745 10.5859L7.9612 7.71336L5.90995 5.65836C5.66995 5.41836 5.58745 5.06586 5.69245 4.74336C5.79745 4.42086 6.0712 4.18461 6.40495 4.13211L9.2737 3.67461L10.5937 1.08711L10.6575 0.978359C10.83 0.745859 11.1037 0.599609 11.4 0.599609ZM10.6725 4.90461C10.5562 5.12961 10.3575 5.29461 10.1174 5.36211L10.0125 5.38461L8.4337 5.63586L9.5662 6.76836C9.74245 6.94836 9.83995 7.18836 9.8287 7.43961L9.81745 7.54461L9.5662 9.12336L10.9912 8.39961L11.0887 8.35461C11.3212 8.26836 11.58 8.28336 11.8049 8.39961L13.2299 9.12336L12.9825 7.54461C12.9375 7.25961 13.0312 6.97086 13.2337 6.76836L14.3625 5.63586L12.7837 5.38461C12.4987 5.33961 12.255 5.15961 12.1237 4.90461L11.3962 3.47961L10.6687 4.90461H10.6725Z" fill="black"/>
</svg>
