<svg width="24" height="24" viewBox="0 0 24 24" fill="none" xmlns="http://www.w3.org/2000/svg">
<g clip-path="url(#clip0_1967_28349)">
<path d="M22.7951 11.3037L7.20666 2.30371C6.25403 1.75371 5.02461 2.08313 4.47461 3.03576L0.474609 9.96396C-0.0753908 10.9166 0.254032 12.146 1.20666 12.696L16.7951 21.696C17.7477 22.246 18.9772 21.9166 19.5272 20.964L23.5272 14.0358C24.0772 13.0831 23.7477 11.8537 22.7951 11.3037ZM16.9291 19.464L3.07269 11.464C2.59637 11.189 2.43166 10.5743 2.70666 10.0979L5.70666 4.90179C5.98166 4.42547 6.59637 4.26076 7.07269 4.53576L7.93871 5.03576L6.43871 7.63384C6.16371 8.11015 6.32842 8.72486 6.80474 8.99986C7.28105 9.27486 7.89576 9.11015 8.17076 8.63384L9.67076 6.03576L11.4028 7.03576L9.90281 9.63384C9.62781 10.1102 9.79252 10.7249 10.2688 10.9999C10.7452 11.2749 11.3599 11.1102 11.6349 10.6338L13.1349 8.03576L14.8669 9.03576L13.3669 11.6338C13.0919 12.1102 13.2566 12.7249 13.7329 12.9999C14.2093 13.2749 14.824 13.1102 15.099 12.6338L16.599 10.0358L18.331 11.0358L16.831 13.6338C16.556 14.1102 16.7207 14.7249 17.197 14.9999C17.6734 15.2749 18.2881 15.1102 18.5631 14.6338L20.0631 12.0358L20.9291 12.5358C21.4054 12.8108 21.5701 13.4255 21.2951 13.9018L18.2951 19.0979C18.0201 19.5743 17.4054 19.739 16.9291 19.464Z" fill="black"/>
</g>
<defs>
<clipPath id="clip0_1967_28349">
<rect width="24" height="24" fill="white"/>
</clipPath>
</defs>
</svg>
