<svg width="24" height="24" viewBox="0 0 24 24" fill="none" xmlns="http://www.w3.org/2000/svg">
<path d="M17.5 16.12C16.74 16.12 16.06 16.42 15.54 16.89L8.41 12.74C8.46 12.51 8.5 12.28 8.5 12.04C8.5 11.8 8.46 11.57 8.41 11.34L15.46 7.23004C16 7.73004 16.71 8.04004 17.5 8.04004C19.16 8.04004 20.5 6.70004 20.5 5.04004C20.5 3.38004 19.16 2.04004 17.5 2.04004C15.84 2.04004 14.5 3.38004 14.5 5.04004C14.5 5.28004 14.54 5.51004 14.59 5.74004L7.54 9.85004C7 9.35004 6.29 9.04004 5.5 9.04004C3.84 9.04004 2.5 10.38 2.5 12.04C2.5 13.7 3.84 15.04 5.5 15.04C6.29 15.04 7 14.73 7.54 14.23L14.66 18.39C14.61 18.6 14.58 18.82 14.58 19.04C14.58 20.65 15.89 21.96 17.5 21.96C19.11 21.96 20.42 20.65 20.42 19.04C20.42 17.43 19.11 16.12 17.5 16.12Z" fill="black"/>
</svg>
