<svg width="24" height="24" viewBox="0 0 24 24" fill="none" xmlns="http://www.w3.org/2000/svg">
<path d="M10.4688 14.5361C9.80666 12.4537 8.89345 10.4624 7.75133 8.60156C7.63564 8.42187 7.40427 8.35541 7.20981 8.44648C6.79628 8.5474 6.41722 8.74924 6.09969 9.03231C5.952 9.12339 5.90769 9.31784 5.99877 9.46553C6.01354 9.48768 6.03077 9.50984 6.05046 9.52953C7.25166 11.0901 8.2707 12.7811 9.09283 14.5706C8.62515 14.5485 8.15747 14.5854 7.69718 14.6814C7.1532 13.9183 6.64121 13.1848 6.04554 12.4414C5.35387 11.5775 4.36189 10.4993 4.23882 10.2089C3.91883 9.53199 3.97298 9.24154 4.09852 8.89201C5.19879 6.64715 9.73773 4.55491 14.1782 4.65337C14.7739 4.69275 15.281 5.09889 15.4508 5.66995C15.5714 6.49947 15.4237 8.0305 15.4237 8.8674C15.3819 10.3763 15.532 11.8827 15.8766 13.3522C16.5412 12.8476 17.2747 12.439 18.055 12.1436C18.4144 12.0353 18.791 12.0008 19.1651 12.0427C19.5196 12.1141 19.8076 12.3651 19.9282 12.7024C20.2507 13.4753 19.4728 15.3484 17.8803 15.4887C16.8637 15.6783 15.8176 15.6315 14.8207 15.3534C13.4078 14.9078 11.9457 14.6321 10.4663 14.5288L10.4688 14.5361ZM14.0084 16.5324C12.9623 16.5078 11.8251 17.0936 10.6411 17.9699C9.96665 18.413 9.45959 18.9348 8.21655 19.2695C7.62826 19.3803 7.02274 19.3754 6.43445 19.2622C6.02831 19.1859 5.67878 18.9299 5.48432 18.5656C5.30956 18.1963 5.28741 17.773 5.4154 17.3841C5.8117 16.4487 6.82582 16.0376 7.91871 15.853C10.1414 15.7127 12.0958 15.8235 14.0084 16.5349V16.5324Z" fill="black"/>
</svg>
