<svg width="24" height="24" viewBox="0 0 24 24" fill="none" xmlns="http://www.w3.org/2000/svg">
<path d="M8.575 13.0008C8.29167 13.0008 8.05417 12.9049 7.8625 12.7133C7.67083 12.5216 7.575 12.2841 7.575 12.0008V5.82578L5.7 7.70078C5.51667 7.88411 5.2875 7.97578 5.0125 7.97578C4.7375 7.97578 4.5 7.88411 4.3 7.70078C4.1 7.50078 4 7.26328 4 6.98828C4 6.71328 4.1 6.47578 4.3 6.27578L7.875 2.70078C7.975 2.60078 8.08333 2.52995 8.2 2.48828C8.31667 2.44661 8.44167 2.42578 8.575 2.42578C8.70833 2.42578 8.83333 2.44661 8.95 2.48828C9.06667 2.52995 9.175 2.60078 9.275 2.70078L12.875 6.30078C13.075 6.50078 13.1708 6.73411 13.1625 7.00078C13.1542 7.26745 13.05 7.50078 12.85 7.70078C12.65 7.88411 12.4167 7.97995 12.15 7.98828C11.8833 7.99661 11.65 7.90078 11.45 7.70078L9.575 5.82578V12.0008C9.575 12.2841 9.47917 12.5216 9.2875 12.7133C9.09583 12.9049 8.85833 13.0008 8.575 13.0008ZM14.575 21.5758C14.4417 21.5758 14.3167 21.5549 14.2 21.5133C14.0833 21.4716 13.975 21.4008 13.875 21.3008L10.275 17.7008C10.075 17.5008 9.97917 17.2674 9.9875 17.0008C9.99583 16.7341 10.1 16.5008 10.3 16.3008C10.5 16.1174 10.7333 16.0216 11 16.0133C11.2667 16.0049 11.5 16.1008 11.7 16.3008L13.575 18.1758V12.0008C13.575 11.7174 13.6708 11.4799 13.8625 11.2883C14.0542 11.0966 14.2917 11.0008 14.575 11.0008C14.8583 11.0008 15.0958 11.0966 15.2875 11.2883C15.4792 11.4799 15.575 11.7174 15.575 12.0008V18.1758L17.45 16.3008C17.6333 16.1174 17.8625 16.0258 18.1375 16.0258C18.4125 16.0258 18.65 16.1174 18.85 16.3008C19.05 16.5008 19.15 16.7383 19.15 17.0133C19.15 17.2883 19.05 17.5258 18.85 17.7258L15.275 21.3008C15.175 21.4008 15.0667 21.4716 14.95 21.5133C14.8333 21.5549 14.7083 21.5758 14.575 21.5758Z" fill="black"/>
</svg>
