<svg width="24" height="24" viewBox="0 0 24 24" fill="none" xmlns="http://www.w3.org/2000/svg">
<path d="M15.8814 4.39422C15.7127 4.45797 15.6002 4.61922 15.6002 4.79922C15.6002 4.97922 15.7127 5.14047 15.8814 5.20422L18.0002 5.99922L18.7952 8.11797C18.8589 8.28672 19.0202 8.39922 19.2002 8.39922C19.3802 8.39922 19.5414 8.28672 19.6052 8.11797L20.4002 5.99922L22.5189 5.20422C22.6877 5.14047 22.8002 4.97922 22.8002 4.79922C22.8002 4.61922 22.6877 4.45797 22.5189 4.39422L20.4002 3.59922L19.6052 1.48047C19.5414 1.31172 19.3802 1.19922 19.2002 1.19922C19.0202 1.19922 18.8589 1.31172 18.7952 1.48047L18.0002 3.59922L15.8814 4.39422ZM8.94395 5.14797C8.84645 4.93422 8.6327 4.79922 8.4002 4.79922C8.1677 4.79922 7.95395 4.93422 7.85645 5.14797L5.8652 9.46047L1.5527 11.4517C1.3352 11.553 1.2002 11.7667 1.2002 11.9992C1.2002 12.2317 1.3352 12.4455 1.54895 12.543L5.86145 14.5342L7.8527 18.8467C7.9502 19.0605 8.16395 19.1955 8.39645 19.1955C8.62895 19.1955 8.8427 19.0605 8.9402 18.8467L10.9314 14.5342L15.2439 12.543C15.4577 12.4455 15.5927 12.2317 15.5927 11.9992C15.5927 11.7667 15.4577 11.553 15.2439 11.4555L10.9314 9.46422L8.9402 5.15172L8.94395 5.14797ZM16.8002 17.9992L14.6814 18.7942C14.5127 18.858 14.4002 19.0192 14.4002 19.1992C14.4002 19.3792 14.5127 19.5405 14.6814 19.6042L16.8002 20.3992L17.5952 22.518C17.6589 22.6867 17.8202 22.7992 18.0002 22.7992C18.1802 22.7992 18.3414 22.6867 18.4052 22.518L19.2002 20.3992L21.3189 19.6042C21.4877 19.5405 21.6002 19.3792 21.6002 19.1992C21.6002 19.0192 21.4877 18.858 21.3189 18.7942L19.2002 17.9992L18.4052 15.8805C18.3414 15.7117 18.1802 15.5992 18.0002 15.5992C17.8202 15.5992 17.6589 15.7117 17.5952 15.8805L16.8002 17.9992Z" fill="black"/>
</svg>
