<svg width="24" height="24" viewBox="0 0 24 24" fill="none" xmlns="http://www.w3.org/2000/svg">
<path d="M6.0001 5.39998C5.6701 5.39998 5.4001 5.66998 5.4001 5.99998V18C5.4001 18.33 5.6701 18.6 6.0001 18.6H18.0001C18.3301 18.6 18.6001 18.33 18.6001 18V5.99998C18.6001 5.66998 18.3301 5.39998 18.0001 5.39998H6.0001ZM3.6001 5.99998C3.6001 4.67623 4.67635 3.59998 6.0001 3.59998H18.0001C19.3238 3.59998 20.4001 4.67623 20.4001 5.99998V18C20.4001 19.3237 19.3238 20.4 18.0001 20.4H6.0001C4.67635 20.4 3.6001 19.3237 3.6001 18V5.99998ZM11.1001 15.3V12.9H8.7001C8.20135 12.9 7.8001 12.4987 7.8001 12C7.8001 11.5012 8.20135 11.1 8.7001 11.1H11.1001V8.69998C11.1001 8.20123 11.5013 7.79998 12.0001 7.79998C12.4988 7.79998 12.9001 8.20123 12.9001 8.69998V11.1H15.3001C15.7988 11.1 16.2001 11.5012 16.2001 12C16.2001 12.4987 15.7988 12.9 15.3001 12.9H12.9001V15.3C12.9001 15.7987 12.4988 16.2 12.0001 16.2C11.5013 16.2 11.1001 15.7987 11.1001 15.3Z" fill="black"/>
</svg>
