<svg width="24" height="24" viewBox="0 0 24 24" fill="none" xmlns="http://www.w3.org/2000/svg">
<path d="M6.0001 5.39998C5.6701 5.39998 5.4001 5.66998 5.4001 5.99998V18C5.4001 18.33 5.6701 18.6 6.0001 18.6H18.0001C18.3301 18.6 18.6001 18.33 18.6001 18V5.99998C18.6001 5.66998 18.3301 5.39998 18.0001 5.39998H6.0001ZM3.6001 5.99998C3.6001 4.67623 4.67635 3.59998 6.0001 3.59998H18.0001C19.3238 3.59998 20.4001 4.67623 20.4001 5.99998V18C20.4001 19.3237 19.3238 20.4 18.0001 20.4H6.0001C4.67635 20.4 3.6001 19.3237 3.6001 18V5.99998ZM7.2001 8.39998C7.2001 7.73623 7.73635 7.19998 8.4001 7.19998C9.06385 7.19998 9.6001 7.73623 9.6001 8.39998C9.6001 9.06373 9.06385 9.59998 8.4001 9.59998C7.73635 9.59998 7.2001 9.06373 7.2001 8.39998ZM11.1001 8.39998C11.1001 7.90123 11.5013 7.49998 12.0001 7.49998H15.6001C16.0988 7.49998 16.5001 7.90123 16.5001 8.39998C16.5001 8.89873 16.0988 9.29998 15.6001 9.29998H12.0001C11.5013 9.29998 11.1001 8.89873 11.1001 8.39998ZM11.1001 12C11.1001 11.5012 11.5013 11.1 12.0001 11.1H15.6001C16.0988 11.1 16.5001 11.5012 16.5001 12C16.5001 12.4987 16.0988 12.9 15.6001 12.9H12.0001C11.5013 12.9 11.1001 12.4987 11.1001 12ZM11.1001 15.6C11.1001 15.1012 11.5013 14.7 12.0001 14.7H15.6001C16.0988 14.7 16.5001 15.1012 16.5001 15.6C16.5001 16.0987 16.0988 16.5 15.6001 16.5H12.0001C11.5013 16.5 11.1001 16.0987 11.1001 15.6ZM8.4001 13.2C7.73635 13.2 7.2001 12.6637 7.2001 12C7.2001 11.3362 7.73635 10.8 8.4001 10.8C9.06385 10.8 9.6001 11.3362 9.6001 12C9.6001 12.6637 9.06385 13.2 8.4001 13.2ZM7.2001 15.6C7.2001 14.9362 7.73635 14.4 8.4001 14.4C9.06385 14.4 9.6001 14.9362 9.6001 15.6C9.6001 16.2637 9.06385 16.8 8.4001 16.8C7.73635 16.8 7.2001 16.2637 7.2001 15.6Z" fill="black"/>
</svg>
