<svg width="24" height="24" viewBox="0 0 24 24" fill="none" xmlns="http://www.w3.org/2000/svg">
<path d="M19.4775 9.35506L14.7457 8.94445L12.8979 4.59392C12.5655 3.80203 11.4315 3.80203 11.0991 4.59392L9.25131 8.95423L4.52927 9.35506C3.66894 9.4235 3.31699 10.4989 3.97201 11.0659L7.55998 14.1749L6.48457 18.7894C6.28904 19.6301 7.19825 20.2949 7.94126 19.8452L11.9985 17.4011L16.0557 19.855C16.7988 20.3047 17.708 19.6399 17.5124 18.7991L16.437 14.1749L20.025 11.0659C20.68 10.4989 20.3378 9.4235 19.4775 9.35506ZM11.9985 15.5729V6.48078L13.6703 10.4305L17.9524 10.802L14.7066 13.6176L15.6842 17.8019L11.9985 15.5729Z" fill="black"/>
</svg>
