<svg width="24" height="24" viewBox="0 0 24 24" fill="none" xmlns="http://www.w3.org/2000/svg">
<path d="M19.4785 9.20229L14.7467 8.79168L12.8989 4.44115C12.5665 3.64926 11.4324 3.64926 11.1 4.44115L9.25229 8.80146L4.53025 9.20229C3.66992 9.27073 3.31797 10.3461 3.97299 10.9132L7.56096 14.0221L6.48555 18.6366C6.29002 19.4774 7.19923 20.1422 7.94224 19.6925L11.9995 17.2483L16.0567 19.7022C16.7997 20.1519 17.7089 19.4871 17.5134 18.6464L16.438 14.0221L20.026 10.9132C20.681 10.3461 20.3388 9.27073 19.4785 9.20229ZM11.9995 15.4201L8.32352 17.6394L9.30117 13.4551L6.05538 10.6394L10.3375 10.2679L11.9995 6.32801L13.6713 10.2777L17.9534 10.6492L14.7076 13.4648L15.6852 17.6492L11.9995 15.4201Z" fill="black"/>
</svg>
