<svg width="24" height="24" viewBox="0 0 24 24" fill="none" xmlns="http://www.w3.org/2000/svg">
<path d="M6.0001 5.39998C5.6701 5.39998 5.4001 5.66998 5.4001 5.99998V18C5.4001 18.33 5.6701 18.6 6.0001 18.6H18.0001C18.3301 18.6 18.6001 18.33 18.6001 18V5.99998C18.6001 5.66998 18.3301 5.39998 18.0001 5.39998H6.0001ZM3.6001 5.99998C3.6001 4.67623 4.67635 3.59998 6.0001 3.59998H18.0001C19.3238 3.59998 20.4001 4.67623 20.4001 5.99998V18C20.4001 19.3237 19.3238 20.4 18.0001 20.4H6.0001C4.67635 20.4 3.6001 19.3237 3.6001 18V5.99998ZM12.0001 7.19998C12.4988 7.19998 12.9001 7.60123 12.9001 8.09998V15.9C12.9001 16.3987 12.4988 16.8 12.0001 16.8C11.5013 16.8 11.1001 16.3987 11.1001 15.9V8.09998C11.1001 7.60123 11.5013 7.19998 12.0001 7.19998ZM8.4001 10.8C8.89885 10.8 9.3001 11.2012 9.3001 11.7V15.9C9.3001 16.3987 8.89885 16.8 8.4001 16.8C7.90135 16.8 7.5001 16.3987 7.5001 15.9V11.7C7.5001 11.2012 7.90135 10.8 8.4001 10.8ZM14.7001 14.1C14.7001 13.6012 15.1013 13.2 15.6001 13.2C16.0988 13.2 16.5001 13.6012 16.5001 14.1V15.9C16.5001 16.3987 16.0988 16.8 15.6001 16.8C15.1013 16.8 14.7001 16.3987 14.7001 15.9V14.1Z" fill="black"/>
</svg>
