<svg width="24" height="24" viewBox="0 0 24 24" fill="none" xmlns="http://www.w3.org/2000/svg">
<path d="M5.3999 8.4C6.06365 8.4 6.5999 8.93625 6.5999 9.6V19.2C6.5999 19.8637 6.06365 20.4 5.3999 20.4H3.5999C2.93615 20.4 2.3999 19.8637 2.3999 19.2V9.6C2.3999 8.93625 2.93615 8.4 3.5999 8.4H5.3999ZM12.5474 3C13.5712 3 14.3999 3.82875 14.3999 4.8525V5.01C14.3999 5.265 14.3512 5.52 14.2574 5.75625L13.1999 8.4H19.1999C20.1937 8.4 20.9999 9.20625 20.9999 10.2C20.9999 10.9387 20.5537 11.5725 19.9162 11.85C20.5537 12.1275 20.9999 12.7612 20.9999 13.5C20.9999 14.3775 20.3699 15.1087 19.5374 15.2662C19.7024 15.54 19.7999 15.8587 19.7999 16.2C19.7999 17.0325 19.2374 17.73 18.4724 17.9362C18.5549 18.1425 18.5999 18.3675 18.5999 18.6C18.5999 19.5938 17.7937 20.4 16.7999 20.4H13.5037C12.1424 20.4 10.8187 19.935 9.7574 19.0837L9.2999 18.72C8.7299 18.2662 8.3999 17.5762 8.3999 16.845V9.8475C8.3999 9.28875 8.53115 8.7375 8.77865 8.23875L10.8862 4.02375C11.2012 3.3975 11.8424 3 12.5474 3Z" fill="black"/>
</svg>
