<svg width="24" height="24" viewBox="0 0 24 24" fill="none" xmlns="http://www.w3.org/2000/svg">
<path d="M15.9002 3.59998L16.1777 3.61498C17.4902 3.74998 18.5215 4.82248 18.5927 6.15373C19.2602 6.59623 19.7215 7.33123 19.7927 8.17498L19.8002 8.39998C19.8002 8.61373 19.774 8.81998 19.7252 9.01873C20.1077 9.44998 20.3552 10.005 20.3927 10.62L20.4002 10.8C20.4002 11.295 20.2652 11.7525 20.0327 12.15C20.2165 12.465 20.3402 12.8212 20.3815 13.2L20.3965 13.5C20.3965 14.8987 19.3352 16.0462 17.974 16.185L17.6965 16.2H13.5827L14.1115 17.325L14.2277 17.61C14.6965 18.9487 14.1602 20.4412 12.9452 21.1725L12.6752 21.3187C11.269 21.9787 9.61148 21.4537 8.82773 20.1487L8.80523 20.115L8.70398 19.9275L8.68148 19.8825L7.55273 17.4825C7.20023 18.15 6.50273 18.6037 5.69648 18.6037H4.49648C3.33773 18.6037 2.39648 17.6625 2.39648 16.5037L2.40023 8.09998C2.40023 6.94123 3.34148 5.99998 4.50023 5.99998H5.70023C6.16523 5.99998 6.59648 6.15373 6.94523 6.41248C7.44023 5.60998 8.14523 4.93498 9.00773 4.47748L9.46523 4.23373L9.49148 4.22248L9.73898 4.10248L9.76523 4.09123L10.0315 3.97873C10.6577 3.73123 11.3252 3.60748 12.004 3.60748L15.9002 3.59998ZM11.9965 5.39998C11.5465 5.39998 11.1002 5.48623 10.6802 5.64748L10.504 5.72248L10.3052 5.81998L9.84773 6.06373C8.75273 6.64498 8.03648 7.74748 7.94648 8.97373L7.93898 9.27373V13.5075L7.94273 13.6612C7.96148 13.9687 8.03648 14.2687 8.16773 14.55L10.2977 19.0837L10.3765 19.2262C10.6915 19.74 11.3515 19.9425 11.9065 19.6837L12.0152 19.6237C12.5027 19.3312 12.7165 18.735 12.529 18.1987L12.484 18.0862L11.3515 15.6787C11.2202 15.4012 11.2427 15.075 11.4077 14.8125C11.5727 14.55 11.8577 14.3962 12.1652 14.3962H17.6965L17.7865 14.3925C18.2102 14.3512 18.5477 14.0137 18.589 13.59L18.5927 13.4962C18.5927 13.23 18.4765 12.99 18.2852 12.8212C18.0902 12.6487 17.9777 12.405 17.9777 12.1462C17.9777 11.8875 18.0902 11.6437 18.2852 11.4712C18.4502 11.325 18.5627 11.1225 18.5852 10.8975L18.5927 10.7962C18.5927 10.4812 18.4277 10.2 18.1727 10.0387C17.7715 9.77998 17.6402 9.25498 17.8727 8.83873C17.929 8.74123 17.9665 8.62873 17.9815 8.51623L17.989 8.39622C17.989 7.99872 17.7302 7.66123 17.3665 7.54123C16.9277 7.39873 16.6652 6.94498 16.7665 6.49123C16.774 6.45748 16.7777 6.42373 16.7815 6.39373L16.789 6.29623C16.789 5.83123 16.4327 5.44873 15.979 5.40373L15.9002 5.39998H11.9965ZM4.50023 7.79998C4.33523 7.79998 4.20023 7.93498 4.20023 8.09998V16.5C4.20023 16.665 4.33523 16.8 4.50023 16.8H5.70023C5.86523 16.8 6.00023 16.665 6.00023 16.5V8.09998C6.00023 7.93498 5.86523 7.79998 5.70023 7.79998H4.50023Z" fill="black"/>
</svg>
