<svg width="24" height="24" viewBox="0 0 24 24" fill="none" xmlns="http://www.w3.org/2000/svg">
<path d="M13.5713 2.75391C14.0401 2.28516 14.8013 2.28516 15.2701 2.75391L21.2701 8.75391C21.7388 9.22266 21.7388 9.98391 21.2701 10.4527C20.8013 10.9214 20.0401 10.9214 19.5713 10.4527L19.1776 10.0589L15.4951 14.3564C15.9413 15.8564 15.8251 17.5064 15.0938 18.9764L15.0413 19.0814C14.8688 19.4264 14.5426 19.6664 14.1601 19.7302C13.7776 19.7939 13.3913 19.6664 13.1176 19.3927L4.63133 10.9027C4.35758 10.6289 4.23383 10.2427 4.29383 9.86016C4.35383 9.47766 4.59758 9.15141 4.94258 8.97891L5.04758 8.92641C6.51383 8.19141 8.16383 8.07516 9.66758 8.52516L13.9651 4.84266L13.5713 4.44891C13.1026 3.98016 13.1026 3.21891 13.5713 2.75016V2.75391ZM2.77133 19.5539L6.75008 15.5714L8.44883 17.2702L4.46633 21.2489C3.99758 21.7177 3.23633 21.7177 2.76758 21.2489C2.29883 20.7802 2.29883 20.0189 2.76758 19.5502L2.77133 19.5539Z" fill="black"/>
</svg>
