<svg width="24" height="24" viewBox="0 0 24 24" fill="none" xmlns="http://www.w3.org/2000/svg">
<path d="M8.83133 3.85504C9.61133 2.55004 11.2688 2.02504 12.6751 2.68504L12.9451 2.82754C14.2501 3.61129 14.7751 5.26879 14.1151 6.67504L13.5863 7.80004H17.7001L17.9776 7.81504C19.3388 7.95379 20.4001 9.10504 20.4001 10.5C20.4001 10.995 20.2651 11.4525 20.0326 11.85C20.2613 12.2475 20.3963 12.705 20.4001 13.2C20.4001 13.8863 20.1413 14.505 19.7251 14.9813C19.7738 15.18 19.8001 15.3863 19.8001 15.6C19.8001 16.5413 19.3163 17.3625 18.5926 17.8463C18.5213 19.1775 17.4901 20.2538 16.1776 20.385L15.9001 20.4H11.9963C11.3213 20.4 10.6501 20.2725 10.0238 20.0288L9.75758 19.9163L9.73133 19.905L9.48383 19.785L9.45758 19.7738L9.00008 19.53C8.53883 19.2863 8.12633 18.9788 7.76633 18.6263C7.61258 19.635 6.74258 20.4038 5.69258 20.4038H4.49258C3.33383 20.4038 2.39258 19.4625 2.39258 18.3038L2.40008 9.90004C2.40008 8.74129 3.34133 7.80004 4.50008 7.80004H5.70008C6.10508 7.80004 6.48383 7.91629 6.80633 8.11879L8.68508 4.12504L8.70758 4.08004L8.80883 3.89254L8.83133 3.85879V3.85504ZM4.50008 9.60004C4.33508 9.60004 4.20008 9.73504 4.20008 9.90004V18.3C4.20008 18.465 4.33508 18.6 4.50008 18.6H5.70008C5.86508 18.6 6.00008 18.465 6.00008 18.3V9.90004C6.00008 9.73504 5.86508 9.60004 5.70008 9.60004H4.50008ZM11.9101 4.31254C11.3551 4.05379 10.6988 4.25254 10.3838 4.76254L10.3013 4.91254L8.17133 9.44629C8.04008 9.72754 7.96508 10.0275 7.94633 10.335L7.94258 10.4925V14.7263L7.95008 15.0225C8.04008 16.2488 8.75258 17.3513 9.85133 17.9363L10.2826 18.165L10.5188 18.2813C10.9838 18.4913 11.4863 18.6 11.9963 18.6H15.9001L15.9901 18.5963C16.4438 18.5513 16.8001 18.165 16.8001 17.7L16.7926 17.6025C16.7888 17.5688 16.7851 17.5388 16.7776 17.505C16.6763 17.0513 16.9388 16.5975 17.3776 16.455C17.7413 16.3388 18.0001 15.9975 18.0001 15.6C18.0001 15.4388 17.9588 15.2925 17.8838 15.1575C17.6476 14.7413 17.7788 14.2125 18.1838 13.9575C18.4388 13.7963 18.6038 13.515 18.6038 13.2C18.6038 12.9338 18.4876 12.6938 18.2963 12.525C18.1013 12.3525 17.9888 12.1088 17.9888 11.85C17.9888 11.5913 18.1013 11.3475 18.2963 11.175C18.4876 11.0063 18.6038 10.7663 18.6038 10.5L18.6001 10.41C18.5588 9.98629 18.2213 9.64879 17.7976 9.60754L17.7076 9.60379H12.1763C11.8688 9.60379 11.5838 9.44629 11.4188 9.18754C11.2538 8.92879 11.2313 8.59879 11.3626 8.32129L12.4876 5.91004C12.7501 5.34754 12.5401 4.68379 12.0188 4.37254L11.9101 4.31254Z" fill="black"/>
</svg>
