<svg width="24" height="24" viewBox="0 0 24 24" fill="none" xmlns="http://www.w3.org/2000/svg">
<path d="M16.7999 3.59998C17.7937 3.59998 18.5999 4.40623 18.5999 5.39998C18.5999 5.63623 18.5512 5.85748 18.4724 6.06373C19.2374 6.26998 19.7999 6.96748 19.7999 7.79998C19.7999 8.14123 19.7024 8.45998 19.5374 8.73373C20.3699 8.89123 20.9999 9.62248 20.9999 10.5C20.9999 11.2387 20.5537 11.8725 19.9162 12.15C20.5537 12.4275 20.9999 13.0612 20.9999 13.8C20.9999 14.7937 20.1937 15.6 19.1999 15.6H13.1999L14.2574 18.24C14.3512 18.4762 14.3999 18.7312 14.3999 18.9862V19.1437C14.3999 20.1675 13.5712 20.9962 12.5474 20.9962C11.8462 20.9962 11.2049 20.5987 10.8899 19.9725L8.77865 15.7612C8.5274 15.2625 8.3999 14.7112 8.3999 14.1525V7.15498C8.3999 6.42748 8.73365 5.73748 9.2999 5.27998L9.7574 4.91623C10.8224 4.06498 12.1424 3.59998 13.5037 3.59998H16.7999ZM5.3999 5.99998C6.06365 5.99998 6.5999 6.53623 6.5999 7.19998V16.8C6.5999 17.4637 6.06365 18 5.3999 18H3.5999C2.93615 18 2.3999 17.4637 2.3999 16.8V7.19998C2.3999 6.53623 2.93615 5.99998 3.5999 5.99998H5.3999Z" fill="black"/>
</svg>
