<svg width="24" height="24" viewBox="0 0 24 24" fill="none" xmlns="http://www.w3.org/2000/svg">
<path d="M13.7662 2.65872C14.1187 2.30622 14.6887 2.30622 15.0375 2.65872C15.1875 2.80872 16.9462 4.56747 20.31 7.93122L21.345 8.96247C21.6975 9.31497 21.6975 9.88497 21.345 10.2337C20.9925 10.5825 20.4225 10.5862 20.0737 10.2337L19.7287 9.88872L16.2787 13.8937C16.5112 15.51 16.1737 17.205 15.2287 18.6525L15.1087 18.8362C14.355 18.345 14.355 18.345 15.1087 18.8362C14.5875 19.635 13.4662 19.7512 12.7912 19.0762L4.92745 11.2125C4.25245 10.5375 4.37245 9.41622 5.16745 8.89497L5.34745 8.77497C6.79495 7.82997 8.48995 7.49247 10.1062 7.72497L14.1112 4.27497L13.7662 3.92997C13.4137 3.57747 13.4137 3.00747 13.7662 2.65872ZM15.3862 5.55372L10.9612 9.37122C10.7475 9.55497 10.4625 9.62997 10.185 9.56997C8.93995 9.30372 7.60495 9.50622 6.4612 10.2037L13.8 17.5425C14.4975 16.3987 14.7 15.0675 14.4337 13.8187C14.3737 13.545 14.4487 13.2562 14.6325 13.0425L18.45 8.61372L15.39 5.55372H15.3862ZM6.9487 15.7837L8.21995 17.055L3.9412 21.3375C3.5887 21.69 3.0187 21.69 2.66995 21.3375C2.3212 20.985 2.31745 20.415 2.66995 20.0662L6.9487 15.7837Z" fill="black"/>
</svg>
