<svg width="24" height="24" viewBox="0 0 24 24" fill="none" xmlns="http://www.w3.org/2000/svg">
<path d="M19.1394 7.83064C19.156 7.97173 19.1535 10.4596 19.1375 10.5643C19.0951 10.5841 19.0477 10.5744 19.002 10.5737C18.3828 10.564 17.7781 10.4626 17.1875 10.278C16.5708 10.0851 15.9863 9.80168 15.453 9.43694C15.4214 9.41539 15.3883 9.39609 15.3556 9.37614C15.3527 9.37435 15.3477 9.37614 15.3428 9.37614C15.3181 9.38737 15.3253 9.41116 15.3247 9.43078C15.3233 9.47349 15.3241 9.51627 15.3241 9.55905C15.3241 11.3497 15.3196 13.1404 15.3253 14.9311C15.3317 16.9192 14.1517 18.7405 12.3275 19.5594C11.8605 19.769 11.3725 19.902 10.8639 19.9634C8.32668 20.2692 5.98274 18.6275 5.35598 16.1861C5.22304 15.6692 5.17744 15.144 5.21008 14.61C5.34098 12.4657 6.85223 10.6115 8.94254 10.0462C9.4881 9.89869 10.0428 9.84988 10.6057 9.88394C10.6951 9.88939 10.7843 9.90099 10.8733 9.91158C10.8936 9.91395 10.9129 9.92402 10.9306 9.92992C10.9486 10.0511 10.9552 11.5781 10.9425 12.6123C10.942 12.6458 10.938 12.6793 10.935 12.7214C10.8875 12.7111 10.8465 12.7035 10.8062 12.6932C10.6239 12.6466 10.4364 12.6232 10.2483 12.6237C9.22914 12.6275 8.31751 13.3194 8.03976 14.301C7.67081 15.6049 8.4915 16.9496 9.82531 17.204C11.1015 17.4477 12.2188 16.6244 12.5008 15.4986C12.5484 15.3078 12.5721 15.1118 12.5714 14.9151V14.8894L12.5729 7.4917C12.5731 6.38056 12.5736 5.26942 12.5743 4.15828C12.5743 4.11191 12.5765 4.06548 12.5778 4.01219C12.6068 4.0077 12.6307 4.00122 12.6548 4.00083C12.7488 3.99955 12.8428 4.00013 12.937 4.00013H15.1548C15.2054 4.00013 15.256 4.00193 15.3048 4.00289C15.3346 4.04816 15.324 4.09216 15.3256 4.13333C15.3591 4.83557 15.5535 5.48849 15.9426 6.07581C16.554 6.9993 17.4083 7.56366 18.4967 7.7676C18.6763 7.80127 18.8616 7.80608 19.0443 7.82435C19.0737 7.82737 19.1029 7.82865 19.1394 7.83064Z" fill="black"/>
</svg>
