<svg width="24" height="24" viewBox="0 0 24 24" fill="none" xmlns="http://www.w3.org/2000/svg">
<path d="M18.5455 4.00018H5.45455C4.65091 4.00018 4 4.65109 4 5.45473V18.5456C4 19.3493 4.65091 20.0002 5.45455 20.0002H18.5455C19.3491 20.0002 20 19.3493 20 18.5456V5.45473C20 4.65109 19.3484 4.00018 18.5455 4.00018ZM17.592 10.8904C17.4975 10.8991 17.4022 10.9049 17.3062 10.9049C16.2189 10.9049 15.2633 10.3464 14.7069 9.50055C14.7069 11.718 14.7069 14.2416 14.7069 14.2838C14.7069 16.2365 13.1236 17.8191 11.1716 17.8191C9.21964 17.8184 7.63636 16.2351 7.63636 14.2831C7.63636 12.3304 9.21964 10.7478 11.1716 10.7478C11.2458 10.7478 11.3178 10.7544 11.3898 10.7587V12.5013C11.3171 12.4925 11.2465 12.4795 11.1716 12.4795C10.1753 12.4795 9.36727 13.2875 9.36727 14.2838C9.36727 15.2802 10.1745 16.0882 11.1716 16.0882C12.1687 16.0882 13.0487 15.3027 13.0487 14.3064C13.0487 14.2664 13.0662 6.18273 13.0662 6.18273H14.7309C14.8873 7.67146 16.0895 8.84673 17.592 8.95437V10.8904Z" fill="black"/>
</svg>
