<svg width="24" height="24" viewBox="0 0 24 24" fill="none" xmlns="http://www.w3.org/2000/svg">
<path d="M8.39995 6.59999C5.4187 6.59999 2.99995 9.01874 2.99995 12C2.99995 14.9812 5.4187 17.4 8.39995 17.4H15.6C18.5812 17.4 21 14.9812 21 12C21 9.01874 18.5812 6.59999 15.6 6.59999H8.39995ZM1.19995 12C1.19995 8.02499 4.42495 4.79999 8.39995 4.79999H15.6C19.575 4.79999 22.8 8.02499 22.8 12C22.8 15.975 19.575 19.2 15.6 19.2H8.39995C4.42495 19.2 1.19995 15.975 1.19995 12ZM15.6 8.39999C17.5875 8.39999 19.2 10.0125 19.2 12C19.2 13.9875 17.5875 15.6 15.6 15.6C13.6125 15.6 12 13.9875 12 12C12 10.0125 13.6125 8.39999 15.6 8.39999Z" fill="black"/>
</svg>
