<svg width="24" height="24" viewBox="0 0 24 24" fill="none" xmlns="http://www.w3.org/2000/svg">
<path d="M15.6 6.59999C18.5813 6.59999 21 9.01874 21 12C21 14.9812 18.5813 17.4 15.6 17.4H8.40005C5.4188 17.4 3.00005 14.9812 3.00005 12C3.00005 9.01874 5.4188 6.59999 8.40005 6.59999H15.6ZM22.8 12C22.8 8.02499 19.575 4.79999 15.6 4.79999H8.40005C4.42505 4.79999 1.20005 8.02499 1.20005 12C1.20005 15.975 4.42505 19.2 8.40005 19.2H15.6C19.575 19.2 22.8 15.975 22.8 12ZM8.40005 8.39999C6.41255 8.39999 4.80005 10.0125 4.80005 12C4.80005 13.9875 6.41255 15.6 8.40005 15.6C10.3875 15.6 12 13.9875 12 12C12 10.0125 10.3875 8.39999 8.40005 8.39999Z" fill="black"/>
</svg>
