<svg width="24" height="24" viewBox="0 0 24 24" fill="none" xmlns="http://www.w3.org/2000/svg">
<path d="M9.5999 4.50002V6.00002H14.3999V4.50002C14.3999 4.33502 14.2649 4.20002 14.0999 4.20002H9.8999C9.7349 4.20002 9.5999 4.33502 9.5999 4.50002ZM7.7999 6.00002V4.50002C7.7999 3.34127 8.74115 2.40002 9.8999 2.40002H14.0999C15.2587 2.40002 16.1999 3.34127 16.1999 4.50002V6.00002H19.1999C20.5237 6.00002 21.5999 7.07627 21.5999 8.40002V18C21.5999 19.3238 20.5237 20.4 19.1999 20.4H4.7999C3.47615 20.4 2.3999 19.3238 2.3999 18V8.40002C2.3999 7.07627 3.47615 6.00002 4.7999 6.00002H7.7999ZM4.1999 13.8V18C4.1999 18.33 4.4699 18.6 4.7999 18.6H19.1999C19.5299 18.6 19.7999 18.33 19.7999 18V13.8H14.3999V14.4C14.3999 15.0638 13.8637 15.6 13.1999 15.6H10.7999C10.1362 15.6 9.5999 15.0638 9.5999 14.4V13.8H4.1999ZM9.5999 12H19.7999V8.40002C19.7999 8.07002 19.5299 7.80002 19.1999 7.80002H4.7999C4.4699 7.80002 4.1999 8.07002 4.1999 8.40002V12H9.5999Z" fill="black"/>
</svg>
