<svg width="24" height="24" viewBox="0 0 24 24" fill="none" xmlns="http://www.w3.org/2000/svg">
<path d="M13.6487 15.1355L18.8609 20.3477C19.4139 20.9007 20.207 20.786 20.6348 20.3477C21.12 19.852 21.12 19.059 20.6348 18.5738L15.4226 13.3616L13.6487 15.1355ZM3.98087 20.3373C4.48174 20.8381 5.27479 20.8277 5.75479 20.3373L16.2157 9.88161C16.2157 9.88161 16.8209 10.132 17.4574 10.132C19.7165 10.132 21.3548 7.83639 20.4835 5.69726L17.8487 8.33204L16.0017 6.48509L18.6365 3.8503C16.5026 2.98422 14.2017 4.60682 14.2017 6.87639C14.2017 7.47639 14.4522 8.10248 14.4522 8.10248L12.3078 10.2468L10.1687 8.10769L10.3461 7.9303C10.7061 7.5703 10.5652 7.0903 10.3461 6.87117L9.45913 5.98422L11.5774 3.86595C10.487 2.95291 8.88 3.01552 7.86261 4.03291L5.03479 6.87117C4.67479 7.23117 4.81566 7.71117 5.03479 7.9303L7.16348 10.059C7.45566 10.3512 7.93044 10.3512 8.22261 10.059L8.4 9.88161L10.5391 12.0207L3.99131 18.5686C3.51131 19.0486 3.50087 19.8364 3.96522 20.3164L3.98609 20.3373H3.98087ZM3.08348 8.99465C2.95826 8.99465 2.84348 9.04161 2.76522 9.12509H2.76C2.57739 9.31291 2.57739 9.59987 2.76 9.78248L5.30609 12.3286C5.4887 12.5112 5.77566 12.5112 5.95826 12.3286C6.04696 12.2399 6.09392 12.1251 6.09392 12.0051V8.99465H3.08348Z" fill="black"/>
</svg>
