<svg width="24" height="24" viewBox="0 0 24 24" fill="none" xmlns="http://www.w3.org/2000/svg">
<path d="M9.7763 8.57637L11.5763 10.3764C11.8088 10.6089 12.1913 10.6089 12.4238 10.3764L14.2238 8.57637C14.3363 8.46387 14.4 8.31012 14.4 8.15262V3.06012C14.4 2.64762 14.8088 2.35887 15.18 2.54262C17.5613 3.71637 19.2 6.16887 19.2 9.00387C19.2 11.6701 17.7525 13.9951 15.6 15.2401V19.8001C15.6 20.7939 14.7938 21.6001 13.8 21.6001H10.2C9.2063 21.6001 8.40005 20.7939 8.40005 19.8001V15.2364C6.24755 13.9914 4.80005 11.6664 4.80005 9.00012C4.80005 6.16512 6.4388 3.71262 8.82005 2.53887C9.1913 2.35512 9.60005 2.64387 9.60005 3.06012V8.15262C9.60005 8.31012 9.6638 8.46387 9.7763 8.57637Z" fill="black"/>
</svg>
