<svg width="24" height="24" viewBox="0 0 24 24" fill="none" xmlns="http://www.w3.org/2000/svg">
<path d="M9.2999 4.8H14.6999C14.8649 4.8 14.9999 4.935 14.9999 5.1V6.6H8.9999V5.1C8.9999 4.935 9.1349 4.8 9.2999 4.8ZM7.1999 5.1V6.6H4.7999C3.47615 6.6 2.3999 7.67625 2.3999 9V12.6H9.5999H14.3999H21.5999V9C21.5999 7.67625 20.5237 6.6 19.1999 6.6H16.7999V5.1C16.7999 3.94125 15.8587 3 14.6999 3H9.2999C8.14115 3 7.1999 3.94125 7.1999 5.1ZM21.5999 13.8H14.3999V15C14.3999 15.6638 13.8637 16.2 13.1999 16.2H10.7999C10.1362 16.2 9.5999 15.6638 9.5999 15V13.8H2.3999V18.6C2.3999 19.9237 3.47615 21 4.7999 21H19.1999C20.5237 21 21.5999 19.9237 21.5999 18.6V13.8Z" fill="black"/>
</svg>
