<svg width="24" height="24" viewBox="0 0 24 24" fill="none" xmlns="http://www.w3.org/2000/svg">
<path d="M21.0078 18.4074L16.0678 13.4674L13.9478 15.5874L18.8878 20.5274C19.4778 21.1174 20.4278 21.1174 21.0078 20.5274C21.5878 19.9374 21.5878 18.9874 21.0078 18.4074Z" fill="black"/>
<path d="M17.6671 10.4177C19.5971 10.4177 21.1671 8.84765 21.1671 6.91765C21.1671 6.33765 21.0071 5.79765 20.7571 5.31765L18.0571 8.01765L16.5671 6.52765L19.2671 3.82765C18.7871 3.57765 18.2471 3.41765 17.6671 3.41765C15.7371 3.41765 14.1671 4.98765 14.1671 6.91765C14.1671 7.32765 14.2471 7.71765 14.3771 8.07765L12.5271 9.92765L10.7471 8.14765C11.1371 7.75765 11.1371 7.12765 10.7471 6.73765L10.0371 6.02765L12.1571 3.90765C10.9871 2.73765 9.08713 2.73765 7.91713 3.90765L5.09713 6.73765C4.70713 7.12765 4.70713 7.75765 5.09713 8.14765L5.80713 8.85765H3.26713C3.07713 8.85765 2.89713 8.92765 2.76713 9.06765C2.48713 9.34765 2.48713 9.78765 2.76713 10.0677L5.30713 12.6077C5.58713 12.8877 6.02713 12.8877 6.30713 12.6077C6.43713 12.4777 6.51713 12.2977 6.51713 12.1077V9.56765L7.21713 10.2677C7.60713 10.6577 8.23713 10.6577 8.62713 10.2677L10.4071 12.0477L4.05713 18.3977C3.46713 18.9877 3.46713 19.9377 4.05713 20.5177C4.64713 21.1077 5.59713 21.1077 6.17713 20.5177L16.4971 10.2077C16.8671 10.3377 17.2571 10.4177 17.6671 10.4177Z" fill="black"/>
</svg>
