<svg width="35" height="33" viewBox="0 0 35 33" fill="none" xmlns="http://www.w3.org/2000/svg">
<path d="M27.0078 27.4074L22.0678 22.4674L19.9478 24.5874L24.8878 29.5274C25.4778 30.1174 26.4278 30.1174 27.0078 29.5274C27.5878 28.9374 27.5878 27.9874 27.0078 27.4074Z" fill="black"/>
<path d="M23.6672 19.4176C25.5972 19.4176 27.1672 17.8476 27.1672 15.9176C27.1672 15.3376 27.0072 14.7976 26.7572 14.3176L24.0572 17.0176L22.5672 15.5276L25.2672 12.8276C24.7872 12.5776 24.2472 12.4176 23.6672 12.4176C21.7372 12.4176 20.1672 13.9876 20.1672 15.9176C20.1672 16.3276 20.2472 16.7176 20.3772 17.0776L18.5272 18.9276L16.7472 17.1476C17.1372 16.7576 17.1372 16.1276 16.7472 15.7376L16.0372 15.0276L18.1572 12.9076C16.9872 11.7376 15.0872 11.7376 13.9172 12.9076L11.0972 15.7376C10.7072 16.1276 10.7072 16.7576 11.0972 17.1476L11.8072 17.8576H9.26719C9.07719 17.8576 8.89719 17.9276 8.76719 18.0676C8.48719 18.3476 8.48719 18.7876 8.76719 19.0676L11.3072 21.6076C11.5872 21.8876 12.0272 21.8876 12.3072 21.6076C12.4372 21.4776 12.5172 21.2976 12.5172 21.1076V18.5676L13.2172 19.2676C13.6072 19.6576 14.2372 19.6576 14.6272 19.2676L16.4072 21.0476L10.0572 27.3976C9.46719 27.9876 9.46719 28.9376 10.0572 29.5176C10.6472 30.1076 11.5972 30.1076 12.1772 29.5176L22.4972 19.2076C22.8672 19.3376 23.2572 19.4176 23.6672 19.4176Z" fill="black"/>
<path d="M32.8288 9.82878L31.989 11.6891C31.7976 12.1036 31.2024 12.1036 31.011 11.6891L30.1712 9.81815L28.3109 8.97836C27.8964 8.78702 27.8964 8.20235 28.3109 8.01101L30.1819 7.17122L31.0216 5.31093C31.213 4.89636 31.7976 4.89636 31.989 5.31093L32.8288 7.18185L34.6891 8.02164C35.1036 8.21299 35.1036 8.79765 34.6891 8.98899L32.8288 9.82878Z" fill="black"/>
<path d="M8.89825 6.89825L7.69856 9.55581C7.42521 10.1481 6.57479 10.1481 6.30144 9.55581L5.10175 6.88307L2.44419 5.68337C1.85194 5.41002 1.85194 4.57479 2.44419 4.30144L5.11693 3.10175L6.31663 0.444191C6.58998 -0.148064 7.42521 -0.148064 7.69856 0.444191L8.89825 3.11693L11.5558 4.31663C12.1481 4.58998 12.1481 5.42521 11.5558 5.69856L8.89825 6.89825Z" fill="black"/>
<path d="M3.44913 15.4491L2.84928 16.7779C2.7126 17.074 2.2874 17.074 2.15072 16.7779L1.55087 15.4415L0.222096 14.8417C-0.0740319 14.705 -0.0740319 14.2874 0.222096 14.1507L1.55847 13.5509L2.15831 12.2221C2.29499 11.926 2.7126 11.926 2.84928 12.2221L3.44913 13.5585L4.7779 14.1583C5.07403 14.295 5.07403 14.7126 4.7779 14.8493L3.44913 15.4491Z" fill="black"/>
</svg>
