<svg width="24" height="24" viewBox="0 0 24 24" fill="none" xmlns="http://www.w3.org/2000/svg">
<path d="M16.8505 17.15L18.2905 15.71L13.4105 10.83L10.1205 14.12C9.73047 14.51 9.10047 14.51 8.71047 14.12L2.71047 8.11C2.32047 7.72 2.32047 7.09 2.71047 6.7C3.10047 6.31 3.73047 6.31 4.12047 6.7L9.41047 12L12.7005 8.71C13.0905 8.32 13.7205 8.32 14.1105 8.71L19.7005 14.29L21.1405 12.85C21.4505 12.54 21.9905 12.76 21.9905 13.2V17.5C22.0005 17.78 21.7805 18 21.5005 18H17.2105C16.7605 18 16.5405 17.46 16.8505 17.15Z" fill="black"/>
</svg>
