<svg width="24" height="24" viewBox="0 0 24 24" fill="none" xmlns="http://www.w3.org/2000/svg">
<path d="M5.2 5.77777C4.5375 5.77777 4 6.30034 4 6.94444V14.7222C4 15.3663 4.5375 15.8889 5.2 15.8889H5.6C5.6 17.1771 6.675 18.2222 8 18.2222C9.325 18.2222 10.4 17.1771 10.4 15.8889H13.6C13.6 17.1771 14.675 18.2222 16 18.2222C17.325 18.2222 18.4 17.1771 18.4 15.8889H19.2C19.6425 15.8889 20 15.5413 20 15.1111C20 14.6809 19.6425 14.3333 19.2 14.3333V12.7778V12V11.5455C19.2 11.1323 19.0325 10.7361 18.7325 10.4444L16.8 8.56562C16.5 8.27395 16.0925 8.1111 15.6675 8.1111H14.4V6.94444C14.4 6.30034 13.8625 5.77777 13.2 5.77777H5.2ZM14.4 9.66666H15.6675L17.6 11.5455V12H14.4V9.66666ZM6.8 15.8889C6.8 15.5795 6.92643 15.2827 7.15147 15.0639C7.37652 14.8451 7.68174 14.7222 8 14.7222C8.31826 14.7222 8.62348 14.8451 8.84853 15.0639C9.07357 15.2827 9.2 15.5795 9.2 15.8889C9.2 16.1983 9.07357 16.495 8.84853 16.7138C8.62348 16.9326 8.31826 17.0555 8 17.0555C7.68174 17.0555 7.37652 16.9326 7.15147 16.7138C6.92643 16.495 6.8 16.1983 6.8 15.8889ZM16 14.7222C16.3183 14.7222 16.6235 14.8451 16.8485 15.0639C17.0736 15.2827 17.2 15.5795 17.2 15.8889C17.2 16.1983 17.0736 16.495 16.8485 16.7138C16.6235 16.9326 16.3183 17.0555 16 17.0555C15.6817 17.0555 15.3765 16.9326 15.1515 16.7138C14.9264 16.495 14.8 16.1983 14.8 15.8889C14.8 15.5795 14.9264 15.2827 15.1515 15.0639C15.3765 14.8451 15.6817 14.7222 16 14.7222Z" fill="black"/>
</svg>
