<svg width="24" height="24" viewBox="0 0 24 24" fill="none" xmlns="http://www.w3.org/2000/svg">
<path d="M19 15C18.4477 15 18 15.4477 18 16V18H6V16C6 15.4477 5.55228 15 5 15C4.44772 15 4 15.4477 4 16V18C4 19.1 4.9 20 6 20H18C19.1 20 20 19.1 20 18V16C20 15.4477 19.5523 15 19 15ZM7.70568 8.29435C7.31594 8.68409 7.31594 9.31597 7.70568 9.70571C8.09489 10.0949 8.72572 10.0955 9.11568 9.70708L11 7.83003V15C11 15.5523 11.4477 16 12 16C12.5523 16 13 15.5523 13 15V7.83003L14.8843 9.70707C15.2743 10.0955 15.9051 10.0949 16.2943 9.70571C16.6841 9.31597 16.6841 8.68408 16.2943 8.29435L12.4545 4.45458C12.2035 4.20354 11.7965 4.20354 11.5455 4.45458L7.70568 8.29435Z" fill="black"/>
</svg>
