<svg width="24" height="24" viewBox="0 0 24 24" fill="none" xmlns="http://www.w3.org/2000/svg">
<path d="M9.0001 7.20002C9.0001 5.54252 10.3426 4.20002 12.0001 4.20002C13.6576 4.20002 15.0001 5.54252 15.0001 7.20002C15.0001 8.85752 13.6576 10.2 12.0001 10.2C10.3426 10.2 9.0001 8.85752 9.0001 7.20002ZM16.8001 7.20002C16.8001 4.54877 14.6513 2.40002 12.0001 2.40002C9.34885 2.40002 7.2001 4.54877 7.2001 7.20002C7.2001 9.85127 9.34885 12 12.0001 12C14.6513 12 16.8001 9.85127 16.8001 7.20002ZM5.4001 20.4C5.4001 17.7488 7.54885 15.6 10.2001 15.6H13.8001C16.4513 15.6 18.6001 17.7488 18.6001 20.4V20.7C18.6001 21.1988 19.0013 21.6 19.5001 21.6C19.9988 21.6 20.4001 21.1988 20.4001 20.7V20.4C20.4001 16.755 17.4451 13.8 13.8001 13.8H10.2001C6.5551 13.8 3.6001 16.755 3.6001 20.4V20.7C3.6001 21.1988 4.00135 21.6 4.5001 21.6C4.99885 21.6 5.4001 21.1988 5.4001 20.7V20.4Z" fill="black"/>
</svg>
