<svg width="24" height="24" viewBox="0 0 24 24" fill="none" xmlns="http://www.w3.org/2000/svg">
<path d="M17.6437 17.385C16.9274 15.6338 15.2062 14.4 13.1999 14.4H10.7999C8.79365 14.4 7.0724 15.6338 6.35615 17.385C5.02115 15.9863 4.1999 14.0888 4.1999 12C4.1999 7.69127 7.69115 4.20002 11.9999 4.20002C16.3087 4.20002 19.7999 7.69127 19.7999 12C19.7999 14.0888 18.9787 15.9825 17.6437 17.385ZM16.1399 18.6113C14.9399 19.365 13.5224 19.8 11.9999 19.8C10.4774 19.8 9.0599 19.365 7.85615 18.6113C8.1299 17.235 9.3449 16.2 10.7999 16.2H13.1999C14.6549 16.2 15.8699 17.235 16.1437 18.6113H16.1399ZM11.9999 21.6C17.3024 21.6 21.5999 17.3025 21.5999 12C21.5999 6.69753 17.3024 2.40002 11.9999 2.40002C6.6974 2.40002 2.3999 6.69753 2.3999 12C2.3999 17.3025 6.6974 21.6 11.9999 21.6ZM11.9999 11.4C11.1712 11.4 10.4999 10.7288 10.4999 9.90002C10.4999 9.07127 11.1712 8.40002 11.9999 8.40002C12.8287 8.40002 13.4999 9.07127 13.4999 9.90002C13.4999 10.7288 12.8287 11.4 11.9999 11.4ZM8.6999 9.90002C8.6999 11.7225 10.1774 13.2 11.9999 13.2C13.8224 13.2 15.2999 11.7225 15.2999 9.90002C15.2999 8.07752 13.8224 6.60002 11.9999 6.60002C10.1774 6.60002 8.6999 8.07752 8.6999 9.90002Z" fill="black"/>
</svg>
