<svg width="24" height="24" viewBox="0 0 24 24" fill="none" xmlns="http://www.w3.org/2000/svg">
<path d="M11.7001 1.20001C11.2013 1.20001 10.8001 1.60126 10.8001 2.10001V4.80001H10.5001C10.0013 4.80001 9.6001 4.39876 9.6001 3.90001V2.14126C8.24635 2.92501 7.3126 4.35001 7.2076 6.00001H7.2001C6.70135 6.00001 6.3001 6.40126 6.3001 6.90001C6.3001 7.39876 6.70135 7.80001 7.2001 7.80001C7.2001 10.4513 9.34885 12.6 12.0001 12.6C14.6513 12.6 16.8001 10.4513 16.8001 7.80001C17.2988 7.80001 17.7001 7.39876 17.7001 6.90001C17.7001 6.40126 17.2988 6.00001 16.8001 6.00001H16.7926C16.6876 4.35001 15.7538 2.92501 14.4001 2.14126V3.90001C14.4001 4.39876 13.9988 4.80001 13.5001 4.80001H13.2001V2.10001C13.2001 1.60126 12.7988 1.20001 12.3001 1.20001H11.7001ZM15.0001 7.80001C15.0001 9.45751 13.6576 10.8 12.0001 10.8C10.3426 10.8 9.0001 9.45751 9.0001 7.80001H15.0001ZM5.4001 20.7C5.4001 18.2138 7.41385 16.2 9.9001 16.2H14.1001C16.5863 16.2 18.6001 18.2138 18.6001 20.7C18.6001 21.1988 19.0013 21.6 19.5001 21.6C19.9988 21.6 20.4001 21.1988 20.4001 20.7C20.4001 17.22 17.5801 14.4 14.1001 14.4H9.9001C6.4201 14.4 3.6001 17.22 3.6001 20.7C3.6001 21.1988 4.00135 21.6 4.5001 21.6C4.99885 21.6 5.4001 21.1988 5.4001 20.7Z" fill="black"/>
</svg>
