<svg width="24" height="24" viewBox="0 0 24 24" fill="none" xmlns="http://www.w3.org/2000/svg">
<path d="M12 9.6C13.3238 9.6 14.4 8.52375 14.4 7.2C14.4 5.87625 13.3238 4.8 12 4.8C10.6763 4.8 9.6 5.87625 9.6 7.2C9.6 8.52375 10.6763 9.6 12 9.6ZM12 3C14.3213 3 16.2 4.87875 16.2 7.2C16.2 9.52125 14.3213 11.4 12 11.4C9.67875 11.4 7.8 9.52125 7.8 7.2C7.8 4.87875 9.67875 3 12 3ZM11.1 15C8.9475 15 7.2 16.7475 7.2 18.9V19.5C7.2 19.9987 6.79875 20.4 6.3 20.4C5.80125 20.4 5.4 19.9987 5.4 19.5V18.9C5.4 15.7537 7.95375 13.2 11.1 13.2H12.9C16.0463 13.2 18.6 15.7537 18.6 18.9V19.5C18.6 19.9987 18.1988 20.4 17.7 20.4C17.2013 20.4 16.8 19.9987 16.8 19.5V18.9C16.8 16.7475 15.0525 15 12.9 15H11.1ZM16.1775 11.505C16.6163 11.0812 16.9875 10.59 17.28 10.05C17.5012 10.1475 17.745 10.2 18 10.2C18.9938 10.2 19.8 9.39375 19.8 8.4C19.8 7.40625 18.9938 6.6 18 6.6H17.97C17.91 5.9775 17.7525 5.385 17.5163 4.83375C17.6738 4.81125 17.8388 4.8 18 4.8C19.9875 4.8 21.6 6.4125 21.6 8.4C21.6 10.3875 19.9875 12 18 12C17.3363 12 16.7138 11.82 16.1775 11.505ZM6 4.8C6.165 4.8 6.32625 4.81125 6.48375 4.83375C6.2475 5.385 6.09 5.98125 6.03 6.6H6C5.00625 6.6 4.2 7.40625 4.2 8.4C4.2 9.39375 5.00625 10.2 6 10.2C6.255 10.2 6.49875 10.1475 6.72 10.05C7.0125 10.59 7.38375 11.0812 7.8225 11.505C7.29 11.82 6.6675 12 6 12C4.0125 12 2.4 10.3875 2.4 8.4C2.4 6.4125 4.0125 4.8 6 4.8ZM5.59875 13.8C5.0325 14.4112 4.5675 15.1125 4.23 15.885C2.805 16.4662 1.8 17.865 1.8 19.5C1.8 19.9987 1.39875 20.4 0.9 20.4C0.40125 20.4 0 19.9987 0 19.5C0 16.3837 2.4975 13.8525 5.59875 13.8ZM19.77 15.885C19.4325 15.1125 18.9638 14.4075 18.4013 13.8C21.5025 13.8525 24 16.3837 24 19.5C24 19.9987 23.5988 20.4 23.1 20.4C22.6013 20.4 22.2 19.9987 22.2 19.5C22.2 17.865 21.195 16.4662 19.77 15.885Z" fill="black"/>
</svg>
