<svg width="24" height="24" viewBox="0 0 24 24" fill="none" xmlns="http://www.w3.org/2000/svg">
<g clip-path="url(#clip0_5902_40116)">
<path d="M5.10029 7.20001C5.10029 4.71376 7.11404 2.70001 9.60029 2.70001C12.0865 2.70001 14.1003 4.71376 14.1003 7.20001C14.1003 9.68626 12.0865 11.7 9.60029 11.7C7.11404 11.7 5.10029 9.68626 5.10029 7.20001ZM1.80029 20.4863C1.80029 16.7925 4.79279 13.8 8.48654 13.8H10.714C14.4078 13.8 17.4003 16.7925 17.4003 20.4863C17.4003 21.1013 16.9015 21.6 16.2865 21.6H2.91404C2.29904 21.6 1.80029 21.1013 1.80029 20.4863ZM20.4003 6.00001C20.899 6.00001 21.3003 6.40126 21.3003 6.90001V8.70001H23.1003C23.599 8.70001 24.0003 9.10126 24.0003 9.60001C24.0003 10.0988 23.599 10.5 23.1003 10.5H21.3003V12.3C21.3003 12.7988 20.899 13.2 20.4003 13.2C19.9015 13.2 19.5003 12.7988 19.5003 12.3V10.5H17.7003C17.2015 10.5 16.8003 10.0988 16.8003 9.60001C16.8003 9.10126 17.2015 8.70001 17.7003 8.70001H19.5003V6.90001C19.5003 6.40126 19.9015 6.00001 20.4003 6.00001Z" fill="black"/>
</g>
<defs>
<clipPath id="clip0_5902_40116">
<rect width="24" height="24" fill="white"/>
</clipPath>
</defs>
</svg>
