<svg width="24" height="24" viewBox="0 0 24 24" fill="none" xmlns="http://www.w3.org/2000/svg">
<path d="M17.3624 16.8075C16.5337 15.3675 14.9774 14.4 13.1999 14.4H10.7999C9.0224 14.4 7.46615 15.3675 6.6374 16.8075C7.9574 18.2775 9.8699 19.2 11.9999 19.2C14.1299 19.2 16.0424 18.2738 17.3624 16.8075ZM2.3999 12C2.3999 6.69753 6.6974 2.40002 11.9999 2.40002C17.3024 2.40002 21.5999 6.69753 21.5999 12C21.5999 17.3025 17.3024 21.6 11.9999 21.6C6.6974 21.6 2.3999 17.3025 2.3999 12ZM11.9999 12.6C13.4924 12.6 14.6999 11.3925 14.6999 9.90002C14.6999 8.40752 13.4924 7.20002 11.9999 7.20002C10.5074 7.20002 9.2999 8.40752 9.2999 9.90002C9.2999 11.3925 10.5074 12.6 11.9999 12.6Z" fill="black"/>
</svg>
