<svg width="24" height="24" viewBox="0 0 24 24" fill="none" xmlns="http://www.w3.org/2000/svg">
<path d="M11.7002 1.20001C11.2014 1.20001 10.8002 1.60126 10.8002 2.10001V4.80001H10.5002C10.0014 4.80001 9.60019 4.39876 9.60019 3.90001V2.14126C8.24645 2.92501 7.3127 4.35001 7.2077 6.00001H7.2002C6.70145 6.00001 6.3002 6.40126 6.3002 6.90001C6.3002 7.39876 6.70145 7.80001 7.2002 7.80001C7.2002 10.4513 9.34895 12.6 12.0002 12.6C14.6514 12.6 16.8002 10.4513 16.8002 7.80001C17.2989 7.80001 17.7002 7.39876 17.7002 6.90001C17.7002 6.40126 17.2989 6.00001 16.8002 6.00001H16.7927C16.6877 4.35001 15.7539 2.92501 14.4002 2.14126V3.90001C14.4002 4.39876 13.9989 4.80001 13.5002 4.80001H13.2002V2.10001C13.2002 1.60126 12.7989 1.20001 12.3002 1.20001H11.7002ZM15.0002 7.80001C15.0002 9.45751 13.6577 10.8 12.0002 10.8C10.3427 10.8 9.0002 9.45751 9.0002 7.80001H15.0002ZM10.3727 14.4C6.96395 14.4 4.2002 17.1638 4.2002 20.5725C4.2002 21.1388 4.66145 21.6 5.22769 21.6H18.7689C19.3352 21.6 19.7964 21.1388 19.7964 20.5725C19.7964 17.1638 17.0327 14.4 13.6239 14.4H10.3652H10.3727Z" fill="black"/>
</svg>
