<svg width="24" height="24" viewBox="0 0 24 24" fill="none" xmlns="http://www.w3.org/2000/svg">
<g clip-path="url(#clip0_5902_40117)">
<path d="M9.60019 10.2C11.2577 10.2 12.6002 8.85752 12.6002 7.20002C12.6002 5.54252 11.2577 4.20002 9.60019 4.20002C7.94269 4.20002 6.60019 5.54252 6.60019 7.20002C6.60019 8.85752 7.94269 10.2 9.60019 10.2ZM9.60019 2.40002C12.2514 2.40002 14.4002 4.54877 14.4002 7.20002C14.4002 9.85127 12.2514 12 9.60019 12C6.94895 12 4.8002 9.85127 4.8002 7.20002C4.8002 4.54877 6.94895 2.40002 9.60019 2.40002ZM7.80019 15.6C5.14895 15.6 3.0002 17.7488 3.0002 20.4V20.7C3.0002 21.1988 2.59895 21.6 2.1002 21.6C1.60145 21.6 1.2002 21.1988 1.2002 20.7V20.4C1.2002 16.755 4.1552 13.8 7.80019 13.8H11.4002C15.0452 13.8 18.0002 16.755 18.0002 20.4V20.7C18.0002 21.1988 17.5989 21.6 17.1002 21.6C16.6014 21.6 16.2002 21.1988 16.2002 20.7V20.4C16.2002 17.7488 14.0514 15.6 11.4002 15.6H7.80019ZM20.4002 6.00002C20.8989 6.00002 21.3002 6.40127 21.3002 6.90002V8.70002H23.1002C23.5989 8.70002 24.0002 9.10127 24.0002 9.60002C24.0002 10.0988 23.5989 10.5 23.1002 10.5H21.3002V12.3C21.3002 12.7988 20.8989 13.2 20.4002 13.2C19.9014 13.2 19.5002 12.7988 19.5002 12.3V10.5H17.7002C17.2014 10.5 16.8002 10.0988 16.8002 9.60002C16.8002 9.10127 17.2014 8.70002 17.7002 8.70002H19.5002V6.90002C19.5002 6.40127 19.9014 6.00002 20.4002 6.00002Z" fill="black"/>
</g>
<defs>
<clipPath id="clip0_5902_40117">
<rect width="24" height="24" fill="white"/>
</clipPath>
</defs>
</svg>
