<svg width="24" height="24" viewBox="0 0 24 24" fill="none" xmlns="http://www.w3.org/2000/svg">
<path d="M5.4375 6.375C5.4375 5.34082 6.27832 4.5 7.3125 4.5H16.6875C17.7217 4.5 18.5625 5.34082 18.5625 6.375V17.625C18.5625 18.6592 17.7217 19.5 16.6875 19.5H7.3125C6.27832 19.5 5.4375 18.6592 5.4375 17.625V6.375ZM16.2188 13.4062C16.2188 12.8522 16.1096 12.3036 15.8976 11.7918C15.6856 11.28 15.3749 10.8149 14.9831 10.4231C14.5914 10.0314 14.1263 9.72065 13.6144 9.50863C13.1026 9.29662 12.554 9.1875 12 9.1875C11.446 9.1875 10.8974 9.29662 10.3856 9.50863C9.87371 9.72065 9.40864 10.0314 9.01689 10.4231C8.62515 10.8149 8.3144 11.28 8.10238 11.7918C7.89037 12.3036 7.78125 12.8522 7.78125 13.4062C7.78125 13.9603 7.89037 14.5089 8.10238 15.0207C8.3144 15.5325 8.62515 15.9976 9.01689 16.3894C9.40864 16.7811 9.87371 17.0919 10.3856 17.3039C10.8974 17.5159 11.446 17.625 12 17.625C12.554 17.625 13.1026 17.5159 13.6144 17.3039C14.1263 17.0919 14.5914 16.7811 14.9831 16.3894C15.3749 15.9976 15.6856 15.5325 15.8976 15.0207C16.1096 14.5089 16.2188 13.9603 16.2188 13.4062ZM8.01562 7.78125C8.10796 7.78125 8.19939 7.76306 8.2847 7.72773C8.37001 7.69239 8.44752 7.6406 8.51281 7.57531C8.5781 7.51002 8.62989 7.43251 8.66523 7.3472C8.70056 7.26189 8.71875 7.17046 8.71875 7.07812C8.71875 6.98579 8.70056 6.89436 8.66523 6.80905C8.62989 6.72374 8.5781 6.64623 8.51281 6.58094C8.44752 6.51565 8.37001 6.46386 8.2847 6.42852C8.19939 6.39319 8.10796 6.375 8.01562 6.375C7.92329 6.375 7.83186 6.39319 7.74655 6.42852C7.66124 6.46386 7.58373 6.51565 7.51844 6.58094C7.45315 6.64623 7.40136 6.72374 7.36602 6.80905C7.33069 6.89436 7.3125 6.98579 7.3125 7.07812C7.3125 7.17046 7.33069 7.26189 7.36602 7.3472C7.40136 7.43251 7.45315 7.51002 7.51844 7.57531C7.58373 7.6406 7.66124 7.69239 7.74655 7.72773C7.83186 7.76306 7.92329 7.78125 8.01562 7.78125ZM11.5312 7.07812C11.5312 6.89164 11.4572 6.7128 11.3253 6.58094C11.1934 6.44908 11.0146 6.375 10.8281 6.375C10.6416 6.375 10.4628 6.44908 10.3309 6.58094C10.1991 6.7128 10.125 6.89164 10.125 7.07812C10.125 7.26461 10.1991 7.44345 10.3309 7.57531C10.4628 7.70717 10.6416 7.78125 10.8281 7.78125C11.0146 7.78125 11.1934 7.70717 11.3253 7.57531C11.4572 7.44345 11.5312 7.26461 11.5312 7.07812ZM12 16.6875C10.1865 16.6875 8.71875 15.2197 8.71875 13.4062C8.71875 12.9229 8.82422 12.4629 9.01172 12.0498C9.22852 12.0176 9.44531 12 9.65625 12C10.5938 12 11.2969 12.4688 12 12.9375C12.7031 13.4062 13.4062 13.875 14.3438 13.875C14.6631 13.875 14.9707 13.8486 15.2578 13.8018C15.0615 15.4277 13.6787 16.6875 12 16.6875Z" fill="black"/>
</svg>
