<svg width="24" height="24" viewBox="0 0 24 24" fill="none" xmlns="http://www.w3.org/2000/svg">
<path d="M20.1348 7.91608C20.0351 7.54506 19.8398 7.20671 19.5684 6.9349C19.2969 6.66308 18.9588 6.46734 18.5879 6.36725C17.2227 6.00006 11.75 6.00006 11.75 6.00006C11.75 6.00006 6.27734 6.00006 4.91211 6.3653C4.54106 6.46506 4.20278 6.6607 3.93126 6.93256C3.65974 7.20442 3.46453 7.54294 3.36523 7.91412C3 9.28131 3 12.1329 3 12.1329C3 12.1329 3 14.9844 3.36523 16.3497C3.56641 17.1036 4.16016 17.6973 4.91211 17.8985C6.27734 18.2657 11.75 18.2657 11.75 18.2657C11.75 18.2657 17.2227 18.2657 18.5879 17.8985C19.3418 17.6973 19.9336 17.1036 20.1348 16.3497C20.5 14.9844 20.5 12.1329 20.5 12.1329C20.5 12.1329 20.5 9.28131 20.1348 7.91608ZM10.0117 14.7501V9.51569L14.543 12.1133L10.0117 14.7501Z" fill="black"/>
</svg>
