<svg width="260" height="62" viewBox="0 0 260 62" fill="none" xmlns="http://www.w3.org/2000/svg">
<path d="M70.0695 18.8328H62.3227C62.2751 18.8328 62.228 18.8422 62.1841 18.8605C62.1401 18.8789 62.1003 18.9057 62.0668 18.9395C62.0334 18.9734 62.0069 19.0135 61.9891 19.0576C61.9713 19.1017 61.9624 19.1489 61.9629 19.1965V42.849C61.9624 42.8966 61.9713 42.9438 61.9891 42.9879C62.0069 43.032 62.0334 43.0722 62.0668 43.106C62.1003 43.1398 62.1401 43.1667 62.1841 43.185C62.228 43.2033 62.2751 43.2128 62.3227 43.2128H70.0364C74.1724 43.2128 77.3819 42.1091 79.5492 39.9307C81.7164 37.7523 82.8332 34.7596 82.8332 31.0393V30.7747C82.8332 27.0545 81.733 24.1238 79.5616 22.0115C77.3902 19.8992 74.2096 18.8328 70.0695 18.8328ZM68.0511 23.7104H69.7965C72.1292 23.7104 73.8498 24.2974 74.9086 25.4589C75.9674 26.6205 76.5175 28.4351 76.5175 30.8326V31.0972C76.5175 35.95 74.342 38.3103 69.8627 38.3103H68.0428L68.0511 23.7104Z" fill="white"/>
<path d="M94.7289 24.7854C91.9992 24.7854 89.7078 25.6576 87.9252 27.3689C86.1426 29.0802 85.2285 31.3578 85.2285 34.115V34.3795C85.2285 37.1201 86.1384 39.3605 87.9252 41.047C89.7119 42.7335 91.9867 43.5768 94.6958 43.5768C97.4049 43.5768 99.7169 42.7211 101.5 41.0264C103.282 39.3316 104.196 37.0622 104.196 34.2803V34.0157C104.196 31.2586 103.295 29.0058 101.516 27.3193C99.7376 25.6328 97.4628 24.7854 94.7289 24.7854ZM90.8535 34.0157C90.8535 32.4574 91.205 31.238 91.8999 30.3906C92.2417 29.9773 92.6756 29.6499 93.1669 29.4345C93.6582 29.2192 94.1932 29.1219 94.7289 29.1505C95.2702 29.1193 95.811 29.2183 96.3062 29.4391C96.8013 29.6599 97.2362 29.9961 97.5745 30.4195C98.2569 31.2876 98.6043 32.5194 98.6043 34.0819V34.3134C98.6043 35.8759 98.2569 37.1036 97.5745 37.9592C97.2325 38.3766 96.7962 38.7067 96.3014 38.9223C95.8066 39.1379 95.2676 39.2329 94.7289 39.1993C94.1881 39.2319 93.6473 39.1335 93.1527 38.9126C92.658 38.6917 92.224 38.3547 91.8875 37.9303C91.2009 37.0622 90.8535 35.8304 90.8535 34.2679V34.0157Z" fill="white"/>
<path d="M131.785 17.345H127.02C126.819 17.345 126.656 17.5078 126.656 17.7087V42.8493C126.656 43.0502 126.819 43.2131 127.02 43.2131H131.785C131.986 43.2131 132.149 43.0502 132.149 42.8493V17.7087C132.149 17.5078 131.986 17.345 131.785 17.345Z" fill="white"/>
<path d="M144.313 24.7854C143.093 24.7509 141.878 24.9623 140.741 25.4068C139.604 25.8514 138.569 26.5201 137.696 27.373C135.942 29.0884 135.053 31.3702 135.053 34.148V34.4125C135.053 37.2192 135.938 39.4721 137.683 41.1131C139.429 42.7541 141.699 43.5933 144.454 43.5933C146.882 43.5933 148.867 43.0642 150.356 42.0225C151.105 41.4979 151.735 40.8221 152.206 40.0389C152.677 39.2557 152.978 38.3824 153.09 37.4755C153.097 37.4232 153.093 37.37 153.078 37.3193C153.063 37.2687 153.038 37.2219 153.003 37.182C152.969 37.143 152.927 37.1117 152.88 37.0903C152.833 37.0689 152.782 37.0579 152.73 37.058H148.18C148.097 37.0589 148.017 37.088 147.952 37.1406C147.887 37.1931 147.842 37.266 147.825 37.3474C147.531 38.7776 146.468 39.4721 144.574 39.4721C144.055 39.5031 143.535 39.4229 143.049 39.2368C142.563 39.0508 142.123 38.7631 141.757 38.3932C141.096 37.6323 140.71 36.6715 140.661 35.665H152.751C152.847 35.665 152.94 35.6267 153.008 35.5585C153.076 35.4903 153.115 35.3977 153.115 35.3013V33.9785C153.115 30.9775 152.287 28.6709 150.596 27.1291C148.885 25.5637 146.632 24.7234 144.313 24.7854ZM144.313 28.8197C146.348 28.8197 147.457 29.849 147.692 31.9654H140.773C140.913 31.1227 141.307 30.3426 141.902 29.7291C142.222 29.4229 142.6 29.1845 143.015 29.0282C143.429 28.8719 143.871 28.801 144.313 28.8197Z" fill="white"/>
<path d="M186.29 38.6786C185.755 38.8879 185.185 38.9904 184.611 38.9803C183.535 38.9803 183.051 38.4595 183.051 37.2938V29.316H186.331C186.379 29.3165 186.426 29.3076 186.47 29.2898C186.514 29.272 186.554 29.2455 186.588 29.2121C186.622 29.1786 186.649 29.1388 186.667 29.0949C186.686 29.051 186.695 29.0039 186.695 28.9563V25.5461C186.695 25.4985 186.686 25.4514 186.667 25.4075C186.649 25.3636 186.622 25.3238 186.588 25.2903C186.554 25.2569 186.514 25.2305 186.47 25.2127C186.426 25.1948 186.379 25.1859 186.331 25.1865H183.051V21.8093C183.052 21.7617 183.043 21.7145 183.025 21.6704C183.007 21.6263 182.981 21.5862 182.947 21.5524C182.914 21.5185 182.874 21.4917 182.83 21.4733C182.786 21.455 182.739 21.4456 182.691 21.4456H177.923C177.826 21.4456 177.734 21.4839 177.665 21.5521C177.597 21.6203 177.559 21.7128 177.559 21.8093V25.1865H175.706C175.61 25.1865 175.518 25.2242 175.45 25.2916C175.382 25.3589 175.343 25.4503 175.342 25.5461V28.9563C175.343 29.0521 175.382 29.1435 175.45 29.2109C175.518 29.2782 175.61 29.316 175.706 29.316H177.559V37.7237C177.559 39.6004 178.076 41.0595 179.093 42.0516C180.111 43.0437 181.575 43.5438 183.519 43.5438C184.549 43.555 185.574 43.3915 186.55 43.0602C186.622 43.0354 186.683 42.989 186.727 42.9275C186.771 42.8661 186.794 42.7925 186.794 42.7171V38.9969C186.794 38.937 186.779 38.8781 186.751 38.8253C186.723 38.7726 186.682 38.7276 186.632 38.6945C186.582 38.6614 186.524 38.6411 186.465 38.6354C186.405 38.6298 186.345 38.6389 186.29 38.6621V38.6786Z" fill="white"/>
<path d="M206.507 25.186H201.734C201.638 25.186 201.547 25.2239 201.479 25.2914C201.412 25.3588 201.374 25.4503 201.374 25.5457V26.918C200.204 25.5043 198.562 24.7851 196.473 24.7851C195.404 24.7737 194.347 24.9983 193.375 25.4427C192.403 25.8872 191.542 26.5406 190.852 27.3562C189.355 29.051 188.594 31.3451 188.594 34.1807V34.4577C188.594 37.2975 189.347 39.5503 190.827 41.1541C191.519 41.9328 192.372 42.5524 193.327 42.9706C194.281 43.3887 195.315 43.5954 196.357 43.5764C197.559 43.5835 198.739 43.248 199.757 42.6092C200.372 42.234 200.923 41.7638 201.391 41.2161V42.8489C201.39 42.8965 201.399 42.9437 201.417 42.9878C201.435 43.0319 201.461 43.072 201.494 43.1059C201.528 43.1397 201.568 43.1666 201.612 43.1849C201.656 43.2032 201.703 43.2127 201.75 43.2127H206.519C206.616 43.2127 206.708 43.1743 206.777 43.1061C206.845 43.0379 206.883 42.9454 206.883 42.8489V25.5457C206.883 25.4972 206.872 25.4493 206.853 25.4048C206.834 25.3603 206.806 25.3202 206.771 25.2867C206.736 25.2531 206.694 25.227 206.649 25.2097C206.604 25.1924 206.555 25.1844 206.507 25.186ZM194.223 34.0815C194.223 32.4777 194.558 31.2376 195.22 30.4026C195.537 30.0004 195.945 29.6797 196.412 29.4676C196.878 29.2555 197.388 29.1579 197.9 29.1832C198.4 29.1579 198.899 29.251 199.356 29.455C199.813 29.659 200.215 29.9682 200.53 30.3572C201.18 31.1591 201.511 32.3909 201.511 34.0154V34.28C201.511 35.8838 201.155 37.1032 200.456 37.9134C200.123 38.3067 199.705 38.6191 199.234 38.8268C198.762 39.0345 198.249 39.1321 197.734 39.1121C197.25 39.1264 196.77 39.026 196.332 38.819C195.894 38.6121 195.512 38.3046 195.215 37.9217C194.558 37.0949 194.223 35.9086 194.223 34.3461V34.0815Z" fill="white"/>
<path d="M220.722 24.9177C218.443 24.9384 216.69 25.8064 215.49 27.5012V25.546C215.49 25.4506 215.452 25.3592 215.385 25.2917C215.317 25.2243 215.226 25.1864 215.131 25.1864H210.329C210.233 25.1864 210.142 25.2243 210.074 25.2917C210.007 25.3592 209.969 25.4506 209.969 25.546V42.8493C209.968 42.8969 209.977 42.9441 209.995 42.9882C210.013 43.0323 210.039 43.0724 210.073 43.1063C210.106 43.1401 210.146 43.167 210.19 43.1853C210.234 43.2036 210.281 43.2131 210.329 43.213H215.131C215.178 43.2131 215.225 43.2036 215.269 43.1853C215.313 43.167 215.353 43.1401 215.386 43.1063C215.42 43.0724 215.446 43.0323 215.464 42.9882C215.482 42.9441 215.491 42.8969 215.49 42.8493V34.1687C215.49 32.6889 215.904 31.6638 216.731 31.0355C217.558 30.4071 218.927 30.0765 220.698 30.0971C220.795 30.0975 220.888 30.0605 220.958 29.9938C220.993 29.9606 221.02 29.9208 221.038 29.8767C221.057 29.8327 221.066 29.7853 221.066 29.7375V25.2815C221.066 25.2337 221.057 25.1863 221.038 25.1423C221.02 25.0982 220.993 25.0584 220.958 25.0252C220.895 24.9617 220.812 24.9234 220.722 24.9177Z" fill="white"/>
<path d="M240.368 25.1861H235.599C235.504 25.1861 235.412 25.2239 235.345 25.2914C235.277 25.3588 235.239 25.4503 235.239 25.5457V26.918C234.073 25.5043 232.427 24.7851 230.338 24.7851C229.27 24.7735 228.213 24.998 227.242 25.4425C226.271 25.8869 225.41 26.5405 224.721 27.3562C223.22 29.051 222.459 31.3451 222.459 34.1808V34.4577C222.459 37.2975 223.212 39.5503 224.692 41.1542C225.382 41.9325 226.232 42.553 227.183 42.9731C228.135 43.3933 229.166 43.6033 230.206 43.5889C231.409 43.5965 232.59 43.261 233.61 42.6216C234.223 42.2464 234.773 41.7762 235.239 41.2286V42.8614C235.239 42.9089 235.248 42.9562 235.265 43.0003C235.283 43.0444 235.31 43.0845 235.343 43.1183C235.377 43.1522 235.416 43.179 235.46 43.1974C235.504 43.2157 235.551 43.2251 235.599 43.2251H240.368C240.464 43.2251 240.557 43.1868 240.625 43.1186C240.693 43.0504 240.732 42.9578 240.732 42.8614V25.5457C240.731 25.4499 240.692 25.3585 240.624 25.2911C240.556 25.2238 240.464 25.186 240.368 25.1861ZM228.084 34.0816C228.084 32.4777 228.419 31.2377 229.081 30.4027C229.398 30.0006 229.807 29.6802 230.273 29.4681C230.739 29.256 231.249 29.1583 231.761 29.1832C232.261 29.1579 232.76 29.251 233.217 29.455C233.674 29.6591 234.076 29.9682 234.391 30.3572C235.041 31.1591 235.372 32.3909 235.372 34.0154V34.28C235.372 35.8838 235.016 37.1032 234.317 37.9134C233.984 38.307 233.566 38.6195 233.095 38.8273C232.623 39.035 232.11 39.1325 231.595 39.1122C231.112 39.1268 230.632 39.0265 230.195 38.8195C229.758 38.6126 229.376 38.3049 229.081 37.9217C228.419 37.095 228.084 35.9086 228.084 34.3461V34.0816Z" fill="white"/>
<path d="M256.904 33.4576C255.791 32.6556 254.009 32.0769 251.626 31.738C250.771 31.6652 249.933 31.4559 249.145 31.1179C248.977 31.0356 248.838 30.9058 248.744 30.7449C248.65 30.5839 248.605 30.3988 248.615 30.2127C248.611 30.0168 248.655 29.823 248.743 29.6479C248.831 29.4729 248.96 29.3219 249.12 29.2082C249.589 28.9028 250.145 28.7578 250.704 28.7948C252.081 28.7948 252.83 29.3653 253.061 30.5847C253.077 30.6679 253.121 30.7432 253.186 30.7975C253.251 30.8518 253.332 30.8818 253.417 30.8823H257.822C257.873 30.8824 257.924 30.8714 257.97 30.85C258.017 30.8286 258.058 30.7973 258.091 30.7583C258.126 30.721 258.152 30.6765 258.168 30.6279C258.183 30.5793 258.188 30.5279 258.182 30.4772C257.768 26.7074 255.237 24.7935 250.671 24.7935C248.86 24.7337 247.077 25.2473 245.575 26.261C244.883 26.7346 244.323 27.3759 243.946 28.1247C243.569 28.8736 243.388 29.7057 243.42 30.5434C243.42 32.3043 243.946 33.6312 244.988 34.4951C246.03 35.359 247.689 35.9295 250.121 36.2932C251.014 36.3698 251.887 36.6005 252.702 36.9753C252.89 37.0676 253.049 37.2121 253.158 37.3915C253.267 37.571 253.323 37.778 253.318 37.988C253.318 38.6411 253.074 39.5092 250.964 39.5092C250.067 39.5092 249.413 39.3356 249.021 38.9883C248.583 38.5605 248.32 37.9864 248.28 37.3762C248.269 37.2889 248.226 37.2087 248.16 37.1508C248.094 37.093 248.008 37.0614 247.92 37.0621H243.466C243.417 37.062 243.368 37.0719 243.323 37.0913C243.278 37.1106 243.238 37.139 243.204 37.1746C243.17 37.2102 243.144 37.2523 243.127 37.2984C243.11 37.3444 243.103 37.3934 243.106 37.4424C243.197 39.4182 243.933 40.9559 245.331 42.0141C246.729 43.0723 248.603 43.5766 251.014 43.5766C253.425 43.5766 255.287 43.0599 256.614 42.0472C257.942 41.0345 258.662 39.4844 258.662 37.525C258.662 35.6649 258.07 34.2967 256.904 33.4576Z" fill="white"/>
<path d="M123.126 25.3103H118.395C118.298 25.3103 118.206 25.3487 118.137 25.4169C118.069 25.4851 118.031 25.5776 118.031 25.6741V35.756C118.031 36.8762 117.733 37.7318 117.142 38.3064C116.787 38.6459 116.354 38.8916 115.88 39.0215C115.372 39.1372 114.845 39.1372 114.337 39.0215C113.864 38.8916 113.43 38.6459 113.076 38.3064C112.484 37.7318 112.187 36.8762 112.187 35.756V25.6741C112.187 25.5776 112.148 25.4851 112.08 25.4169C112.012 25.3487 111.919 25.3103 111.823 25.3103H107.091C107.043 25.3098 106.996 25.3188 106.951 25.3369C106.907 25.355 106.866 25.3817 106.833 25.4156C106.799 25.4495 106.772 25.4898 106.754 25.5342C106.736 25.5786 106.727 25.6262 106.727 25.6741V36.7439C106.715 37.649 106.893 38.5466 107.249 39.3789C107.605 40.2111 108.132 40.9596 108.795 41.5761C109.92 42.717 111.972 43.5767 114.916 43.5767H115.293C118.238 43.5767 120.289 42.717 121.414 41.5761C122.077 40.9596 122.604 40.2111 122.96 39.3789C123.316 38.5466 123.494 37.649 123.482 36.7439V25.6741C123.483 25.6269 123.474 25.58 123.456 25.5361C123.439 25.4923 123.413 25.4524 123.38 25.4186C123.347 25.3848 123.307 25.3579 123.264 25.3393C123.22 25.3207 123.174 25.3109 123.126 25.3103Z" fill="white"/>
<path d="M172.455 25.3103H167.723C167.626 25.3103 167.534 25.3487 167.466 25.4169C167.397 25.4851 167.359 25.5776 167.359 25.6741V35.756C167.359 36.8762 167.061 37.7318 166.47 38.3064C166.115 38.6459 165.682 38.8916 165.208 39.0215C164.701 39.1372 164.173 39.1372 163.666 39.0215C163.199 38.8885 162.773 38.6429 162.425 38.3064C161.833 37.7318 161.535 36.8762 161.535 35.756V25.6741C161.535 25.5776 161.497 25.4851 161.429 25.4169C161.361 25.3487 161.268 25.3103 161.171 25.3103H156.419C156.371 25.3098 156.324 25.3188 156.279 25.3369C156.235 25.355 156.195 25.3817 156.161 25.4156C156.127 25.4495 156.1 25.4898 156.082 25.5342C156.064 25.5786 156.055 25.6262 156.055 25.6741V36.7439C156.043 37.649 156.221 38.5466 156.577 39.3789C156.933 40.2111 157.46 40.9596 158.123 41.5761C159.252 42.717 161.3 43.5767 164.245 43.5767H164.629C167.574 43.5767 169.626 42.717 170.751 41.5761C171.414 40.9596 171.94 40.2111 172.297 39.3789C172.653 38.5466 172.831 37.649 172.819 36.7439V25.6741C172.819 25.6262 172.81 25.5786 172.792 25.5342C172.774 25.4898 172.747 25.4495 172.713 25.4156C172.679 25.3817 172.639 25.355 172.594 25.3369C172.55 25.3188 172.502 25.3098 172.455 25.3103Z" fill="white"/>
<path d="M20.9902 0C42.0093 1.57503e-05 52.114 15.0587 52.4697 30.291C52.8213 46.0566 42.7208 62 21.0068 62H1.92773C1.41743 62 0.927709 61.7976 0.566406 61.4375C0.205131 61.0772 0.00116194 60.5882 0 60.0781V1.92578C0.000127632 1.41516 0.203216 0.925568 0.564453 0.564453C0.925906 0.203209 1.41656 0 1.92773 0H20.9902ZM24.3574 18.8359C23.5726 18.8359 22.8199 19.1469 22.2646 19.7012L13.376 28.584C12.8205 29.1385 12.5085 29.8911 12.5078 30.6758V40.2451C12.5078 41.0311 12.82 41.785 13.376 42.3408C13.9321 42.8966 14.6871 43.209 15.4736 43.209H33.2578C34.042 43.2057 34.7933 42.8921 35.3467 42.3369C35.9001 41.7814 36.2109 41.029 36.2109 40.2451V30.6758C36.2103 29.8911 35.8983 29.1385 35.3428 28.584L26.4502 19.7012C25.8949 19.1469 25.1422 18.8359 24.3574 18.8359Z" fill="white"/>
</svg>
