<svg width="53" height="62" viewBox="0 0 53 62" fill="none" xmlns="http://www.w3.org/2000/svg">
<path d="M20.9932 0C41.9937 0.00181498 52.0946 15.0588 52.4434 30.29C52.8066 46.055 42.7021 62 20.9932 62H1.9248C1.41448 61.9995 0.92531 61.7962 0.564453 61.4355C0.203666 61.0749 0.000496771 60.5862 0 60.0762V1.92383C0.000496749 1.41383 0.203666 0.925118 0.564453 0.564453C0.92531 0.203805 1.41448 0.000532859 1.9248 0H20.9932ZM24.3438 18.832C23.5585 18.832 22.8054 19.1435 22.25 19.6982L13.3506 28.582C12.799 29.1389 12.4901 29.8912 12.4902 30.6748V40.2471C12.4902 41.0327 12.8026 41.7863 13.3584 42.3418C13.9142 42.8973 14.6681 43.209 15.4541 43.209H33.2314C34.0174 43.2089 34.7714 42.8972 35.3271 42.3418C35.8829 41.7863 36.1953 41.0326 36.1953 40.2471V30.6748C36.1946 29.8892 35.8813 29.1363 35.3252 28.5811L26.4375 19.6982C25.8821 19.1435 25.129 18.8321 24.3438 18.832Z" fill="#006BFF"/>
</svg>
