<svg width="222" height="63" viewBox="0 0 222 63" fill="none" xmlns="http://www.w3.org/2000/svg">
<path fill-rule="evenodd" clip-rule="evenodd" d="M31.2188 0C39.9359 1.43342e-05 46.87 0.436246 52.3203 2.66406C53.9963 3.21542 55.5158 4.16096 56.75 5.42188C57.9841 6.68267 58.8968 8.2219 59.4121 9.90918C61.5955 15.4 62 22.3954 62 31.2139C62 39.931 61.5635 46.8651 59.3398 52.3154C58.7867 53.9927 57.8393 55.5136 56.5771 56.749C55.315 57.9844 53.7747 58.8989 52.0859 59.416C46.5951 61.5792 39.5997 62.0039 30.7812 62.0039C22.0641 62.0039 15.13 61.5667 9.67969 59.3389C8.00276 58.7867 6.48326 57.8395 5.24902 56.5771C4.01478 55.3148 3.10209 53.7739 2.58789 52.085C0.404607 46.5942 2.26506e-06 39.5995 0 30.7812C0 22.0682 0.436496 15.1299 2.66016 9.68359C3.21355 8.00688 4.16166 6.48668 5.42383 5.25195C6.68593 4.01737 8.22573 3.10329 9.91406 2.58691C15.4049 0.423747 22.4003 0 31.2188 0ZM31.0098 19.0732C30.2419 19.0733 29.5054 19.3775 28.9619 19.9199L20.2725 28.6094C19.7297 29.1518 19.4244 29.8879 19.4238 30.6553V40.0195C19.4239 40.7882 19.7289 41.5258 20.2725 42.0693C20.8161 42.613 21.5544 42.918 22.3232 42.918H39.709C40.4777 42.918 41.2151 42.6129 41.7588 42.0693C42.3024 41.5258 42.6083 40.7883 42.6084 40.0195V30.6553C42.6078 29.8878 42.3018 29.1518 41.7588 28.6094L33.0576 19.9199C32.5141 19.3775 31.7776 19.0732 31.0098 19.0732Z" fill="#006BFF"/>
<path d="M78.1051 42.918V32.8502L70.3945 19.5518H76.2088L80.9475 28.5036L85.5893 19.5518H90.7202L83.4423 32.8502V42.918H78.1051Z" fill="#232323" stroke="#232323" stroke-width="0.788444" stroke-linecap="round" stroke-linejoin="round"/>
<path d="M98.7246 43.2777C96.1315 43.2777 93.9858 42.4771 92.2876 40.8759C90.5894 39.2748 89.739 37.1669 89.7363 34.5522V34.2894C89.7363 31.6532 90.5867 29.5183 92.2876 27.8848C93.9885 26.2513 96.1449 25.4346 98.7569 25.4346C101.374 25.4346 103.531 26.2351 105.226 27.8363C106.922 29.4374 107.767 31.5561 107.761 34.1924V34.4511C107.761 37.1116 106.911 39.2478 105.21 40.8598C103.509 42.4717 101.347 43.2777 98.7246 43.2777ZM95.6678 38.2923C96.0562 38.7275 96.5322 39.0757 97.0645 39.3141C97.5969 39.5526 98.1736 39.6758 98.7569 39.6758C99.3402 39.6758 99.917 39.5526 100.449 39.3141C100.982 39.0757 101.458 38.7275 101.846 38.2923C102.574 37.3785 102.939 36.1035 102.942 34.4673V34.2409C102.942 32.6074 102.576 31.327 101.846 30.3997C101.478 29.9399 101.006 29.5743 100.469 29.3331C99.9319 29.0919 99.3449 28.9822 98.7569 29.0129C98.1749 28.9857 97.5944 29.0939 97.0612 29.3289C96.528 29.5639 96.0566 29.9194 95.684 30.3674C94.9427 31.2731 94.5735 32.5427 94.5761 34.1762V34.435C94.5761 36.0792 94.94 37.365 95.6678 38.2923Z" fill="#232323" stroke="#232323" stroke-width="0.788444" stroke-linecap="round" stroke-linejoin="round"/>
<path d="M116.928 43.278C115.165 43.278 113.754 42.7389 112.694 41.6607C111.635 40.5825 111.107 38.9652 111.109 36.8088V25.8271H115.816V36.1861C115.816 38.4692 116.808 39.6121 118.792 39.6148C119.261 39.633 119.73 39.5573 120.17 39.392C120.611 39.2268 121.013 38.9754 121.355 38.6525C122.018 38.0096 122.354 37.0797 122.354 35.8586V25.8271H127.06V42.9182H122.354V40.2375C121.316 42.2645 119.507 43.278 116.928 43.278Z" fill="#232323" stroke="#232323" stroke-width="0.788444" stroke-linecap="round" stroke-linejoin="round"/>
<path d="M131.568 42.9183V25.8273H136.307V29.0942C137.385 26.7626 139.226 25.586 141.83 25.5645V29.9757C139.997 29.9568 138.619 30.2897 137.694 30.9744C136.769 31.659 136.307 32.7858 136.307 34.3546V42.9183H131.568Z" fill="#232323" stroke="#232323" stroke-width="0.788444" stroke-linecap="round" stroke-linejoin="round"/>
<path d="M146.113 42.918V19.5518H151.406V29.094H160.786V19.5518H166.083V42.918H160.786V33.2747H151.406V42.918H146.113Z" fill="#232323" stroke="#232323" stroke-width="0.788444" stroke-linecap="round" stroke-linejoin="round"/>
<path d="M178.693 43.2781C176.057 43.2781 173.911 42.4991 172.256 40.941C170.601 39.383 169.772 37.2711 169.77 34.6052V34.3424C169.77 31.6873 170.604 29.5416 172.272 27.9054C173.101 27.0948 174.086 26.4599 175.166 26.0389C176.246 25.6178 177.401 25.4193 178.56 25.4552C180.757 25.3797 182.896 26.1645 184.524 27.6426C186.106 29.1009 186.896 31.2695 186.893 34.1483V35.4543H174.573C174.642 36.8694 175.042 37.9692 175.786 38.7536C176.181 39.1529 176.656 39.4642 177.18 39.6669C177.704 39.8697 178.265 39.9594 178.827 39.9302C180.875 39.9302 182.063 39.135 182.389 37.5447H186.865C186.765 38.3952 186.487 39.2151 186.048 39.9503C185.609 40.6855 185.019 41.3195 184.317 41.8103C182.899 42.7888 181.025 43.2781 178.693 43.2781ZM174.65 32.5229H182.296C182.142 29.9756 180.899 28.702 178.568 28.702C178.086 28.6853 177.605 28.7646 177.154 28.9354C176.703 29.1061 176.29 29.3649 175.94 29.6966C175.201 30.4657 174.744 31.4615 174.642 32.5229H174.65Z" fill="#232323" stroke="#232323" stroke-width="0.788444" stroke-linecap="round" stroke-linejoin="round"/>
<path d="M190.342 42.9183V25.8273H195.081V29.0942C196.159 26.7626 198 25.586 200.604 25.5645V29.9757C198.773 29.9568 197.396 30.2897 196.471 30.9744C195.541 31.6577 195.081 32.7858 195.081 34.3546V42.9183H190.342Z" fill="#232323" stroke="#232323" stroke-width="0.788444" stroke-linecap="round" stroke-linejoin="round"/>
<path d="M211.635 43.2777C209.042 43.2777 206.896 42.4771 205.198 40.8759C203.5 39.2748 202.649 37.1669 202.646 34.5522V34.2894C202.646 31.6532 203.497 29.5183 205.198 27.8848C206.899 26.2513 209.055 25.4346 211.667 25.4346C214.279 25.4346 216.435 26.2351 218.136 27.8363C219.837 29.4374 220.681 31.5588 220.667 34.2004V34.4592C220.667 37.1197 219.817 39.2559 218.116 40.8678C216.415 42.4798 214.255 43.2831 211.635 43.2777ZM208.578 38.2923C208.966 38.7275 209.442 39.0757 209.975 39.3141C210.507 39.5526 211.084 39.6758 211.667 39.6758C212.25 39.6758 212.827 39.5526 213.359 39.3141C213.892 39.0757 214.368 38.7275 214.756 38.2923C215.484 37.3785 215.848 36.1035 215.848 34.4673V34.2409C215.848 32.6074 215.484 31.327 214.756 30.3997C214.388 29.9401 213.916 29.5747 213.379 29.3335C212.842 29.0924 212.255 28.9825 211.667 29.0129C211.085 28.9854 210.504 29.0934 209.971 29.3285C209.438 29.5635 208.967 29.9192 208.594 30.3674C207.853 31.2731 207.482 32.5427 207.482 34.1762V34.435C207.482 36.0792 207.847 37.365 208.578 38.2923Z" fill="#232323" stroke="#232323" stroke-width="0.788444" stroke-linecap="round" stroke-linejoin="round"/>
</svg>
