<svg width="63" height="63" viewBox="0 0 63 63" fill="none" xmlns="http://www.w3.org/2000/svg">
<path fill-rule="evenodd" clip-rule="evenodd" d="M31.7188 0.497559C40.4359 0.497573 47.37 0.934781 52.8203 3.1626C54.4963 3.71396 56.0158 4.6595 57.25 5.92041C58.4841 7.18121 59.3968 8.72043 59.9121 10.4077C62.0955 15.8985 62.5 22.894 62.5 31.7124C62.5 40.4295 62.0635 47.3637 59.8398 52.814C59.2867 54.4913 58.3393 56.0121 57.0771 57.2476C55.815 58.483 54.2747 59.3974 52.5859 59.9146C47.0951 62.0777 40.0997 62.5024 31.2812 62.5024C22.5641 62.5024 15.63 62.0652 10.1797 59.8374C8.50276 59.2853 6.98326 58.3381 5.74902 57.0757C4.51478 55.8133 3.60209 54.2725 3.08789 52.5835C0.904607 47.0927 0.500002 40.098 0.5 31.2798C0.5 22.5667 0.936496 15.6284 3.16016 10.1821C3.71355 8.50542 4.66166 6.98521 5.92383 5.75049C7.18593 4.51591 8.72573 3.60182 10.4141 3.08545C15.9049 0.922282 22.9003 0.497559 31.7188 0.497559ZM31.5098 19.5718C30.7419 19.5718 30.0054 19.876 29.4619 20.4185L20.7725 29.1079C20.2297 29.6503 19.9244 30.3865 19.9238 31.1538V40.5181C19.9239 41.2868 20.2289 42.0243 20.7725 42.5679C21.3161 43.1115 22.0544 43.4165 22.8232 43.4165H40.209C40.9777 43.4165 41.7151 43.1114 42.2588 42.5679C42.8024 42.0243 43.1083 41.2868 43.1084 40.5181V31.1538C43.1078 30.3863 42.8018 29.6503 42.2588 29.1079L33.5576 20.4185C33.0141 19.8761 32.2776 19.5718 31.5098 19.5718Z" fill="white"/>
</svg>
