<svg width="199" height="63" viewBox="0 0 199 63" fill="none" xmlns="http://www.w3.org/2000/svg">
<path fill-rule="evenodd" clip-rule="evenodd" d="M31.7188 0C40.4359 1.43342e-05 47.37 0.436246 52.8203 2.66406C54.4963 3.21542 56.0158 4.16096 57.25 5.42188C58.4841 6.68267 59.3968 8.2219 59.9121 9.90918C62.0955 15.4 62.5 22.3954 62.5 31.2139C62.5 39.931 62.0635 46.8651 59.8398 52.3154C59.2867 53.9927 58.3393 55.5136 57.0771 56.749C55.815 57.9844 54.2747 58.8989 52.5859 59.416C47.0951 61.5792 40.0997 62.0039 31.2812 62.0039C22.5641 62.0039 15.63 61.5667 10.1797 59.3389C8.50276 58.7867 6.98326 57.8395 5.74902 56.5771C4.51478 55.3148 3.60209 53.7739 3.08789 52.085C0.904607 46.5942 0.500002 39.5995 0.5 30.7812C0.5 22.0682 0.936496 15.1299 3.16016 9.68359C3.71355 8.00688 4.66166 6.48668 5.92383 5.25195C7.18593 4.01737 8.72573 3.10329 10.4141 2.58691C15.9049 0.423747 22.9003 0 31.7188 0ZM31.5098 19.0732C30.7419 19.0733 30.0054 19.3775 29.4619 19.9199L20.7725 28.6094C20.2297 29.1518 19.9244 29.8879 19.9238 30.6553V40.0195C19.9239 40.7882 20.2289 41.5258 20.7725 42.0693C21.3161 42.613 22.0544 42.918 22.8232 42.918H40.209C40.9777 42.918 41.7151 42.6129 42.2588 42.0693C42.8024 41.5258 43.1083 40.7883 43.1084 40.0195V30.6553C43.1078 29.8878 42.8018 29.1518 42.2588 28.6094L33.5576 19.9199C33.0141 19.3775 32.2776 19.0732 31.5098 19.0732Z" fill="white"/>
<path d="M78.6758 33.073L70.8945 19.7706H76.7662L81.5443 28.7265L86.2286 19.7706H91.4066L84.0619 33.073V43.1368H78.6758V33.073Z" fill="white" stroke="white" stroke-width="0.589756" stroke-linecap="round" stroke-linejoin="round"/>
<path d="M90.4375 34.771V34.5082C90.4375 29.1508 94.3628 25.6534 99.5367 25.6534C104.711 25.6534 108.607 29.0861 108.607 34.4112V34.674C108.607 40.0637 104.682 43.4965 99.5041 43.4965C94.3261 43.4965 90.4375 40.1001 90.4375 34.771ZM103.76 34.7063V34.4759C103.76 31.2089 102.209 29.2479 99.5367 29.2479C96.8641 29.2479 95.3176 31.1442 95.3176 34.4112V34.674C95.3176 37.941 96.8355 39.902 99.5367 39.902C102.238 39.902 103.74 37.941 103.74 34.7063H103.76Z" fill="white" stroke="white" stroke-width="0.589756" stroke-linecap="round" stroke-linejoin="round"/>
<path d="M111.986 37.0597V26.0458H116.732V36.4047C116.732 38.7256 117.691 39.8375 119.735 39.8375C121.779 39.8375 123.33 38.5962 123.33 36.0772V26.0458H128.079V43.1368H123.33V40.4561C122.44 42.1907 120.69 43.4967 117.854 43.4967C114.512 43.4967 111.986 41.5357 111.986 37.0597Z" fill="white" stroke="white" stroke-width="0.589756" stroke-linecap="round" stroke-linejoin="round"/>
<path d="M132.629 26.0457H137.411V29.3248C138.501 27.0404 140.182 25.8274 142.985 25.795V30.1982C139.455 30.1618 137.411 31.3061 137.411 34.5771V43.1368H132.629V26.0457Z" fill="white" stroke="white" stroke-width="0.589756" stroke-linecap="round" stroke-linejoin="round"/>
<path d="M147.307 19.7706H155.467C161.209 19.7706 164.473 22.2895 164.473 27.2224V27.3518C164.473 32.2886 161.009 34.6297 155.635 34.6297H152.632V43.1206H147.327L147.307 19.7706ZM155.316 30.9422C157.92 30.9422 159.307 29.7009 159.307 27.3801V27.2507C159.307 24.7681 157.854 23.7856 155.316 23.7856H152.611V30.9422H155.316Z" fill="white" stroke="white" stroke-width="0.589756" stroke-linecap="round" stroke-linejoin="round"/>
<path d="M167.85 26.0457H172.632V29.3248C173.721 27.0404 175.402 25.8274 178.206 25.795V30.1982C174.676 30.1618 172.632 31.3061 172.632 34.5771V43.1368H167.85V26.0457Z" fill="white" stroke="white" stroke-width="0.589756" stroke-linecap="round" stroke-linejoin="round"/>
<path d="M180.283 34.771V34.5082C180.283 29.1508 184.209 25.6534 189.387 25.6534C194.565 25.6534 198.457 29.0861 198.457 34.4112V34.674C198.457 40.0637 194.532 43.4965 189.354 43.4965C184.176 43.4965 180.283 40.1001 180.283 34.771ZM193.61 34.7063V34.4759C193.61 31.2089 192.059 29.2479 189.387 29.2479C186.714 29.2479 185.163 31.1442 185.163 34.4112V34.674C185.163 37.941 186.681 39.902 189.387 39.902C192.092 39.902 193.61 37.941 193.61 34.7063Z" fill="white" stroke="white" stroke-width="0.589756" stroke-linecap="round" stroke-linejoin="round"/>
</svg>
