<svg width="222" height="63" viewBox="0 0 222 63" fill="none" xmlns="http://www.w3.org/2000/svg">
<path fill-rule="evenodd" clip-rule="evenodd" d="M31.7188 0C40.4359 1.43342e-05 47.37 0.437222 52.8203 2.66504C54.4963 3.2164 56.0158 4.16194 57.25 5.42285C58.4841 6.68365 59.3968 8.22287 59.9121 9.91016C62.0955 15.401 62.5 22.3964 62.5 31.2148C62.5 39.9319 62.0635 46.8661 59.8398 52.3164C59.2867 53.9937 58.3393 55.5146 57.0771 56.75C55.815 57.9854 54.2747 58.8999 52.5859 59.417C47.0951 61.5802 40.0997 62.0049 31.2812 62.0049C22.5641 62.0049 15.63 61.5677 10.1797 59.3398C8.50276 58.7877 6.98326 57.8405 5.74902 56.5781C4.51478 55.3157 3.60209 53.7749 3.08789 52.0859C0.904607 46.5952 0.500002 39.6005 0.5 30.7822C0.5 22.0691 0.936496 15.1308 3.16016 9.68457C3.71355 8.00786 4.66166 6.48766 5.92383 5.25293C7.18593 4.01835 8.72573 3.10427 10.4141 2.58789C15.9049 0.424724 22.9003 0 31.7188 0ZM31.5098 19.0742C30.7419 19.0743 30.0054 19.3785 29.4619 19.9209L20.7725 28.6104C20.2297 29.1528 19.9244 29.8889 19.9238 30.6562V40.0205C19.9239 40.7892 20.2289 41.5267 20.7725 42.0703C21.3161 42.614 22.0544 42.9189 22.8232 42.9189H40.209C40.9777 42.9189 41.7151 42.6138 42.2588 42.0703C42.8024 41.5267 43.1083 40.7892 43.1084 40.0205V30.6562C43.1078 29.8887 42.8018 29.1528 42.2588 28.6104L33.5576 19.9209C33.0141 19.3785 32.2776 19.0742 31.5098 19.0742Z" fill="white"/>
<path d="M78.6051 42.919V32.8512L70.8945 19.5527H76.7088L81.4475 28.5046L86.0893 19.5527H91.2202L83.9423 32.8512V42.919H78.6051Z" fill="white" stroke="white" stroke-width="0.788444" stroke-linecap="round" stroke-linejoin="round"/>
<path d="M99.2246 43.2786C96.6315 43.2786 94.4858 42.4781 92.7876 40.8769C91.0894 39.2758 90.239 37.1679 90.2363 34.5532V34.2904C90.2363 31.6541 91.0867 29.5193 92.7876 27.8858C94.4885 26.2523 96.6449 25.4355 99.2569 25.4355C101.874 25.4355 104.031 26.2361 105.726 27.8373C107.422 29.4384 108.267 31.5571 108.261 34.1933V34.4521C108.261 37.1126 107.411 39.2488 105.71 40.8607C104.009 42.4727 101.847 43.2786 99.2246 43.2786ZM96.1678 38.2932C96.5562 38.7284 97.0322 39.0767 97.5645 39.3151C98.0969 39.5535 98.6736 39.6768 99.2569 39.6768C99.8402 39.6768 100.417 39.5535 100.949 39.3151C101.482 39.0767 101.958 38.7284 102.346 38.2932C103.074 37.3795 103.439 36.1045 103.442 34.4683V34.2419C103.442 32.6084 103.076 31.328 102.346 30.4007C101.978 29.9409 101.506 29.5752 100.969 29.3341C100.432 29.0929 99.8449 28.9831 99.2569 29.0139C98.6749 28.9867 98.0944 29.0949 97.5612 29.3299C97.028 29.5649 96.5566 29.9204 96.184 30.3684C95.4427 31.2741 95.0735 32.5437 95.0761 34.1772V34.4359C95.0761 36.0802 95.44 37.366 96.1678 38.2932Z" fill="white" stroke="white" stroke-width="0.788444" stroke-linecap="round" stroke-linejoin="round"/>
<path d="M117.428 43.279C115.665 43.279 114.254 42.7399 113.194 41.6617C112.135 40.5835 111.607 38.9662 111.609 36.8097V25.8281H116.316V36.1871C116.316 38.4702 117.308 39.6131 119.292 39.6158C119.761 39.634 120.23 39.5582 120.67 39.393C121.111 39.2278 121.513 38.9763 121.855 38.6535C122.518 38.0106 122.854 37.0806 122.854 35.8596V25.8281H127.56V42.9192H122.854V40.2384C121.816 42.2655 120.007 43.279 117.428 43.279Z" fill="white" stroke="white" stroke-width="0.788444" stroke-linecap="round" stroke-linejoin="round"/>
<path d="M132.068 42.9193V25.8282H136.807V29.0952C137.885 26.7636 139.726 25.587 142.33 25.5654V29.9767C140.497 29.9578 139.119 30.2907 138.194 30.9754C137.269 31.66 136.807 32.7868 136.807 34.3556V42.9193H132.068Z" fill="white" stroke="white" stroke-width="0.788444" stroke-linecap="round" stroke-linejoin="round"/>
<path d="M146.613 42.919V19.5527H151.906V29.0949H161.286V19.5527H166.583V42.919H161.286V33.2757H151.906V42.919H146.613Z" fill="white" stroke="white" stroke-width="0.788444" stroke-linecap="round" stroke-linejoin="round"/>
<path d="M179.193 43.279C176.557 43.279 174.411 42.5 172.756 40.942C171.101 39.384 170.272 37.272 170.27 34.6062V34.3433C170.27 31.6882 171.104 29.5426 172.772 27.9064C173.601 27.0958 174.586 26.4609 175.666 26.0399C176.746 25.6188 177.901 25.4203 179.06 25.4562C181.257 25.3806 183.396 26.1655 185.024 27.6436C186.606 29.1019 187.396 31.2704 187.393 34.1493V35.4552H175.073C175.142 36.8704 175.542 37.9702 176.286 38.7546C176.681 39.1539 177.156 39.4651 177.68 39.6679C178.204 39.8707 178.765 39.9604 179.327 39.9312C181.375 39.9312 182.563 39.136 182.889 37.5456H187.365C187.265 38.3962 186.987 39.2161 186.548 39.9513C186.109 40.6865 185.519 41.3204 184.817 41.8113C183.399 42.7898 181.525 43.279 179.193 43.279ZM175.15 32.5239H182.796C182.642 29.9766 181.399 28.7029 179.068 28.7029C178.586 28.6862 178.105 28.7656 177.654 28.9363C177.203 29.1071 176.79 29.3659 176.44 29.6976C175.701 30.4667 175.244 31.4625 175.142 32.5239H175.15Z" fill="white" stroke="white" stroke-width="0.788444" stroke-linecap="round" stroke-linejoin="round"/>
<path d="M190.842 42.9193V25.8282H195.581V29.0952C196.659 26.7636 198.5 25.587 201.104 25.5654V29.9767C199.273 29.9578 197.896 30.2907 196.971 30.9754C196.041 31.6587 195.581 32.7868 195.581 34.3556V42.9193H190.842Z" fill="white" stroke="white" stroke-width="0.788444" stroke-linecap="round" stroke-linejoin="round"/>
<path d="M212.135 43.2786C209.542 43.2786 207.396 42.4781 205.698 40.8769C204 39.2758 203.149 37.1679 203.146 34.5532V34.2904C203.146 31.6541 203.997 29.5193 205.698 27.8858C207.399 26.2523 209.555 25.4355 212.167 25.4355C214.779 25.4355 216.935 26.2361 218.636 27.8373C220.337 29.4384 221.181 31.5598 221.167 34.2014V34.4602C221.167 37.1207 220.317 39.2569 218.616 40.8688C216.915 42.4808 214.755 43.284 212.135 43.2786ZM209.078 38.2932C209.466 38.7284 209.942 39.0767 210.475 39.3151C211.007 39.5535 211.584 39.6768 212.167 39.6768C212.75 39.6768 213.327 39.5535 213.859 39.3151C214.392 39.0767 214.868 38.7284 215.256 38.2932C215.984 37.3795 216.348 36.1045 216.348 34.4683V34.2419C216.348 32.6084 215.984 31.328 215.256 30.4007C214.888 29.9411 214.416 29.5757 213.879 29.3345C213.342 29.0934 212.755 28.9835 212.167 29.0139C211.585 28.9864 211.004 29.0944 210.471 29.3295C209.938 29.5645 209.467 29.9201 209.094 30.3684C208.353 31.2741 207.982 32.5437 207.982 34.1772V34.4359C207.982 36.0802 208.347 37.366 209.078 38.2932Z" fill="white" stroke="white" stroke-width="0.788444" stroke-linecap="round" stroke-linejoin="round"/>
</svg>
