<svg width="199" height="63" viewBox="0 0 199 63" fill="none" xmlns="http://www.w3.org/2000/svg">
<path fill-rule="evenodd" clip-rule="evenodd" d="M31.2188 0C39.9359 1.43342e-05 46.87 0.437222 52.3203 2.66504C53.9963 3.2164 55.5158 4.16194 56.75 5.42285C57.9841 6.68365 58.8968 8.22287 59.4121 9.91016C61.5955 15.401 62 22.3964 62 31.2148C62 39.9319 61.5635 46.8661 59.3398 52.3164C58.7867 53.9937 57.8393 55.5146 56.5771 56.75C55.315 57.9854 53.7747 58.8999 52.0859 59.417C46.5951 61.5802 39.5997 62.0049 30.7812 62.0049C22.0641 62.0049 15.13 61.5677 9.67969 59.3398C8.00276 58.7877 6.48326 57.8405 5.24902 56.5781C4.01478 55.3157 3.10209 53.7749 2.58789 52.0859C0.404607 46.5952 2.26506e-06 39.6005 0 30.7822C0 22.0691 0.436496 15.1308 2.66016 9.68457C3.21355 8.00786 4.16166 6.48766 5.42383 5.25293C6.68593 4.01835 8.22573 3.10427 9.91406 2.58789C15.4049 0.424724 22.4003 0 31.2188 0ZM31.0098 19.0742C30.2419 19.0743 29.5054 19.3785 28.9619 19.9209L20.2725 28.6104C19.7297 29.1528 19.4244 29.8889 19.4238 30.6562V40.0205C19.4239 40.7892 19.7289 41.5267 20.2725 42.0703C20.8161 42.614 21.5544 42.9189 22.3232 42.9189H39.709C40.4777 42.9189 41.2151 42.6138 41.7588 42.0703C42.3024 41.5267 42.6083 40.7892 42.6084 40.0205V30.6562C42.6078 29.8887 42.3018 29.1528 41.7588 28.6104L33.0576 19.9209C32.5141 19.3785 31.7776 19.0742 31.0098 19.0742Z" fill="#006BFF"/>
<path d="M78.1758 33.074L70.3945 19.7715H76.2662L81.0443 28.7275L85.7286 19.7715H90.9066L83.5619 33.074V43.1378H78.1758V33.074Z" fill="#232323" stroke="#232323" stroke-width="0.589756" stroke-linecap="round" stroke-linejoin="round"/>
<path d="M89.9375 34.772V34.5092C89.9375 29.1518 93.8628 25.6544 99.0367 25.6544C104.211 25.6544 108.107 29.0871 108.107 34.4122V34.675C108.107 40.0647 104.182 43.4975 99.0041 43.4975C93.8261 43.4975 89.9375 40.1011 89.9375 34.772ZM103.26 34.7073V34.4768C103.26 31.2099 101.709 29.2489 99.0367 29.2489C96.3641 29.2489 94.8176 31.1452 94.8176 34.4122V34.675C94.8176 37.942 96.3355 39.903 99.0367 39.903C101.738 39.903 103.24 37.942 103.24 34.7073H103.26Z" fill="#232323" stroke="#232323" stroke-width="0.589756" stroke-linecap="round" stroke-linejoin="round"/>
<path d="M111.486 37.0607V26.0468H116.232V36.4057C116.232 38.7265 117.191 39.8385 119.235 39.8385C121.279 39.8385 122.83 38.5972 122.83 36.0782V26.0468H127.579V43.1378H122.83V40.4571C121.94 42.1917 120.19 43.4976 117.354 43.4976C114.012 43.4976 111.486 41.5366 111.486 37.0607Z" fill="#232323" stroke="#232323" stroke-width="0.589756" stroke-linecap="round" stroke-linejoin="round"/>
<path d="M132.129 26.0467H136.911V29.3258C138.001 27.0414 139.682 25.8284 142.485 25.796V30.1992C138.955 30.1628 136.911 31.307 136.911 34.5781V43.1377H132.129V26.0467Z" fill="#232323" stroke="#232323" stroke-width="0.589756" stroke-linecap="round" stroke-linejoin="round"/>
<path d="M146.807 19.7715H154.967C160.709 19.7715 163.973 22.2905 163.973 27.2234V27.3527C163.973 32.2896 160.509 34.6307 155.135 34.6307H152.132V43.1216H146.827L146.807 19.7715ZM154.816 30.9432C157.42 30.9432 158.807 29.7019 158.807 27.381V27.2517C158.807 24.7691 157.354 23.7865 154.816 23.7865H152.111V30.9432H154.816Z" fill="#232323" stroke="#232323" stroke-width="0.589756" stroke-linecap="round" stroke-linejoin="round"/>
<path d="M167.35 26.0467H172.132V29.3258C173.221 27.0414 174.902 25.8284 177.706 25.796V30.1992C174.176 30.1628 172.132 31.307 172.132 34.5781V43.1377H167.35V26.0467Z" fill="#232323" stroke="#232323" stroke-width="0.589756" stroke-linecap="round" stroke-linejoin="round"/>
<path d="M179.783 34.772V34.5092C179.783 29.1518 183.709 25.6544 188.887 25.6544C194.065 25.6544 197.957 29.0871 197.957 34.4122V34.675C197.957 40.0647 194.032 43.4975 188.854 43.4975C183.676 43.4975 179.783 40.1011 179.783 34.772ZM193.11 34.7073V34.4768C193.11 31.2099 191.559 29.2489 188.887 29.2489C186.214 29.2489 184.663 31.1452 184.663 34.4122V34.675C184.663 37.942 186.181 39.903 188.887 39.903C191.592 39.903 193.11 37.942 193.11 34.7073Z" fill="#232323" stroke="#232323" stroke-width="0.589756" stroke-linecap="round" stroke-linejoin="round"/>
</svg>
